<svg viewBox="0 0 308 308"><path d="M164 .2l-1.4.8c-1.4.7-1.9.8-13.8 1-14 .4-15.1.5-16.8 1.5-1 .7-2 .8-6.7 1-5.6.3-6.8.5-8.6 1.8-1 .7-1.7.8-8.2 1-7 .2-7.2.3-9.4 1.3-1.8 1-3 1.2-6.2 1.5-3.5.3-4.2.5-5.5 1.3-1.3.9-2 1-5.3 1.3-3.4.2-4 .4-5.8 1.4-1.7.9-2.5 1.1-5.4 1.3a12 12 0 00-5.5 1.4c-1.5.7-2.8 1-4.7 1.2-2 .2-3.3.6-5.1 1.5-1.4.7-3 1.2-3.4 1.2-1.4 0-4.3 1-5 1.7a24.3 24.3 0 00-6 4.6c-2.2 2.1-2.8 3-3.2 4.5-.3 1-1 2.4-1.5 3.1-.8 1.1-1 2-1.2 4.3-.2 2.2-.5 3.2-1.2 4.3a8 8 0 00-1.1 3.5c-.2 1.8-.1 2.3.7 3.7a61 61 0 011.7 3.3c.5 1 1.3 2.2 1.8 2.6.5.5 1 1 1 1.3a18 18 0 004.3 4.4c.2 0 .9.6 1.6 1.3 4.3 4.3 9.6 8.9 10.7 9 .4.2 1.6.4 2.5.6 1 .2 2.9 1 4.2 1.6 1.3.7 2.7 1.3 3 1.3.3 0 1 .3 1.7.8.6.5 2 1.1 3 1.5 1 .3 2.5 1 3.3 1.4.8.4 2.1 1 3 1.2 3 1 4.5 4.9 4.2 11.6l-.1 2.7-3.6.2c-3.2.2-3.9.4-6 1.5L67.2 98c-.2 0-1 .5-1.5 1-.8.8-1.5 2.3-2.7 6l-1.6 4.9v43.7l.9 2.9c1 3.2 2.5 5.2 5.5 7.4 2.2 1.7 2.3 1.8 6.1 2 2.7.3 2.9.4 3.3 1.4.3.5.7 2.3.8 3.8a87 87 0 001 6.4c.6 2.7.7 4.9.7 9.8v6.3l-1.9 2c-1 1.2-2.1 2.6-2.4 3.3-.3.7-.6 3.2-.8 6-.2 5-.6 7-1.3 7a31 31 0 00-10.4-1.2h-6.3L54 212a14 14 0 01-5 1.5c-2.6.2-4.7 1.4-5.4 3.1-.3.7-.8 1.4-1.2 1.8-.4.3-.9 1-1.1 1.6-.5 1.3-1.1 1.4-5.7 1.4H32L30 223c-1.3 1-2 1.8-2.2 2.8-.4 1.3-.3 6.6.2 8 .2.8 0 1-2.8 1.3-1.4.2-2 .6-3.7 2.2l-2 1.9-.1 5.3c-.2 6.2 0 7.4 1.1 8.7.5.6 1 1.9 1.3 3 .2 1.2.8 2.7 1.4 3.6.5.8 1.2 2.1 1.4 3 .3.9.9 2.2 1.4 3a9 9 0 011.3 2.4c.1.5.6 1.3 1 1.8.5.4 1.2 1.6 1.6 2.7a9.2 9.2 0 002.4 3.4c1.8 1.8 2.8 2.2 4.3 2.2.7 0 1.3.3 1.7.8l1.2 1.4c.4.4 1 1.5 1.4 2.6.4 1 1.1 2.5 1.7 3.2.6.7 1 1.5 1 1.7a117.6 117.6 0 013.4 4.4c1.6 1.8 6.3 4.1 9.2 4.5 2.4.3 6-.3 7.9-1.3.8-.4 2.5-.7 4.7-.9 4.5-.3 6.3 0 7.8 1.3.6.6 1.3 1 1.5 1l2.6 1.5L83 300h3.6c1.8.2 3.3.2 4.7 0 2.7 0 3.1-.2 3.9-.7.5-.5 1.7-1.3 2.7-1.9 1-.5 2.1-1.4 2.6-2 .6-.6 1.1-.8 2-.8 2 0 4.1.6 4.5 1.2.2.3 1 .9 1.8 1.3s2 1.2 2.6 1.8a6 6 0 002.3 1.2c.5.1 1.3.7 1.7 1.2.4.6 1.4 1.2 2.3 1.5.9.3 2 1 2.7 1.5.5.4 1.7 1 2.5 1.2 1.5.4 2 .6 4.1 1.8 1.1.6 1.8.7 6 .6 4.3 0 4.9-.2 6-.9.5-.4 1.9-1 2.8-1.3 1.1-.4 2.2-1 2.8-1.6.5-.6 1-1 1.4-1 .3 0 2.6-2.2 5-5l1.2-1 1.3-1.5c.6-.8.8-.8 4.2-.8 3.5 0 3.7.1 5.5 1.3 1 .7 2.3 1.4 2.7 1.5.5.1 1.1.6 1.3 1 .3.5.8 1 1.1 1.1.4.1 1.8 1.3 3.2 2.7 1.4 1.4 3.3 2.8 4.2 3.2.9.4 2 1 2.4 1.5.7.6 1.3.7 4.5.7s3.7 0 4.7-.8c.7-.5 2.2-1 3.8-1.3 3.3-.6 4-.8 5-1.7.4-.4 1.8-.8 3.7-1.1 3-.5 4.1-.9 5.2-1.8.3-.2 1.4-.7 2.5-1 1.6-.5 2.2-.9 3.5-2.5 1.9-2.2 2.5-4.1 2.4-7.7 0-2.3.4-3 1.8-3 1.5 0 4.3-1 5.6-2 .7-.5 1.7-1 2.3-1 .6 0 1.7-.2 2.5-.6 1.6-.7 5.3-4.2 6-5.6 1.2-2.3 2.4-6.7 2.7-9.6.3-3.5.7-4.4 2.9-5.8l2.7-2.1a22 22 0 012.3-1.7c2-1.2 4-2.8 6.2-4.7 2-1.8 2.5-2.7 4.4-7 .9-2 1.3-9.3.9-15.1-.3-3.6-.3-5 0-5.4a14 14 0 016.7-3c2.7-.4 3.4-.7 6.9-2.6 2.2-1.2 4-3.3 5.5-6.5.6-1.4.7-2 .6-8.3-.1-6.3-.1-6.7.5-7a8 8 0 001.5-1.3l1.2-1.3c3.1-2.7 5.7-6 7.6-9.7.4-.8 1-1.6 1.5-2 1.1-.7 1.5-2.6 1.5-8 0-5.2-.3-6.5-1.4-7.8-.4-.4-1-1.9-1.3-3.3-.5-2.6-.8-3.1-2-4.4-.3-.3-.6-1.1-.6-1.7 0-2-.7-4.3-1.7-5.7-.9-1.3-1-1.7-1-5.2 0-3.7 0-3.8 1.1-4.8.8-.7 1.3-1.6 1.6-2.8.2-1 .6-2 .9-2 .2-.1.7-.7 1-1.4.6-1 .7-2 .7-6 0-4.7 0-4.8-1-5.8a8.5 8.5 0 01-1.4-2.5c-.3-.9-1.2-2.4-2-3.4-.9-1-1.8-2.4-2.1-3a6 6 0 00-2.7-2c-1-.5-2-.8-3.1-1h-1.6l-2.2.3c-1.5.3-1.8.2-2.6-.5-.6-.6-.8-1.2-.8-2.3 0-.9.1-1.6.3-1.8.7-.4 4.6.6 7.4 1.8 5.6 2.4 9.3 2.8 12.9 1.3 1.3-.6 1.5-.9 1.7-2 .2-.8.5-1.9.8-2.4.5-1 .6-2 .4-5.9-.2-2.6-.5-6.3-.8-8.3l-.2-.8v-5.7V86c.7-6.6.8-10 .5-11.9-.2-1-.5-3.7-.6-6.1-.4-6.7-.5-7.3-1.7-8.6l-1-1.3c0-.2-.7-1.1-1.5-2.2a44.4 44.4 0 01-3.4-4.5c-.4-.4-.7-1-.7-1.4 0-.3-.6-1.4-1.3-2.3a13 13 0 01-1.6-2.7c-.3-.8-3.2-3.6-4.7-4.5-.3 0-.7-.7-1-1.3-.3-.6-.9-1.4-1.2-1.6-.4-.3-1-.9-1.3-1.4-.5-1-5.6-4-7.5-4.5-1.2-.4-6.5-3-8.4-4.1-.8-.5-2.3-1-3.3-1.3-1-.2-2.9-.8-4-1.4-1.3-.5-3.4-1.1-4.8-1.3-1.3-.2-3.4-.9-4.7-1.4a17 17 0 00-4-1.3c-1-.2-2.6-.7-3.6-1.3-1-.5-2.7-1.2-3.9-1.4-1.1-.2-3-.8-4.2-1.4-1.3-.6-3-1.1-4.6-1.3-2-.3-2.9-.6-4-1.4-1-.8-2-1.1-3.5-1.3a6 6 0 01-3.4-1.3 6.9 6.9 0 00-2.6-1.2c-2.5-.4-3.8-.9-4.3-1.5-.7-.8-2.6-1.5-4.1-1.5a4 4 0 01-2.8-1c-.7-.6-2.2-1.4-3.2-1.7l-3.5-1.4c-1.6-.9-2-1-8.8-1.2-6.2-.2-7.3-.4-9-1zm-19.3 19.7h.7c1.5.2 1.8.4 3.4 2.5 1 1.3 2 3 2.4 3.7.6 1.2.6 1.4.1 1.8a503.9 503.9 0 01-7 5.9l-1.6-1.9a89 89 0 00-2.5-3.4 18.6 18.6 0 01-2.5-4.4c1.4-1.3 4.9-3.9 5.4-4 .3-.2 1-.3 1.6-.2zm12 .2c.5 0 .8.2 1.2.8.6.8.6 1 0 1.6-.4.4-.6.6-.9.6h-.2c-.2 0-.5-.4-.9-1-.8-1.5-.7-1.9.5-2h.2zm-33.9 2.4c3 0 4 .1 4.8.6.4.3.8.7.8 1a48 48 0 01-4.8 4.2c-.4.2-4.7-4.9-4.7-5.5 0-.2 1.8-.3 3.9-.3zm57.5 0a59 59 0 014.5.4c-.1.3-1 1.1-2 2-1 1-2.4 2-3 2.3l-.8.6-.2-.2-.8-1.3c-.5-.9-1.2-1.9-1.6-2.2-1.5-1.4-1-1.6 3.9-1.6zm-14 .4c.6.1 6.6 9 6.6 9.7 0 .2-.5.7-1 1a17 17 0 00-2.8 2.3 8 8 0 01-2.4 1.8c-.2 0-1-.9-1.6-1.9l-1.8-2.7-3.3-5c-.1-.4.4-1 1.3-1.6l3-2.3c.8-.7 1.7-1.3 2-1.3zm-54.7 1v.1a60 60 0 016.6 8.4c-.1.3-1.2 1.3-2.5 2.4A19 19 0 01113 37a62 62 0 01-7.4-7.6 43 43 0 016-5.3zm-19.2.7c.1 0 .3 0 .4.2l1.1.7c.8.5 1.9 1.5 2.5 2.2l.9 1v.4l-3.1 3c-1.8 1.7-3.6 3-3.9 3-.7 0-6.4-6.2-6.2-6.7 0-.3 2-1.2 4.3-2.2l4-1.6zm98.1 1c.7.3 6.7 8.6 6.7 9.1a163.3 163.3 0 01-8.4 6.6c-.5.4-6.7-8-6.7-9.1 0-.6 7.6-6.5 8.4-6.7zm7.8 0l1.5.2c.9 0 2.5.6 3.6 1.2 2.4 1.1 2.6 2.1.8 3.3-.6.3-1.4.7-1.7.7-.7 0-2.3-1.8-3.5-4l-.7-1.2v-.2zm-67 3.2l1.5 1.7c.8.9 1.8 2.1 2.2 2.8.3.6 1.4 2 2.2 3.1l1.4 1.7v.4l-1.7 1.8c-1.1 1.1-2.2 2-2.6 2-.6 0-1.4-.9-2.7-2.8-1-1.5-2.5-3.4-3.3-4.2-.7-.9-1.3-1.9-1.3-2.2 0-.4 1-1.5 2.2-2.5l2-1.7h.2zm-54.1.7a50.5 50.5 0 018.2 8.3c-.2.5-1.8 1-4.4 1.7a69.5 69.5 0 01-3.3.5c-1.2-.8-6-5-6-5.3 0-.7 4.7-5.2 5.5-5.2zm136.2 1.3c.3.1 2 2.1 3.8 4.4l3.1 3.9.2.4s0 .2-.2.3l-.7.6a122.8 122.8 0 01-7 5.3c-.4 0-7-8.1-7.5-9.3-.2-.4 7.4-5.6 8.3-5.6zM155.2 32c.4 0 6.4 8.9 6.4 9.4 0 .3-.6.9-1.3 1.4l-3.6 2.9-2.4 1.7h-.5a91.6 91.6 0 00-4-5.6c-1.4-1.7-2.3-3.2-2.1-3.5.6-1 7-6.3 7.5-6.3zm-93.9.4h.3c.8.2 2.6 1.7 2.6 2.1v.1a39.6 39.6 0 01-6 5.8c-.7-.3-4.2-4-4.2-4.4 0-.4 6.4-3.6 7.3-3.6zm40 .7h.2l.7.7c.4.4.8 1 .8 1.3 0 .3-.6.4-2 .4a6 6 0 01-2.1-.2V35c.2-.3.6-.7 1.1-1l1-.8h.2zm75 3.8c.5 0 5.8 8.5 5.6 8.8a38 38 0 01-6.5 5c-.5-.1-1.6-1.4-3.9-4.7l-1.8-2.7-.2-.6.6-.7c1.2-1.3 5.8-5 6.2-5zm57.3 0l3.2 1c3 .8 3.6 1 4.6 2.2 2 2.4 3.9 5.3 3.7 5.8-.1.2-1.7 1.3-3.5 2.4-5.1 3-4.7 3-5.7 1.6a66.2 66.2 0 01-6.7-10c0-.4.6-1 2-1.8l1.4-.9a3 3 0 011-.2zm-112.2.1c.7.4 5 5.6 6 7.2l1 2h-.8c-.5 0-1.2-.4-1.7-.8-.6-.4-2.1-1-3.5-1.4-2-.5-2.8-1-3.8-2l-1-1-.1-.2v-.2l1.8-1.7 2-1.9zm-73.1 1c.4 0 1.7 1.1 3 2.4 2.8 3 3 4 1.3 5.7a3.1 3.1 0 01-2.6 1l-2-.3c-1.6-.5-2.3-1.7-2-4 .3-2.5 1.4-4.8 2.3-4.8zm19.6.5l.4.1c1.1.7 2.7 2.5 2.5 3L68.4 43c-2.2 1-5.2 1.4-5.2.6 0-.3 1-1.6 2.2-3 1.4-1.5 2-2 2.5-2zm132.7 1h.2c1 1 6.7 9 6.8 9.6 0 .3-1.8 1.9-4 3.5-2.2 1.7-4.3 3-4.6 3-.3 0-1.1-.7-1.8-1.6-3.9-5.1-5.6-7.6-5.6-8 0-.4 8-6.2 9-6.6zM142.1 43l.8 1.2c3.8 5.4 5 7.2 4.8 7.7-.2.6-1 .6-4.6.2-1.7-.1-2.2-.3-2.8-1.1a80 80 0 00-3-4c0-.2.5-.7 1.2-1.2a44 44 0 002.4-1.9zm81.5 1.4c.6.2 7.5 10 7.3 10.3l-3.8 2.7-4 2.6c-.4.3-1-.4-5.4-6a21.8 21.8 0 01-2.4-3.7l.6-.5c1.8-1.5 7.3-5.4 7.7-5.4zm32.9.7c1 0 6.5 4.7 9.8 8.5 1 1.2 1 1.4-2.6 4l-2.7 1.9-.4-.3c-1.4-2-8-11.7-8-12 0-.4 3.3-2.1 3.9-2.1zm-92 1.4c.6 0 2.3 2.2 4.3 5.6 1.3 2 1.3 2.3.8 2.6l-2.7 2a27.9 27.9 0 01-4.5 2.8h-.3c-.4-.3-1.2-1.3-1.2-1.6 0-.2-.8-1.3-1.8-2.6-.9-1.1-1.6-2.3-1.7-2.6v-.2c.3-.6 2.2-2.2 5.3-4.4.7-.5 1.4-1.1 1.4-1.3 0-.2.2-.3.5-.3zm83.6 3.7h.2a63.8 63.8 0 017.4 12.4 41.7 41.7 0 01-7.3 5c-.4 0-.8-.5-5-6.5-3.9-5.5-4-5.8-3.4-6.3a58.6 58.6 0 018.1-4.6zm-63 .2a70.7 70.7 0 017 10.6 48 48 0 01-6.2 4.8s-.7-.4-1.2-1c-1.7-2.2-6.5-9-6.5-9.5 0-.4 6.3-5 7-5zm-83 .3h1.2A6 6 0 01107 52c.8.6 2.2 1.3 3 1.7 1 .3 2 .8 2.4 1 .4.3 2 .9 3.4 1.3a30 30 0 014.2 1.6l5.4 2.7c2.2 1 4.4 2.1 4.9 2.5.5.4 1.8 1 2.8 1.3 1 .4 2.1 1 2.6 1.4.4.4 1.5 1 2.5 1.3 1 .3 2.3 1 3 1.4l2.8 1.4c.8.3 1.9.8 2.5 1.2.5.4 2 1.1 3 1.6A21 21 0 01153 74l1.8 1c.3 0 1.5.5 2.8 1.2 1.3.7 2.5 1.2 2.8 1.2l3.2 1.3a42 42 0 004.8 1.8c1 .3 2.5.8 3.2 1.2.8.4 3.3 1.1 5.7 1.7 10.4 2.5 12.1 3 19.1 5.5a116.5 116.5 0 0012.4 3.8c.7.4 2.6.9 4 1.2 1.5.3 3.6.9 4.8 1.3 1.2.5 2.8 1 3.7 1 2.2.4 6.8 1.7 7.3 2 .4.4 6.5 2.4 9.6 3.3 3.4.9 10.6 3.2 13.8 4.4 3.5 1.3 3.9 1.8 3.9 4.8 0 3.3-1 4.9-4.1 6.3-1.2.5-2.3 1.1-2.4 1.3-.2.2-1 .8-2.1 1.3-1 .5-2.4 1.4-3.1 2-2.7 2.3-3.7 3-4.9 3.6-.7.4-1.7 1-2.2 1.5-1.4 1.1-2 1-3.1-.3-1.4-1.7-1.5-2.3-1.6-8.6-.2-9.5-.7-11.6-3.2-14.5-2.4-2.7-4.4-3-13.4-2.2-3.6.3-7 .3-15.5 0a346 346 0 00-40.4 0c-1.4.4-3 .7-3.4.7-.5 0-1.6.8-2.9 2-3 2.9-3 3.2-2.7 14.3.3 9.7.3 9.9-1.4 8.4-.4-.5-1.8-1-3.5-1.3a27 27 0 01-2.9-.6l-.3-6c-.3-6.7-.6-8.2-2-9.5a5.9 5.9 0 01-1.4-2.3c-.2-1-1-2-2.5-3.3-2.4-2.3-2.1-2.2-11.2-2.8-4-.2-5-.4-6.5-1.2-2.4-1.2-3-1.3-12.9-1.6-5.4-.2-9-.4-9.5-.7-1.8-.9-2.1-2-2.6-10.6-.2-4.4-.4-13.5-.4-20.2 0-11.7 0-12.3.7-12.8.4-.3 1.1-.6 1.7-.7.5-.1 1.9-.7 3-1.3a6 6 0 013-1zm108.6 3.6c.3 0 1.7 1.9 3.3 4.2 2.2 3.4 2.7 4.4 2.4 4.8a63.3 63.3 0 01-9 5.7c-.7-.6-5.6-7.6-5.6-8 0-.5 8.3-6.8 8.9-6.7zm22.7 4.9c.3 0 .4 0 .6.2 1 1 8 11.5 8 12a30.3 30.3 0 01-7.4 4.8 128 128 0 01-8.7-11.5c0-.3 1.3-1.5 3.7-3.2 2.4-1.7 3.3-2.3 3.8-2.3zm-60.4 0c.6.1 1 .6 1.8 1.6.8 1.3 1 1.6.6 2-.2.3-.5.5-.7.5h-.3c-1.6-.1-3.2-.5-3.9-.9-.8-.4-.8-.4.6-1.9.8-.8 1.4-1.3 2-1.2zm97.1.3c.5 0 2 2.3 2.4 3.5l1.3 2.5c.6.9 1 1.8 1 2.2 0 .6-1.6 2-4.1 3.6-.8.5-1.7 1-2 1a33 33 0 01-5.1-8.1 24 24 0 016.5-4.7zM195.4 66c.7.2 2.6 3 2.3 3.7-.2.6-1.4.7-2.6 0-.4-.3-1-.5-1.4-.5a6 6 0 01-1-.8c.1-.4.4-.9 1-1.4.7-.5 1.4-1 1.7-1zm63.8.7c.5 0 5.2 8 5 8.5-.1.3-1.8 1.3-3.6 2.3-2 1-3.7 1.9-4 1.9-.5 0-5.4-6.6-5.4-7.3 0-.4 7.3-5.4 8-5.4zm-39.4 1.6h.3c.6.4 5.8 7.9 7 10v.1l.2.3.1.3.1.3-.1.3-.2.2h-.2a3 3 0 01-1.4 0 506 506 0 01-12.3-4.6c-2.3-.9-3.4-1.8-2.2-1.8.2 0 1.3-.6 2.3-1.3 3.2-2.4 5.5-3.7 6.4-3.8zm54.3 6.7c.5 0 .7.5.7 1.6a34 34 0 00.3 3.8c0 .4-.1.7-.2.7-.2 0-.3-.2-.5-.4l-.1-.3c-.1-.4-.8-1.4-1.4-2.3a25 25 0 01-1.2-1.5l.4-.5.8-.6 1.2-.5zm-28.6 1v.1a97.8 97.8 0 015 7.4l-.3.4-3 1.8a54 54 0 01-3.3 1.8l-.4-.2a78 78 0 01-5.6-6.4c-.2-.5 6.9-4.9 7.6-4.8zm22 3.4a33 33 0 014.5 7.5c0 .2-1.3 1.2-2.9 2.2l-3.7 2.2c-.7.4-.8.4-1.5-.3a27 27 0 01-4.5-6.4c.2-.5 7.5-5.2 8.1-5.2zM253 88.2h.2l.7.6c1.3 1.2 2.7 3.5 2.4 3.9-.4.7-1.8.3-3.5-1a11 11 0 01-1.9-1.7c0-.2.4-.7 1-1.2l1-.6h.1zm21.7 3.6c.3.2.2 10.1 0 10.3l-.9.3c-.7.2-1.2-.2-3.8-2.7a17 17 0 01-3-3.5c0-.6 7-4.5 7.7-4.4zm-197.5 20c.9 0 1.6.5 2.1 1.4.6 1 .6 2.8.8 16.7v17.3c-.2 1.2-.5 1.9-1 2.3-1.2 1-1.6.9-3.2-.6l-1.4-1.3v-14.3c0-9.1-.2-15-.4-16.4-.5-2.6 0-4 1.7-4.8l1.4-.3zm41.5 2c3.8 0 4.5.2 5.3.6.7.3 1.5 1 1.8 1.7 1.4 2.6 2 27.2.7 30.8a8.2 8.2 0 01-4.7 5.2c-1.7.6-4.1.6-9.2.2a191 191 0 00-11.4-.3c-9.4 0-9.4 0-10.1-2.5-.3-1-.4-6.3-.5-17 0-14 0-15.8.5-16.5 1.3-1.8 1-1.7 16.7-2l10.9-.1zm67.7 3.6c6 0 8.5.1 10.6.6 2 .4 4.7.6 9.6.6 3.7 0 6.9.2 7.1.3.4.2.5 3 .5 12a56.4 56.4 0 01-2.6 21.5c-.2.2-3.9.2-9 .1a360.6 360.6 0 00-29.4.7c-2.8.2-3.5.2-3.7-.2v-33l2.1-.4c1.2-.2 3.2-.8 4.6-1.3 2.3-.9 2.6-1 10.2-1zm84 4.7c.8 0 1.3.5 1.8 1.8.4 1 1 2.3 1.5 3 .6 1 .8 1.8.8 3.8 0 2-.2 2.8-1.1 4.6-1.9 3.6-2.9 4-3.4 1.6-.2-1 0-1.2.6-1.5 1.4-.5 2.2-1.6 2.4-3.3.3-3-1.8-3.9-4.6-2-.9.6-2.5 1.4-3.6 1.8-2.4.8-3 1-5.5 3.2a19.8 19.8 0 01-8.2 3.8c-1 .2-2.6.8-3.6 1.3a23 23 0 00-6.9 6c0 .9 1.5 2.9 3.1 4.2 1.6 1.2 1.8 1.3 3.6 1.1 1.3 0 2.4-.4 3-.8.6-.4 2-1 3.2-1.4 1.2-.3 2.5-1 3-1.4.5-.4 1.3-1 2-1.2.5-.2 1.5-.9 2.3-1.5 1.7-1.3 2.4-1.3 3.8.2.9 1 1 1.6 1 3 0 .9.4 2.2.7 2.9 1 1.9 2.6 4.1 3.3 4.4.4 0 .8.5 1 .9.5 1 1.6 5 2 7 0 .9.5 2.7 1 4l1.3 5.2a19.8 19.8 0 00.8 3.8c0 1.2-.7 3.6-1.7 5.4-1 1.8-5.4 6.7-7.1 8-.6.4-2 1-3 1.3-1.2.3-2.2.7-2.3.9-.4.6-3.6.7-6.4.2a12 12 0 01-4.8-1.7c-2.1-1.4-2.8-2.4-2.7-3.9.2-1.9.8-1.8 6.7 1 1.9.8 7 1 10.4.2 1.8-.4 2.4-.7 4.1-2.5 2.1-2 3.7-4.5 4.5-6.8a32.3 32.3 0 00-1.5-10.5c-.3-.5-.7-1.9-1-3-.6-3-2-6.1-3.7-8l-1.5-1.5h-3c-2.3 0-3.1.1-4.2.8-1.4.8-3.8 1-3.8.4 0-1.2-1.3-3-2.6-3.6a15 15 0 00-9.3-.2l-1.1.9-1.4 2c-1.3 1.5-1.4 1.8-1.2 3 .3 2.4-.6 6.9-1.9 8.9a10 10 0 00-1.5 4.2c-.4 3-1.4 4.2-4 5.1-2 .7-4.5 3-5.8 5.7-.8 1.7-.9 2.2-.7 5 0 2.4.3 3.3.9 4.2 1.7 2.3 1.6 4.6-.4 8-.6.8-1.1 1.6-1.3 1.6-.3 0-2.4-2.3-3.8-4.2-1.1-1.4-3.8-2.3-6.4-2-3.4.3-4.5.8-7 3.2-1.5 1.6-2.6 2.3-3.2 2.3-1 0-2.8-1.9-4.7-4.8-.7-1-1.6-2-2-2.1-8.1-3.9-8.2-4-9.2-5.9-.7-1.4-1.3-2-2.4-2.5a84.3 84.3 0 01-8.2-4.6c-.7-.8-1.8-1.2-4.5-1.6a8.5 8.5 0 01-3.7-1.3c-1.8-1.2-3.4-1.5-9-1.5-4 0-5-.1-5.7-.7-1-.7-4-1.8-4.8-1.8-.3 0-1-.5-1.7-1-1.8-1.6-2.5-1.8-5.8-1.8-3.7 0-5.3.4-6.8 1.6-.6.5-1.8 1-2.8 1.4-1 .3-2.2.9-2.8 1.3-.5.5-1.5 1.1-2.2 1.5-.6.3-1.5 1-1.8 1.4-.3.4-1.2 1-2 1.2-.7.2-2 .9-2.7 1.4a4 4 0 01-2.8 1.1c-2.1 0-4 .6-4.8 1.7l-2.5 2.6c-1.6 1.6-1.7 1.7-3.2 1.5-1-.2-2.4 0-3.5.2-1 .3-3.5.5-5.4.5-3.7 0-5.3-.4-5.6-1.5-1.1-3.8-1.9-18-1-19.4.3-.6.6-.8 1-.6 1.5.6 4.6 1 9.8 1.2 3.1.2 7 .6 8.5 1 2.9.5 3.1.5 11.4-.4l7.7-.6c3 0 4-.3 5.7-1.7 2-1.6 2.5-2.2 3.7-4 1.6-2.6 1.9-3.7 2.2-9.2.3-6.5 1.4-9.8 3.7-11 1-.5 1.1-.5 2.1.3s1.9 1.1 4.2 1.4c.5 0 .6 1.5.7 9.8.2 10 .3 10.9 1.7 11.6.3.1 2.1.4 4 .5 1.8.1 4.3.6 5.5 1 2.6.7 7.4 1.3 15.6 1.7 5 .2 6 .4 7.3 1 2.2 1.2 7.8 1.5 22.8 1.4l13.3-.1 1.3-1.1c.8-.6 2-1.3 2.8-1.6 3.4-1 3.9-1.7 4.2-5.8 0-1.3.7-4 1.2-6a18 18 0 001-5.6c0-1.2.2-2.8.4-3.6.5-1.7 1.2-2.3 10-8.8 3.9-2.9 4.5-3.2 7.2-3.5 2.5-.3 3.6-.8 4.2-2 .2-.4 1-1.1 1.7-1.5.8-.4 1.5-1.1 1.7-1.5.2-.5.5-.8.7-.8.2 0 .9-.5 1.5-1.2a22 22 0 014.4-3.4l2.3-1.4c1.2-.8 2-1.3 2.6-1.3zm-112.1 81c.6 0 1.2.1 2 .4 1 .4 2.2.6 2.6.7.5 0 1.7.3 2.8.8 1.2.5 3.1 1 4.4 1.3 3 .6 4 1.1 5.1 2.8 1.2 1.8 1.3 3.7.2 6.5-.6 1.6-1.1 2.4-2.2 3.1-.8.6-1.6 1-2 1l-2.5.7c-1 .4-3 .8-4.3 1-1.2.2-3.3.7-4.5 1.1-1.2.4-2.8.7-3.4.7-1.3 0-5.8-2.4-6-3.2-.1-.3-1.3-1.7-2.6-3-1.9-2-2.8-2.6-4-3a6.3 6.3 0 00-6 1.2c-.9.7-2 1.3-2.6 1.5-.5.1-1.8.8-2.8 1.4-5.3 3.5-7.8 4-10.4 2.3-3.9-2.4-5.5-6-4.1-8.8.8-1.5 2.6-3.6 3.7-4.3a5 5 0 001.6-1.7c.6-1.2 2-1.6 6.5-2 3.4-.4 14.5-.4 19.3 0 2.1.2 4.2 0 6.3-.2 1.4-.3 2.2-.4 2.9-.3z"/></svg>