<svg viewBox="0 0 128 128"><path d="M38 77.5l-11.3 4.9 10.5 4.5 12.3-4.5-11.4-5zm-17 6l-.4 22.1 16.6 7.4V90L21 83.7zm34.2 0l-15 5.8V111l15-6.1V83.6zm18-68.5l-11.5 5 10.7 4.4L84.6 20 73.2 15zm-16 6.5v22l14.3 4.2.5-20-14.7-6.2zm32 1.3l-13.5 5.7v21.7L89 44V22.8zM19.2 46L8 51l10.6 4.5 12.2-4.6L19.3 46zM2.2 52.2l-.4 22 16.7 7.3V58.7L2.2 52.2zm34.2 0l-15 5.7v21.6l15-6.1V52.2zm19.6-7l-11.4 5 10.6 4.4 12.2-4.5L56 45.2zM39 51.4l-.4 22 16.7 7.3V58l-16.3-6.5zm34.3 0L58 57v21.6l15-6.2V51.4zM109 15l-11.4 5 10.5 4.4 12.3-4.5L109 15zm-17.2 6.2l-.3 22 16.6 7.3V27.7L92 21.2zm34.3 0l-15 5.7v21.6l15-6.2V21.2z"/></svg>