<svg viewBox="0 0 128 128"><path d="M21 43c-4 0-7.3 3.3-7.3 7.3v30.8a7.3 7.3 0 1014.7 0V50.3c0-4-3.3-7.3-7.4-7.3m59.2-27.6L85.3 6a1 1 0 00-.4-1.3 1 1 0 00-1.4.4l-5.1 9.4a35.2 35.2 0 00-28.8 0l-5.2-9.4a1 1 0 00-1.3-.4 1 1 0 00-.4 1.3l5 9.4A30 30 0 0031 41.8H97a30 30 0 00-16.8-26.4M48.9 29.9a2.8 2.8 0 110-5.6 2.8 2.8 0 010 5.6m30.1 0a2.8 2.8 0 110-5.6 2.8 2.8 0 010 5.6M31.2 44.4V92c0 4.4 3.5 7.9 7.8 7.9h5.4V116a7.3 7.3 0 0014.7 0V100H69V116a7.3 7.3 0 0014.6 0V100H89c4.3 0 7.8-3.6 7.8-7.9V44.4H31.2zm83.1 6a7.3 7.3 0 10-14.6 0V81a7.3 7.3 0 1014.6 0V50.3z"/></svg>