<svg viewBox="0 0 128 128"><path fill-rule="evenodd" d="M38.6 67l-2.2 4.5A92.5 92.5 0 0029 93.9a30 30 0 000 13c.9 3.8 3 5.7 6.4 5.9 1.5 0 3.1-.3 4.6-.7 3.9-1 7.3-3.2 10.6-5.6.8-.5 1.6-.9 2.6-.5 1.8.7 2.4 3 1 4.1a32 32 0 01-18.1 7.7c-5.7.2-9.9-2.9-11.7-8.3-1.3-4-1.4-8.3-1-12.5 1.6-12.4 6.4-23.8 12.2-34.8a3 3 0 00.1-2.7c-1.4-4.1-2.8-8.3-4-12.5-.3-.8-.6-1-1.4-.8a54.1 54.1 0 00-16.3 5.7c-2 1.2-3.8 2.6-5.4 4.2C6 58.8 6 61.8 8 65c1.9 2.7 4.4 4.6 7.2 6.2.8.6 1.7 1 2.6 1.5 1.3.8 1.7 2.2 1 3.4-.6 1.3-2 1.7-3.4 1-3.8-2-7.4-4.3-10.3-7.6-1.7-2-3-4.2-3.4-7-.6-3.3.4-6.2 2.4-8.9s4.8-4.7 7.8-6.3c5.2-2.9 11-4.6 16.8-5.8L30 41l-.8-4.6c-1-6.2-1.4-12.4.1-18.5.6-2.5 1.6-4.8 3.2-6.7 3.4-4 7.7-4.9 12.5-3.7 4.8 1.2 8.8 3.8 12.6 7 1 .8 1 2.4.2 3.4-.9 1-2.3 1.1-3.5.3l-5.6-3.8a14.5 14.5 0 00-7.4-2.3 6 6 0 00-5.2 2.7 16 16 0 00-2.5 7.6c-.6 5.7.1 11.4 1.2 17 .2.5.4.8 1 .7 4.5-.5 9-1 13.5-1.3 1 0 1.7-.4 2.3-1.2 5.8-7.4 12.3-14.3 19.9-20 4.2-3.2 8.6-6 13.8-7.5 3.2-1 6.4-1.3 9.7-.2 4 1.5 6.3 4.5 7.4 8.5 1.2 4.2 1 8.5.6 12.8l-.6 3.3c-.3 1.4-1.4 2.2-2.8 2-1.4-.1-2.2-1.2-2.1-2.7.2-2 .7-4.1.7-6.2 0-2.4 0-5-.6-7.3-1-5-4.4-6.8-9.5-5.7a31 31 0 00-10.3 4.7 89.2 89.2 0 00-17.4 15.6c-1 1-1.9 2.2-2.8 3.3l-.1.4h1.3c13.4.2 26.6 1.8 39.5 5.5 6.2 1.7 12 4 17.5 7.4 3 1.8 5.6 4 7.7 6.7 4.3 5.5 4 11.8-1 16.7a32.1 32.1 0 01-11.8 7.2c-1.3.4-2.6-.2-3.1-1.4-.5-1.3 0-2.7 1.4-3.3 2-1 4.1-1.8 6-3 1.6-1 3-2.2 4.4-3.5 2.6-2.9 2.7-6 .5-9.2-1.7-2.4-4-4.1-6.5-5.6-6-3.8-12.7-6.1-19.5-8-7.2-1.8-14.4-3.2-21.8-3.7-5.9-.4-11.7-.5-17.6-.8-.9 0-1.5.2-2 1L42.3 60.4c-.2.4-.3 1-.2 1.5A144.5 144.5 0 0065 100a61 61 0 0013.9 12.7c2.5 1.5 5.2 2.9 8.3 3 2.8.3 4.8-1 6.2-3.3 1.3-2.2 1.8-4.7 2-7.2.8-8.2-.8-16-3-23.9-2.2-8-5.3-15.6-8.8-23.1-.3-.6-.5-1.3-.5-2 0-1.2 1-2 2.1-2.2 1-.1 2.1.4 2.6 1.5l3.8 8.2c3.6 8.6 6.5 17.4 8 26.6a49 49 0 01.1 19.3c-.3 1.4-.8 2.9-1.4 4.2-2.6 5.5-7.7 8-13.6 6.7-4.8-1-9-3.5-12.7-6.6a92.9 92.9 0 01-17.8-19.5c-5.9-8.2-10.8-17-15-26.2l-.6-1.3zm-2.5-22l3.2 10.2 7.4-11.3L36.1 45zm28.4 26.3a7.3 7.3 0 110-14.6 7.3 7.3 0 110 14.6z" clip-rule="evenodd"/></svg>