<svg viewBox="0 0 128 128"><path d="M90.2 50.5v.1h.3a1.2 1.2 0 010-.4V50l-.3.6zm-3-7v-.3h-.4v.2h.4zm-8.5 16a14 14 0 00-2.3-3c0-.4.5-.9 1.5-1.5l3.1-2.7a7.8 7.8 0 001.3-4.3v-.5c-.1-1.3-1.1-2.5-3-3.3q-1.7-1.1-6-1.3a35.6 35.6 0 00-9.4 2.6 38.6 38.6 0 01-3.7 2.3v.3a.9.9 0 00.4-.2.2.2 0 01.3.2l.1-.1h.1v.1a12.8 12.8 0 01-2.5 2l.1.2h-.4l-.3.1v.1l.3.3a1 1 0 01-.4 0 1.9 1.9 0 00-1.2.6l.2-.7a56.3 56.3 0 001.1-6.5V44a4.7 4.7 0 01-1-1 3.7 3.7 0 000-.5h-.2q-1.9 2.7-7.1 9.4-4 4.7-4.2 5.2c-1 1.2-1.6 1.8-1.5 2-.3.2-.4.4-.4.6a.1.1 0 01-.1 0 3.2 3.2 0 01-2.1 1.4l-1 .2a.2.2 0 00-.2.3v.1h.4l-.9.3-1.4.4h-.8.4l-1 .3c-.6 0-1 0-1-.2h-.1a.5.5 0 010 .3l-.1-.3-.8.2q.1-.4-2.9-3.7c0-.4.7-1 2.1-1.9l4.1-3.6q1.4-1.7 1.6-5.6v-.6c-.2-1.8-1.5-3.3-4-4.4-1.5-1-4.2-1.6-8-1.7a47.8 47.8 0 00-12.4 3.4 47.4 47.4 0 01-4.7 3v.3a1.3 1.3 0 00.4-.2.3.3 0 01.4.3l.3-.2h.2v.2a18.6 18.6 0 01-3.3 2.6l.1.3h-.1l-.3-.1-.5.2v.1l.3.4a1.4 1.4 0 01-.5 0 3.2 3.2 0 00-2 1.5l.1.3a4.5 4.5 0 011-.9v.5a1.5 1.5 0 00-.4.2l.4.6a12.6 12.6 0 012.4-2c.4 0 .7.2.7.4h.3a26 26 0 017.2-3.9v.3q-.7 1-1 1a1 1 0 00.3.6q0 .6-3.2 8.1Q6.2 75.5 1 83.8a1 1 0 00.2.5 4.2 4.2 0 001.6-.6h.2v.3h.3l.3-.2c0 .1.1.2.3.2v.3a2.8 2.8 0 01-.5 1.4 7.4 7.4 0 00-1 2.3v.1h.3a19.6 19.6 0 003-4.4 48.9 48.9 0 009-3.3 8.4 8.4 0 004.8-1.7v-.1l-.8.2h-.2v-.2a7 7 0 003.2-1q4.5-3.4 6.7-4.8 4.7-3.5 6.1-6.7l.5-.2a6.8 6.8 0 00.8 0v-.1h.9l1.2-.3h.2-.1a1.1 1.1 0 00.4 0v.4l-5.2 8.4-1.3 1.4-.6 2h.1l.6-.3-.2.8v.2l.2.2V78.9l.2-.1q.5-.5.5-.8a2.2 2.2 0 00.7 0v.1c-.2 0-.3.3-.4.6v.1h.2c2-2.1 6.7-9.3 10.5-14.3q-.2-.8 6-2.2h.1q.2 1-1 4.7a12.6 12.6 0 00-.7 2.4 18.7 18.7 0 00-1 3.3L46 77.3a43.5 43.5 0 00-2.2 7.7 1 1 0 01.4 0l.2-.2a.1.1 0 00.2.1v-.3h.6c.2 0 .3-.3.4-.7 0-.7.1-1 .4-1.1a10.3 10.3 0 01.8-2.3 10.3 10.3 0 01.8-2.6c.5-2 1-3 1.2-3v.2l-.4 1a50.7 50.7 0 01-2 7.3l.1.9h.2q2.6-5.6 7.4-22.1a2.9 2.9 0 011.4-2.2l-.2-.2v-.1a1.3 1.3 0 00.8-.4l-1-.4 1.6-7a2.4 2.4 0 01.6-.5v.4a.9.9 0 00-.3.1l.3.5a10 10 0 011.8-1.6c.3.1.5.2.5.4h.3a19.8 19.8 0 015.4-3v.3q-.5.7-.7.7a1 1 0 00.2.5 42.5 42.5 0 01-2.4 6.1 167.4 167.4 0 01-9.5 19.6.9.9 0 00.2.3 3 3 0 001.2-.4v.2h.3l.3-.1h.2v.3a2.1 2.1 0 01-.4 1 5.3 5.3 0 00-.8 1.9v.1h.2a14.7 14.7 0 002.3-3.4 37.5 37.5 0 006.8-2.5 6.4 6.4 0 003.7-1.2v-.2l-.7.2v-.1a5.4 5.4 0 002.3-.8l5.1-3.7c3.6-2.6 5.3-5.1 5.1-7.5zm-.6 0v1c0 .2-.2.4-.3.4l-.1-1.6c.2 0 .4.2.4.3zM7.5 52h-.1v-.3H8v.1a1.2 1.2 0 00-.5.2zM4.4 83.4a2 2 0 00-1-.2v-.5c0-.1 0-.3.3-.3s.3.1.3.4a6.8 6.8 0 011-1l.3.2c-.2.9-.4 1.4-.9 1.4zm33.5-35.1l-.9-1.4v-.3c.3 0 .6.4 1 1.4v.3zm-.4-3.5l-.2.3-4.5-1.9q4.5.2 4.7 1.6zM18.2 61.4h-.6v-.3h.6v.3zm-.5-10h.2v.5c-.2 0-.3.2-.6.7v-.4c.3-.3.4-.6.4-.8zm-1.3 3.2v.6h-.1v-.6zm-.7 1.2h.3c0 .5-.2.7-.4.8h-.2a1.5 1.5 0 00.3-.8zm-.6 1.5h.2v.2l-.3.5h-.3v-.2a.4.4 0 00.4-.5zm-.5 1.5v.7h-.2l-.1-.7h.3zM9.4 73.6c-.2 1-.4 1.6-.7 1.6v-.1a1.7 1.7 0 01.7-1.5zm-1 2.1v.1a.3.3 0 01-.3.4V76q0-.3.3-.3zM8 80h.5v.2a1.3 1.3 0 00-.4.2h-.4c0-.2.1-.3.3-.4zM22 75.7a25.6 25.6 0 00-4.8 2.8q-4.4 1.5-4.3 1.9a48 48 0 00-5.2 2.3 1.9 1.9 0 01-.9-.3 1.4 1.4 0 01.8-1.3 2.8 2.8 0 011.3.3 12.8 12.8 0 012.5-.9v-.3h-1A13.2 13.2 0 0113 79h.5v.1c-.8.1-1.3.4-1.4.8 0 .2.1.3.3.3l1-.7q1.7-.4 9.8-5.2v.3c0 .2-.5.6-1.4 1.2zm-8.2 2.7a3.2 3.2 0 002-.9c.2 0 .4 0 .4.3a7.2 7.2 0 00-2.2 1h-.2v-.3zM27 68.3l-4.1 3.2a40.7 40.7 0 01-5 3q-7.2 4-9 4.2h-.2q.2-.8 6.5-13.3a35.5 35.5 0 008.7-2.6h1a5.6 5.6 0 014.5 1v.7c-.7 2.1-1.5 3.4-2.4 3.7zm-8-4.6h.7v.1l-.7.1v-.1zm9.3-1.5h.5l.7.5v.2a1.4 1.4 0 01-1.2-.7zm1.3-7.5a19 19 0 01-3.6 2.6c-.6 0-3 1-7 2.8a1.3 1.3 0 00-.7-.1v-.3a3.8 3.8 0 01.8-2.2c.3-1.7.6-2.6 1-2.9l3.4-7.6q0-.7 2.2-1.1h.4v.4L29 46c2.7-.2 4 .4 4.2 1.7h.3v-.8h.3a2.1 2.1 0 011.3 1.5 2.5 2.5 0 01-.7 1.5c-.2 0-.3 0-.3-.4h-.4v1q-2 3-3 3.1l-1 1.2zm2 5.4a1.2 1.2 0 00-.6-.3v-.5h.3l.7.4a.3.3 0 01-.3.4zm2.2 2.5l.6.4h-.2l-.3.2v-.7zM34 64v-.1l.4-.1v.1l-.4.1zm1 1.1c.3 0 .5 0 1.3-.3v.2l-1.4.3a1.9 1.9 0 000-.2zm1.3.6a6 6 0 00-1.4.2v-.1l1.2-.4.6-.1v.2l-.4.2zm1.3-.3a.3.3 0 01-.3-.2h.3a.2.2 0 01.3.1h-.3zm3.4-3.7v-.2h.6v.1H41zm3.6 22.3a1 1 0 000-.4h.2a.2.2 0 01.3.2v.1l-.5.1zm2.6-21.4h-.3a7.4 7.4 0 01-1 .4h-.3a.2.2 0 01-.3-.1l1.7-.5.6-.2.2.2a1.3 1.3 0 00-.6.2zm1.3-.4V62a.7.7 0 00.3-.2l1.2-.3v.1a9.4 9.4 0 00-1.5.5zm.2-2.4a1 1 0 00-.4.2h-.5c0-.3.9-.6 2.7-1h.3v.1l-2.1.6zm3.2-3.6c0 1.5-.6 2.4-1.5 2.6v-.2l-.8.4h-.4a1 1 0 01-.5 0v-.3a49.3 49.3 0 013.5-4.9h.3a5 5 0 01-.5 2.4zm5.8-4.9h-.1V51h.5a1.6 1.6 0 00-.4.2zm-2.4 23.9a1.5 1.5 0 00-.7-.2v-.4l.2-.2c.2 0 .3 0 .3.3a4 4 0 01.7-.7l.2.1c0 .7-.3 1-.6 1.1zm25.5-26.7l-.7-1.1v-.2c.2 0 .5.3.7 1v.3zm-.3-2.6l-.1.2-3.5-1.4c2.3 0 3.5.4 3.6 1.2zM65.9 58.3h-.5v-.2h.5v.2zm-.4-7.5v.3l-.4.5v-.2a1 1 0 00.3-.6zm-1 2.4v.4h-.2v-.4zm-.6.8h.2q0 .6-.3.7h-.1a1.3 1.3 0 00.2-.7zm-.4 1.2h.1v.2l-.2.3h-.2c.2 0 .3-.2.3-.5zm-.4 1.1v.6h-.2v-.6h.3zm-4 11.3q-.2 1.2-.5 1.2a1.3 1.3 0 01.5-1.2zm-.7 1.6v.1a.2.2 0 01-.2.3v-.2l.2-.2zm-.2 3.3h.4v.1a1 1 0 00-.4.1H58q0-.2.2-.2zm10.4-3.2a21.8 21.8 0 00-3.6 2c-2.2.8-3.3 1.3-3.3 1.5a35.3 35.3 0 00-4 1.7 1.4 1.4 0 01-.6-.2 1 1 0 01.6-1 2.1 2.1 0 011 .2 10.8 10.8 0 011.9-.7v-.2h-.8a10 10 0 012.2-1h.4v.2c-.7 0-1 .2-1.1.6a.2.2 0 00.3.2l.6-.6q1.4-.2 7.5-3.9v.3l-1 .9zm-6.2 2a2.5 2.5 0 001.6-.7c.2 0 .3 0 .3.2a6 6 0 00-1.7.7h-.1v-.2zm10-7.8l-3 2.5a30.2 30.2 0 01-3.8 2.3q-5.5 3-6.9 3.2h-.1q.2-.7 5-10.1a27.3 27.3 0 006.6-2l.7-.1a4.2 4.2 0 013.4.9v.4c-.6 1.6-1.2 2.6-1.8 2.9zm-6-3.4h.5v.2h-.5V60zm7-1.2h.4c.4.2.5.4.6.5a1 1 0 01-1-.4zm1-5.6a14.3 14.3 0 01-2.6 2 35.7 35.7 0 00-5.4 2 1.2 1.2 0 00-.5 0V57a3 3 0 01.6-1.7c.3-1.2.5-2 .8-2.1l2.6-5.8c0-.4.5-.7 1.7-.9h.3v.4l2-.3c2-.2 3.2.2 3.3 1.2h.2v-.6h.3a1.6 1.6 0 011 1.2 2 2 0 01-.5 1.2c-.2 0-.3 0-.3-.3h-.2v.7c-1 1.6-1.9 2.4-2.3 2.4l-.8.9zm1.1 3.8v-.3h.3l.5.3a.2.2 0 01-.2.3 1 1 0 00-.5-.2zM32.1 79.8H32l-.2.2a.2.2 0 00.3.2l.2-.3v-.1zm-.9-1.9v.1c.2 0 .2 0 .2-.2v-.2a.2.2 0 00-.2.3zm6.6-12.4h.2a.1.1 0 00-.2 0zm0-3.2h.3L38 62h-.3v.3zm65.9 9.4h-.7V72l3.7-.3v-.2l-3 .2zm3.4-.3v.3-.3zm15.9-2v.2h.4v-.2h-.4zm-.6 0a15.7 15.7 0 01-3.8.5v.3h.4l.3-.2c2.8-.3 3.1-.2 3.1-.5zm-17-4.2h-.3a4.2 4.2 0 00-.3 1c.2 0 .4-.3.6-1zm-3.4-1.8v-.1h-.2l-.2.1.1.3c.2 0 .3-.1.3-.3zm7.4 7.7v-.3.3zm15.3-3.5h.2c.1 0 .2 0 .2-.2l-.1-.3a3 3 0 00-1.5.4v-.1h-.8l-.1-.3h-.4c-.5 0-.7 0-1 .2v-.1h-.5l-.3.1h-1v.2h.7a.5.5 0 00.3.1l.2-.1v.1a19 19 0 01-2.4.5.4.4 0 00-.3-.1.2.2 0 01-.1-.2l.5-.1a3.2 3.2 0 00.3 0l.7-.2v-.3a15.2 15.2 0 01-2.7.3v-.2l2.3-.4v.1a.5.5 0 01.4-.1h.1a8.5 8.5 0 002.6-.3v.1l.3-.1h.2c0-.3.3-.3.5-.3V66c-2.9.6-3.6.4-4.4.7v-.1a3.4 3.4 0 01-1 0 .5.5 0 00-.2.2v-.1l-2.5.4V67a12.2 12.2 0 01-2.6.4.8.8 0 00-.3.2l-.2-.1h-1l-.7.2a5.4 5.4 0 01-1 .1c-.3 0 0 0 0 0h-1.5l-1.8.3h-.6l-.1.1c-.8 0-1.2-.2-1.2-.3q.2-1.1.5-1.2h.2l-.1.3h.1l.3-.4v-.2h-.2V66a.8.8 0 010-.4l.6-1v.3h.3v-.2l-.2-.2a1 1 0 01.5-.3v-.1h-.4v-.4a10 10 0 001-2.5h.3c.2 0 .2 0 .2-.2h-.2V61a.9.9 0 010-.5 1.6 1.6 0 00.6-1.2h.1c.3-.1.6-.6.8-1.4a46.9 46.9 0 002.4-6.3c2-5.5 2-6 2.3-7.4h-.2a.8.8 0 01-.1.5 1 1 0 00-.4 0v-.2a2.8 2.8 0 01.6-1.7l.3.8h.2a7.3 7.3 0 01.2-1c0-.1 0-.2-.3-.2l-.2.1v-1.3h-.1a1 1 0 01-.3-.5l-1.4.2a1.2 1.2 0 00-.1-.4c0-.2.3-.3.9-.4l.3.1.2-.2c0 .1 0 .2.2.2l.2-.2.2.1v-.3h-1.4l-.2.2V40l-10.7.9h-1.3l-.3.1h-.2L98 41a6 6 0 01-1 0 1 1 0 01-.6.2l2.7-.2a1.2 1.2 0 01-.7.2.9.9 0 01-.5 0 15.2 15.2 0 01-2 .4l-.3-.1-4.3.7a1 1 0 00-.6-.1 7.2 7.2 0 00-1.2.2l-2.1.9.1.3a1.2 1.2 0 00.5-.2h.7v.8a1.9 1.9 0 00-1.3 1.3c-1 .5-1.5.8-1.5 1v.1h.1l.3-.1.4.4v.5q0 .3-5.3 11c-3 6.9-4.6 10.7-4.7 11.3-1 .3-1.6.8-1.8 1.3 0 .2.3.3 1 .4v.2l-.4.5v.5q0 .4 2.3.7l.1-.2a8.2 8.2 0 01-.2 2h.3a3.5 3.5 0 00.9-1.7h.1c.1 0 .3.1.5.5q-.3.1-2 4.4l.1.3h.2q2-5.2 2.6-5.8l9.3-1 .3-.1a.1.1 0 00.2.1h.3l.2-.2a.1.1 0 00.2.2l3.4-.3c.8 0 1.3-.4 1.2-.8 0-.1.5-.3 1.6-.4a1.3 1.3 0 01.5 0L99 70c0-.6.2-.9.6-.9v-.3a4.6 4.6 0 00-1 .3 6.3 6.3 0 01-1.4-.2 1.2 1.2 0 01-.4.2l-2.4-.1-.3.1H93.6L93 69l-.3.2H92V69q4.5-.5 4.5-1.2a.3.3 0 01.3.3l.9-.3v-.2l-7.2.2-.2.1h-.8a1 1 0 00-.6.2l-.4-.1a10 10 0 00-2 .3 12.7 12.7 0 00-2 0l-1.6.2-.7-.1c0-.5.9-2.8 2.8-7a6.1 6.1 0 011.5-2.6 1 1 0 01.5 0l1-.3h.6a13.4 13.4 0 003.4-.8 1.6 1.6 0 01.8 0l.9-.1 2.6-.3a17.3 17.3 0 003.6-.7v-.3c-.5 0-.7 0-.8-.2 0-.4-.3-.5-1-.5v-.2l.7-.2 1.9-.2v-.3h-1.2v-.3h.8c.2 0 .2-.1.2-.3-1 0-1.4 0-1.5-.2q-10.2.5-10.2.2a1.2 1.2 0 00-.4.2L88 54q2.7-5.8 3.1-5.8a1.7 1.7 0 01-.2.7v.1h.3c.7-1.7 1.3-2.6 1.8-2.6 2.2-.2-.3-.4 4.3-1a.9.9 0 00.4 0q2.7-.5 7.6-1V44l-1.7.1V44a1 1 0 00.5-.2v.2a1 1 0 00.4-.2 1.2 1.2 0 01.6 0 10 10 0 011.5-.2l1-.1c.3-.2.4-.3.4-.5a3.4 3.4 0 01-1-.1.3.3 0 01.3-.3l2-.2 1-.3v.2a1 1 0 00.4-.2h.2a7.5 7.5 0 00-.4 1h-.3a1.1 1.1 0 00-.1-.4h-.2c-2.4 6.8-3.5 9.9-5.7 15-.4 1.4-.8 2.1-1 2.3a.2.2 0 00.2.2 3.3 3.3 0 01-.5 2c-1 3-1.7 4.5-2 4.8l.2 1.4a.2.2 0 01-.3.3h-.2c0-.4-.2-.6-.4-.6h-.2a5.5 5.5 0 00-.7 1.8h.3a.8.8 0 00.4-.8h.5l.3.1a1.5 1.5 0 00-.3.9v.2l-.2.7v.2a1.5 1.5 0 01.9.2 1.6 1.6 0 00.7-.3h3.1l1-.3a20.9 20.9 0 002.2 0h.3l.3-.2v.1a6.1 6.1 0 011.8 0v.2h-.6v.2a.8.8 0 00.5-.1c.1 0 .2 0 .2.2a3.3 3.3 0 00-.7.2l-.3-.1-.5.1h-.4-.1a.2.2 0 00.2.3h.4l2-.2.8-.2v.1l.5-.1h.7c.5 0 .5-.2 1.7-.4a17.2 17.2 0 002.4-.4c.5 0 .2 0 .3-.1h.4v-.2H117.4a3.6 3.6 0 01-.8 0l-1.7.2v-.1l1-.2h.4l.2-.1v.1c1.3-.1 1.8.2 8-1.1.3 0 .3-.3.5-.9a.6.6 0 01-.3 0 9.7 9.7 0 01-1.8.2c-.1 0-.2 0-.2-.2v-.1h1a2.4 2.4 0 001-.3s-.2 0 0 0zm-45.8.7h-.5a8.3 8.3 0 01.7-2h.3a7.6 7.6 0 01-.5 2zm.5-2V66c0-.2 0-.3.3-.3v.2c0 .2 0 .3-.3.3zm5.8 4.4v.1l-.7.1v-.1h.7zm-.9 0c0 .1-.2.3-.7.4h-1.1v-.3l1.9-.2zm6-27.2h-.5v-.1c0-.2 0-.3.3-.3h.1l.3.1a.3.3 0 01-.3.3zm6.6-1.3h.1v.3h-.4a.3.3 0 01.2-.3zm-1.7.6h-.7v-.2a7.2 7.2 0 001.7-.3c0 .1.1.2.3.1v.3h-.3a.9.9 0 01-.5 0 1.1 1.1 0 01-.5.1zm.8 2.5v-.1l1-.1-1 .2zm1.1-1v-.1h.6v.1H97zm.2-1.8H97l.2-.3h1.1a7.2 7.2 0 00-1.1.3zm.6 2.6v-.3h.5q.3 0 .3.3h-.8zm3.1-4.3l-.6.2h-.2a6.8 6.8 0 01-1.2 0l2-.2zm-.7 3v.1l-.9.1v-.1l1-.1zm1.5.7s-.2-.2-.5-.2l-1 .3h-.6l-.3-.3h.8l1.9-.3h.9v.2a5.3 5.3 0 00-1.2.2zm9.5-2.5h.2a3.6 3.6 0 011.1-.8 6.5 6.5 0 01-1.5 3.3l-.6-.3a17 17 0 00.8-2.2zm-1.6 2.8h.1c-.1.3-.3.5-.4.5v-.4a.8.8 0 00.3-.1zm-1 2.4a3.5 3.5 0 01.7-1.7v.1c0 1-.3 1.4-.6 1.5v.6a1.3 1.3 0 00-.3.7h-.1v-.8s.2-.1.3-.4zm-.4 1.4a3.4 3.4 0 01-.3 1v-.4c.1-.4.3-.6.4-.6zm-7.5 21.8v-.1h.2v.3s-.2 0-.2-.2zm10.7.3v-.2l-.7.1v-.1l1.5-.1a1.3 1.3 0 00-.8.3zm-.7-.3zm0-1.7h-.7l.7-.1.6-.2s0 .1.2 0l1-.1c.1 0 .2 0 .2.2l-2 .2zm2.9-.3a3.2 3.2 0 00-.8 0v-.1h.7s.2 0 0 .1zm0 0v-.2h.4v.1h-.4zm1-.2a.7.7 0 00.2-.2.3.3 0 01.3.3zm1-.1V68h.5v.1h-.5zm.7 0c0-.2 0-.3.2-.3l.1.2V68l.2.2h-.5zm9.1-1.1zm.2-.1s.1-.1 0-.1 0 0-.2 0v.2h.1l-.3.3.4-.2V67zm.7.5v.2h.5l-.5-.2z"/></svg>