<svg id="Behance" viewBox="0 0 128 128"><defs/><g id="plain"><path d="M48.5 48.3c0-7.2-4.8-7.2-4.8-7.2h-20v15.4h18.7c3.3 0 6.1-1 6.1-8.2zM43.7 67h-20v18.4h19c3 0 8.2-1 8.2-8.9 0-9.5-7.2-9.4-7.2-9.4zM95 56.5C84.2 56.5 82.7 67 82.7 67h22.6s.2-10.6-10.5-10.6z" class="cls-1"/><path d="M111.3 2.2H16.8A14.6 14.6 0 002.2 16.8v94.4a14.6 14.6 0 0014.6 14.6h94.4a14.6 14.6 0 0014.6-14.6V16.7a14.6 14.6 0 00-14.5-14.5zM79.8 32.9h28.3v8.5H80zM65.5 77.4c0 21-21.8 20.3-21.8 20.3H7.9V28.9h35.8c10.8 0 19.4 6 19.4 18.3s-10.5 13-10.5 13c13.9 0 13 17.2 13 17.2zm53.1-1.2H83c0 12.8 12.1 12 12.1 12 11.4 0 11-7.4 11-7.4h12.1c0 19.7-23.5 18.3-23.5 18.3-28.3 0-26.5-26.3-26.5-26.3s0-26.4 26.5-26.4c27.8 0 24 29.8 24 29.8z" class="cls-1"/></g></svg>