<svg viewBox="0 0 128 128"><g><path d="M64 1C34 1 9.4 9.1 9.4 19.1c0 2.7 6.6 40.5 9.2 55.5C19.8 81.4 37 91.3 64 91.3v-.1c27 0 44.2-9.8 45.4-16.6 2.6-15 9.2-52.8 9.2-55.5 0-10-24.6-18-54.6-18zm0 78a17.3 17.3 0 110-34.6 17.3 17.3 0 010 34.7zm0-54.3c-19.3 0-35-3.4-35-7.5 0-4 15.7-7.4 35-7.4s35 3.4 35 7.5-15.7 7.4-35 7.4z"/><path d="M103.2 89.7c-.8 0-1.5.6-1.5.6S88.3 100.9 64 100.9 26.3 90.3 26.3 90.3s-.7-.6-1.5-.6c-1 0-2 .7-2 2.1l.1.5c2 11.1 3.6 19 3.9 20.3C28.6 120.8 44.7 127 64 127c19.3 0 35.4-6.2 37.2-14.4a1496.5 1496.5 0 004-20.8c0-1.4-1-2.1-2-2.1z"/><circle cx="64" cy="61.7" r="8.7"/></g></svg>