<svg viewBox="0 0 128 128"><path d="M75.7 65.6c-2.3-.8-5.7-.6-10-.6H48v23h18.8c3 0 5-.3 6.2-.5 2.1-.4 3.9-1.1 5.3-2 1.4-.9 2.6-2.2 3.5-3.9.9-1.7 1.4-3.6 1.4-5.8 0-2.6-.7-4.6-2-6.5a10 10 0 00-5.5-3.7zm-2.4-10.5c2.3-.7 4-1.9 5.2-3.5a10 10 0 001.8-6c0-2.3-.6-4.4-1.7-6.1s-2.6-2.4-4.7-3c-2-.7-5.5-.5-10.4-.5H48v20h16.6c4 0 7-.4 8.7-1zM126 18.6C126 9.4 118.6 2 109.4 2H17.6C8.4 2 1 9.4 1 18.6v91.8c0 9.2 7.4 16.6 16.6 16.6h91.8c9.2 0 16.6-7.4 16.6-16.6V18.6zM90.6 84.7c-1.4 2.8-3 5-5.1 6.5-2 1.5-4.5 2.7-7.5 3.5-3 .8-6.8 1.3-11.2 1.3H39V27h27.4c5.3 0 9.5.6 12.7 2a16.9 16.9 0 0110.2 15.5c0 3-.8 5.7-2.4 8.3-1.6 2.6-4 4.7-7.3 6.3a18 18 0 019.6 6.2c2.3 3 3.4 6.4 3.4 10.4 0 3.3-.7 6.3-2 9z"/></svg>