<svg viewBox="0 0 128 128"><path fill-rule="evenodd" d="M124.8 65.6a7.4 7.4 0 00-4-5.3 54.4 54.4 0 00-13-4.3c-9.6-2.2-19.3-3.6-29-4.7l-3.4-.4c.4-3.2 1.5-4.2 5.3-5l1.2 2.7c.2.3.6.8 1 .8 5.5 0 10.9-1 15.2-5 3.4-3 4.9-7.2 5.7-11.6l.8-4.8c.7-5 3.4-9 6.7-12.6l.5-.7c-2.6-.8-5.2-.9-7.8-.4-10 1.8-17.4 7-22 16l-.2.2-5-1.3c-.3 0-.5-.6-.7-1a27 27 0 00-15-17c-2.3-1-4.9-.8-7.3-1.5-.1 0-.2.3-.4.3h-7.3c-1.6 0-3.2.1-4.8.4A47.8 47.8 0 003.6 48.6a62.8 62.8 0 0015.5 54.6c2 2.3 4.6 4.2 7.4 5.6a10 10 0 0013.7-4.5l.2-.4c1.1 3 2.4 6 3.4 9 1 2.8 4.4 4.2 6.6 4 .4 0 .9.4 1.1.2 2-1.5 3.5.9 5.1.9h2.7c1.9-1 3.7-1.7 5-3.4 0-.2.8-.2 1.2-.2a10 10 0 006.7-1.7 6.4 6.4 0 003-4.8c2.2-.6 3.5-2.3 3.6-4.8 0-1.4 0-3-.7-4.1-1.8-3.7-3.8-7.3-5.8-10.9l-.2-.3.4.1c3 1.4 6 2 9.1 1.8 2-.2 3.3-.8 4.3-2.4 2.5 1.8 5.4 2.6 8.5 2.4 3-.2 6-.9 7.6-4 2.2 0 4.4.3 6.6 0 1.5-.2 3-.9 4.4-1.6 2.2-1.2 3.7-3 3.2-5.8 2.3-.2 4.4-.7 6-2.1 1.5-1.2 2.1-2.7 2.6-4.4l.2-1.2v-3.4c0-.5 0-1-.2-1.6zM49.5 42.7a6.4 6.4 0 01-6.4-6.4c0-3.6 3-6.5 6.4-6.5 3.6 0 6.4 3 6.4 6.5 0 3.6-2.8 6.5-6.4 6.4zM69 48c-.8-2-1.4-4-1.1-6.2-.2-3.4 1-6.3 3-9 .2-.3 1-.3 1.6-.3a32 32 0 0119.7 9.2l-6-1.3c-3-.5-5.8-.4-8.6.8a19 19 0 01-9.4 1.1c1.7 1.6 3.8 1.5 5.9 1.2l5.3-1.2v1L69.2 48z" clip-rule="evenodd"/></svg>