<svg id="Ceylon" viewBox="0 0 128 128"><defs/><g id="plain"><path d="M40.4 90.5a15.3 15.3 0 01-2.8-1 48 48 0 00-7.5 18.7h12.3a62.2 62.2 0 01-2-17.7zM80.3 84a91.7 91.7 0 00-5.7 17.1c-.6 2.4 1 4.8.8 7.1h15.4c-4-11.3-5-27.6-7-34.2l-3.5 10z" class="cls-1"/><path d="M124.3 45.2c-3.5-5-11.5-9.2-13.4-15-.5-1.4-.6-4.4.4-5.8s-.6-1-.6-1c-2 .8-2.8-1.4-2.8-1.4-.3-.8 0-3.1-1.7-1.9-3 2.4-2 8-1.5 10.3a23.8 23.8 0 006 10.4c1 .9 7.2 7.8 6.4 11.4a2.9 2.9 0 01-2.2 2.6c-4.6 1-6-4.7-6-4.7-3.5-14.7-9-19.8-9-19.8A109 109 0 0073 32.6C38.6 31.3 12.8 42 12.8 42c-7.6 10.8-12 31-12 31v.1a.3.3 0 00.3-.1 63.4 63.4 0 019.6-9.7c-.7 28 5.6 45 5.6 45h12C29 98.2 37 87 37 87c4.4 3.4 14.5 2.4 14.5 2.4 1.8 6.7 5.4 18.8 5.4 18.8h14.5a91.4 91.4 0 017.8-26.6S83 73.4 83 71c.2-4.3 4.3-5.5 6.4-5.5s12.1 5.5 19.5 5.2c13-.7 18-6.7 18.3-13.5.2-4.7-1-9.2-2.9-12zM82.8 59.6a2.2 2.2 0 01-.2.6 1.5 1.5 0 01-.5.4 1.4 1.4 0 01-.8.2 2.2 2.2 0 01-.6-.2 6.3 6.3 0 01-2-1.3l-.7-.7-.7-.8a4.5 4.5 0 00-1.5-.8l-1.9-.5c-.7-.1-1.3-.4-2-.6a5 5 0 01-.6-.2l-.3-.2a2.4 2.4 0 01-.4-.2 2.5 2.5 0 01-.5-.7 3 3 0 01-.3-.8 5 5 0 01-.1-1.3 8.7 8.7 0 01.1-1.1 17 17 0 01.6-2.2l.7-2 .4-1a10.7 10.7 0 01.5-1 11.3 11.3 0 013-3.2 12.9 12.9 0 011.7-1.1 10.3 10.3 0 012-.8 18.3 18.3 0 00-3 2.7 12.3 12.3 0 00-2.2 3.2 8.7 8.7 0 00-.4.9l-.3 1-.5 2a18 18 0 00-.4 1.9 7.8 7.8 0 00-.1.9 2.8 2.8 0 000 .7.7.7 0 00.2.3l.1.1.4.2 2 .6a18 18 0 012 .7 5.5 5.5 0 012 1.4l.6.9.6.8.7.7a3.7 3.7 0 00.6.6.8.8 0 00.6.2 1.1 1.1 0 00.6-.5 4.8 4.8 0 00.5-1l.3-1a6 6 0 01-.2 2.2zm12.8-8.9a2.2 2.2 0 11-.9-2.5 2 2 0 011 2.5z" class="cls-1"/></g></svg>