<svg viewBox="0 0 487.7 460.6"><g><path d="M390.2 88.5a318 318 0 0128.4 85.1c8.2-8 19.4-13.9 21.8-15-19-71.3-67.2-128.2-128.7-152.8 32.1 16 58.7 43.8 78.5 82.7zM67.4 173.6c3.1-17.6 11-51.2 28.3-85.2 18.8-36.9 43.7-63.8 73.7-80.2C110.6 34 64.7 89.7 46.4 159a96.7 96.7 0 0121 14.7zM362.3 188.3h-78c-9.2 0-16.6 7.4-16.6 16.6v35.8c0 9.1 7.4 16.6 16.6 16.6h78c9.2 0 16.6-7.5 16.6-16.6v-35.8c0-9.2-7.4-16.6-16.6-16.6zM193.5 188.3h-78c-9.1 0-16.6 7.4-16.6 16.6v35.8c0 9.1 7.5 16.6 16.7 16.6h78c9 0 16.6-7.5 16.6-16.6v-35.8c0-9.2-7.5-16.6-16.7-16.6z"/><path d="M452 167c-3 0-5.9.6-8.6 1.5-8.3 4.5-20.7 13-23.2 20l-7.5 20.3-2.4-21.6c0-.4-5.5-47.8-29.3-94.3C349.5 31.2 302.3 0 240.9 0c-59.4 1.4-105.2 32.6-136 92.8a309.2 309.2 0 00-29.3 94.4l-2.4 21.5-7.5-20.3c-3-8.3-19.2-18-24.8-20.8-1.7-.4-3.4-.6-5.1-.6C16 167 0 188.8 0 215.6c0 26.9 16 48.6 35.8 48.6 1.5 0 3-.2 4.4-.4 15.6 111.5 100.7 196.8 203.2 196.8 102.6 0 187.6-85.4 203.3-197 1.7.4 3.4.6 5.2.6 19.8 0 35.8-21.7 35.8-48.6 0-26.8-16-48.6-35.8-48.6zM304.7 382.6H183.3v-10.2h121.5zm84.3-142c0 14.9-12 27-26.8 27h-78c-14.8 0-26.8-12.1-26.8-27v-23.3l-2.9-2.2h-30.2l-4 2.5v23c0 14.9-12 27-26.9 27h-78c-14.8 0-26.8-12.1-26.8-27V205c0-14.8 12-26.9 26.9-26.9h78c14.7 0 26.8 12 26.8 26.9v.7a38.4 38.4 0 0137-.8c.1-14.8 12.1-26.8 27-26.8h77.9C377 178 389 190 389 205v35.8z"/></g></svg>