<svg viewBox="0 0 488 488"><g><path d="M390.4 102.2a318 318 0 0128.3 85.2c8.2-8 19.5-14 21.8-15.1-19-71.3-67.1-128.1-128.6-152.7 32 16 58.7 43.8 78.5 82.6zM67.5 187.3c3.2-17.6 11-51.2 28.3-85.2 18.9-36.9 43.8-63.8 73.8-80.1-59 25.7-104.8 81.4-123.1 150.6a96.7 96.7 0 0121 14.7zM362.4 202h-78c-9.1 0-16.6 7.4-16.6 16.6v35.8c0 9.1 7.5 16.6 16.7 16.6h78c9 0 16.5-7.5 16.5-16.6v-35.8c0-9.2-7.4-16.6-16.6-16.6zM193.7 202h-78c-9.2 0-16.6 7.4-16.6 16.6v35.8c0 9.1 7.4 16.6 16.6 16.6h78c9.1 0 16.6-7.5 16.6-16.6v-35.8c0-9.2-7.5-16.6-16.6-16.6z"/><path d="M452 180.8c-2.9 0-5.7.5-8.5 1.4-8.3 4.5-20.6 13-23.2 20l-7.5 20.3-2.4-21.6c0-.4-5.5-47.8-29.3-94.3-31.5-61.6-78.6-92.9-140-92.9-59.5 1.4-105.2 32.6-136 92.8a309.2 309.2 0 00-29.3 94.4l-2.4 21.5-7.5-20.3c-3-8.3-19.2-18-24.9-20.8-1.6-.3-3.3-.5-5-.5-19.8 0-35.9 21.7-35.9 48.5 0 26.9 16 48.6 35.8 48.6 1.5 0 3-.1 4.4-.4C56 389.1 141 474.3 243.5 474.3c102.6 0 187.7-85.3 203.3-197 1.7.4 3.5.6 5.3.6 19.7 0 35.8-21.7 35.8-48.6 0-26.8-16-48.5-35.8-48.5zM305 396.3H183.4v-10.2H305zm84.4-142c0 14.9-12 27-26.9 27h-78c-14.8 0-26.8-12.1-26.8-27V231l-2.8-2.2h-30.3l-4 2.5v23c0 14.9-12 27-26.8 27h-78c-14.8 0-26.9-12.1-26.9-27v-35.7c0-14.8 12-26.9 26.9-26.9h78c14.8 0 26.8 12 26.8 26.9v.7a38.4 38.4 0 0137.1-.8c0-14.8 12-26.8 26.9-26.8h78c14.7 0 26.8 12 26.8 26.9v35.8z"/></g></svg>