<svg viewBox="0 0 128 128"><path d="M89.7 48.9l-.8-.4c.4 1 .6 1.7.6 2.5l.2-1.9c0 .8 0 1.6-.3 2.3V51c-.2.9-.5 1.8-1 2.5l.2-.2C85.7 58 78 59.2 74 54.2c-6.2-8 .1-16.6 1-25 1.1-10.7-5.5-21-13.8-27.1 4.6 7.3-1.4 17-6.2 22.5-4.6 5.2-10.3 9.6-15.4 14.4a128.6 128.6 0 00-15.3 16.6c-9 12-14.6 27.2-10.5 42.3 4 15 17 24.7 31.8 28-7.4-3.2-14.4-11.3-14.4-19.7 0-9 5.8-16.8 13-21.9-1 3.3-1.4 6.2.7 9.2 2 2.7 5.5 4 8.8 3.3 7.7-1.7 8-10.1 3.5-15-4.5-5-8.9-10.4-7.2-17.5.9-3.5 3-6.9 5.8-9.2-2.1 5.5 4 11 7.9 13.8 6.9 4.7 14.4 8.3 20.7 13.8 6.7 5.9 11.6 13.8 10.6 23-1.1 9.9-9 16.8-17.8 20.2 18.7-4 38-18.6 38.4-39.3.3-17-11.4-30.2-25.9-37.7z"/></svg>