<svg viewBox="0 0 128 128"><path d="M50.3 29.6c11.7-1 15-8.5 28.7-9.8 6.7-.6 11 .8 11.4 3.1.4 2.2-2.9 3.7-7 4-5.6.6-8-1.5-8.4-3.4-4.1.4-4.8 2.2-4.6 3.5.4 2.4 5.5 4.7 14.1 3.9 9.8-.8 13-4.6 12.2-8.5-1-5-8.5-9.2-22-8-17.3 1.6-17.2 9.5-28.9 10.5-4.8.4-7.5-.7-8-2.6-.3-1.9 2-2.8 4.8-3 2.6-.2 5.7.2 7.2 1 1.1-.6 1.5-1.1 1.3-1.8-.4-1.8-4-2.6-8.5-2.2-8.7.8-8.7 4.7-8.4 6.4 1.1 4.7 7.8 7.7 16.1 6.9zm58.6 19.8a185.3 185.3 0 01-41.2 4.1 199 199 0 01-41.5-4.1c-9.6-2.5-14.8-5.2-16.6-8 .9 6.3 2.5 12.4 4.6 18.2a26.8 26.8 0 00-6.7 6 23.4 23.4 0 00-5.2 15.9c.3 5.5 3 10 7.3 13.5 4.5 3.5 9.3 4.5 14.8 3.5 2.1-.3 4.5-1.5 6.6-2.1-4.5 0-8.3-1.5-12.1-4.5a18 18 0 01-7.6-12.4c-1-4.8 0-9.3 2.7-13.2.6-.8 1.2-1.4 1.9-2 1.5 3.8 3.3 7.4 5.2 10.9 4.1 6.3 8.3 11.8 12.4 17.7 1.8 3.5 3 7 3.8 10.4 2.7 3.8 6.6 6.5 11.4 7.9a54.5 54.5 0 0018.4 2.9h.7c6.3 0 12.9-1 19-3 4.5-1.5 8.3-4 11.1-8h.3c.7-3 1.8-6.8 3.5-10.3 4.1-5.9 8.3-11.4 12.4-17.7 5.5-10 9.3-21.4 11.4-33.6-2.1 3-7.3 5.8-16.6 7.9zm-82.7-8.7c10.8 2.7 24.6 4.1 41.2 4.1 16.9 0 30.4-1.5 41.2-4.1 11.4-2.7 16.9-6.3 16.9-9.6 0-2.5-2.5-4.8-7-6.6 1 .7 1.8 1.8 1.8 3 0 3.5-5.2 6.3-15.6 8.6-9.6 2.1-22 3.6-37 3.6A181 181 0 0131 36.2c-10-2.5-15.3-5.2-15.3-8.6 0-1.5.7-2.7 2.7-4.1-6.3 2.5-9.6 4.5-9.6 7.6.3 3.5 5.9 7 17.4 9.6z"/></svg>