<svg viewBox="0 0 128 128"><g><path d="M90 82.4a84 84 0 00-5.6-9.5 107 107 0 00-5-6.6 2 2 0 01.1-2.6l1.6-1.6c7.5-7.6 15.2-15.5 21.1-24 6.3-9 9.8-17.6 10.7-26.4a2.7 2.7 0 00-1-2.4 2.7 2.7 0 00-2.6-.4c-5.7 2.2-11.6 3.9-16.9 5.1a3.3 3.3 0 00-2.3 2C86.2 26.8 76.3 36.9 66 47.5c-.5.4-1 .9-2 .9s-1.5-.5-2-1C51.8 36.9 41.9 26.8 38 16.2a3.3 3.3 0 00-2.4-2 132 132 0 01-16.9-5.3 2.7 2.7 0 00-3.6 2.8A56 56 0 0025.8 38c5.9 8.5 13.6 16.4 21 24 13.8 14 26.8 27.2 28 42.6a2.7 2.7 0 002.6 2.5h16.1a2.7 2.7 0 002.7-2.8 48.6 48.6 0 00-1.3-8.7 1 1 0 011-1.4h.2c13.2 2 21.5 5 21.5 8.5 0 3.2-7.4 8-19.6 11.5-1.1.4-2 1.3-2 2.5a2.6 2.6 0 003.3 2.5c16.3-3.8 27.2-10.2 27.2-17.4 0-8.5-14.7-16.1-36.5-19.5zM46.7 74a2.7 2.7 0 00-2-.8c-1.1 0-1.8.8-2.1 1.2a82 82 0 00-4.6 8C16 85.8 1.5 93.4 1.5 101.9c0 7.2 10.8 13.6 27.2 17.4a2.6 2.6 0 003.2-2.5c0-1.2-.8-2.1-1.9-2.4-12.2-3.6-19.6-8.4-19.6-11.6 0-3.4 8.3-6.5 21.4-8.4a.8.8 0 01.2 0 1 1 0 011 1.3 48.5 48.5 0 00-1.2 8.7 2.7 2.7 0 002.6 2.8h16.2a2.7 2.7 0 002.6-2.5c.4-4.7 1.9-9.5 4.6-14.4.9-1.8.2-3.4-.4-4-2.6-3.5-5.9-7.2-10.7-12.3z"/><path d="M62.1 34.1c.7.7 1.4.8 1.9.8s1.2-.1 1.9-.8c5.7-5.5 8.7-12 9.4-13.8a2.6 2.6 0 00.2-1c0-1.4-1.2-2.4-2.5-2.4-1 0-4 .3-9 .3s-8-.3-9-.3a2.5 2.5 0 00-2.3 3.4c.7 1.8 3.7 8.3 9.4 13.8z"/></g></svg>