<svg viewBox="0 0 128 128"><path d="M117.5 33.5l.3-.2a6.8 6.8 0 00-2.4-2.6L67.1 2.9a6 6 0 00-3.1-.7 7 7 0 00-3.1.7l-48 27.9a6.9 6.9 0 00-2.9 5.4v55.7c0 1.1.2 2.3.9 3.4l-.2.1c.5.8 1.2 1.5 1.9 1.9l48.2 27.9a6 6 0 003.1.7 7 7 0 003.1-.7l48-27.9c1.7-1 2.9-3.5 2.9-5.4V36.1c.1-.8 0-1.7-.4-2.6zm-53.5 70a39.5 39.5 0 1134.3-59l-13 7.5a24.4 24.4 0 00-45.8 12 24.5 24.5 0 0045.8 12.1l12.9 7.6A39.5 39.5 0 0164 103.5zM115 62h-3.2l-.9 4h4.1v5h-5l-1.2 6h-4.9l1.2-6h-3.8l-1.2 6h-4.8l1.2-6H94v-5h3.5l.9-4H94v-5h5.3l1.2-6h4.9l-1.2 6h3.8l1.2-6h4.8l-1.2 6h2.2v5zm-12.7 4h3.8l.9-4h-3.8z"/></svg>