<svg viewBox="0 0 128 128"><linearGradient id="a" x1="85.2" x2="91.1" y1="97.6" y2="-49.5" gradientUnits="userSpaceOnUse"><stop offset="0" stop-color="#f9a03c"/><stop offset="1" stop-color="#f7974e"/></linearGradient><path d="M118.2 64A36 36 0 0090.5 5H48c10.4 7 19 16 24.8 26h17.7a10 10 0 110 20H80a75.4 75.4 0 010 26h10.5c5.5 0 10 5 10 10.5S96 98 90.5 98H72.9c-1.3 2-2.8 4.7-4.4 7a71 71 0 01-20.2 19h42.2a36.5 36.5 0 0036-34.9v-2c0-8.7-3.1-16.9-8.3-23.1z"/><linearGradient id="b" x1="33.6" x2="39.4" y1="97.7" y2="-47.9" gradientUnits="userSpaceOnUse"><stop offset="0" stop-color="#f9a03c"/><stop offset="1" stop-color="#f7974e"/></linearGradient><path d="M61 97.5v-.1l.2-.4.3-.4A59.2 59.2 0 0012 5H1v25.9h11A33.2 33.2 0 0142 78v.4A33.6 33.6 0 0112 98H1v26h11a59.5 59.5 0 0049-26.5z"/></svg>