<svg viewBox="0 0 256 256"><path d="M70.5 69.7L54 53.1v119.6l.3 5.6c0 2.7.5 5.6 1.3 8.7l131.1 46.2 32.8-14.5-149-149"/><path d="M55.6 189v-.1.1zm164 31.7l-32.9 14.5-131-46.2c2.5 9.6 8 20.4 14 26.3l42.7 42.6 95.2.1 12-37.3zM1 130.1c-4.2 4.5-2.1 13.9 4.7 20.7l29.4 29.7 18.5 6.5c-.8-3-1.3-6-1.3-8.7l-.2-5.6L52 53.3l-51 77zM189.8 52.7c-3-.8-6-1.3-8.7-1.4l-5.9-.2H56l165.5 165.6 14.6-32.8-46.3-131.2"/><path d="M191.7 52.7h0zm26.4 14c-6-6-16.6-11.5-26.3-14l46.3 131.2-14.5 32.8 35.5-11.4V108l-41-41.2zM182.3 32.3L152.7 2.9c-6.9-6.8-16.2-9-20.7-4.7l-77 51h119.2l6 .1c2.6.1 5.5.6 8.6 1.4l-6.5-18.4z"/></svg>