<svg viewBox="0 0 128 128"><path d="M76.8 69a27 27 0 002-1.8c-1.7.5-3.4.5-5.1.3-2 0 .4 1 3 1.5zm8-4.2a13 13 0 002.3-5.5c-.2 1.4-1 2.6-1.7 3.8-3.8 2.4-.3-1.4 0-2.9-4 5.2-.5 3.1-.7 4.6zm4-10.6c.2-3.7-.8-2.5-1-1.1.3.2.6 2.6 1 1zM65.9 3.7c1.1.2 2.4.4 2.2.6 1.2-.2 1.5-.5-2.2-.6zm2.2.7h-.8zm-2.8 76.3a24 24 0 01-7.9-6c1.2 1.7 2.4 3.4 4 4.7-2.7-1-6.4-6.7-7.5-7C58.7 81 73.4 87.6 81 84.4c-3.5.1-8 0-12-1.4-1.6-.8-3.6-2.4-3.6-2.9 0 .2-.2.4-.1.7zm.1-.8v.1zm44-33.6c.1-1.8.6-1 .8-1.4-.4-.2-1.4-1.7-2-4.4.5-.7 1.2 1.7 1.8 1.8-.4-2.2-1-4-1-5.6-1.8-3.6-.7.5-2-1.5-1.9-5.7 1.5-1.4 1.7-4 2.7 4 4.3 10.2 5 12.8-.5-3.1-1.4-6.2-2.5-9 .8.3-1.3-6.5 1-2a40.3 40.3 0 00-18.8-22.6c1 .9 2.1 2 1.7 2.1-3.9-2.3-3.2-2.5-3.8-3.4C88.2 7.8 88 9 86 9c-6-3.2-7.1-2.9-12.6-4.8l.2 1.1c-4-1.3-4.6.5-8.9 0-.2-.2 1.4-.7 2.7-1-3.8.6-3.6-.7-7.3.2L62.8 3c-3 .2-7.4 1.8-6 .3-5.2 2.3-14.2 5.5-19.2 10.3l-.2-1.1c-2.3 2.8-10.1 8.3-10.8 12H26c-1.2 2.1-2 4.4-3 6.5-1.5 2.7-2.2 1-2 1.5-3.1 6.3-4.7 11.6-6 16 1 1.4 0 8.5.4 14.2-1.6 28.2 19.8 55.6 43 61.9 3.5 1.2 8.6 1.1 13 1.3-5.2-1.5-5.8-.8-10.8-2.5-3.6-1.7-4.4-3.6-7-5.9l1 1.8c-4.9-1.7-2.8-2.2-6.9-3.4l1.1-1.4c-1.6-.2-4.3-2.8-5-4.2H42c-2-2.6-3.2-4.4-3.1-5.9l-.6 1c-.7-1.1-7.8-9.8-4.1-7.8-.7-.6-1.6-1-2.6-2.8l.8-.9c-1.8-2.3-3.3-5.2-3.2-6.2 1 1.3 1.6 1.5 2.2 1.7-4.5-11.2-4.7-.6-8.1-11.4h.7c-.6-.9-1-1.8-1.4-2.7l.4-3c-3.3-3.9-1-16-.5-22.8.3-2.7 2.7-5.6 4.5-10.2l-1-.1c2-3.7 12-14.9 16.6-14.3 2.3-2.8-.4 0-.8-.7 4.9-5.1 6.4-3.6 9.7-4.5 3.6-2.1-3 .8-1.3-.8 6.1-1.6 4.3-3.6 12.4-4.4.8.5-2 .7-2.7 1.4 5.2-2.6 16.3-2 23.5 1.4 8.4 3.9 17.9 15.5 18.2 26.4l.5.1c-.3 4.3.6 9.4-.9 14l1-2.2c.2 3.3-1 5-2 7.8l-1.7.8c-1.4 2.9.2 1.8-.9 4-2.3 2-6.9 6.4-8.3 6.8-1.1 0 .7-1.3 1-1.8-3.1 2-2.5 3.1-7.1 4.4l-.2-.3C71.6 82.7 55.7 72 56 57.5c-.2.9-.4.7-.7 1-.6-7.4 3.5-15 10.3-18 6.7-3.3 14.5-2 19.3 2.5-2.6-3.5-7.9-7.1-14-6.8-6.1.1-11.8 4-13.7 8.2-3.1 2-3.5 7.5-4.8 8.5-1.8 13.4 3.4 19.2 12.3 26 .7.5.8.8.7 1a30 30 0 0030.4-4.3c2.3-1.8 4.8-4.8 5.6-4.9-1.1 1.7.1.8-.7 2.3 2.3-3.7-1-1.5 2.4-6.4l1.2 1.7c-.4-3.1 3.8-6.8 3.4-11.7 1-1.5 1.1 1.6 0 5 1.5-3.8.4-4.4.8-7.5.4 1 1 2.2 1.2 3.3-1-3.7 1-6.2 1.5-8.3-.5-.2-1.5 1.6-1.7-2.8zM51 71.8c1.4 1.8 2.5 3.8 4.2 5.2-1.3-2.4-2.2-3.4-3.9-6.7l-.3 1.5zm3.5-1.6c-.7-.8-1.1-1.7-1.6-2.7.5 1.7 1.4 3.1 2.2 4.6l-.6-2zM107 70c2-3.8 3.3-8 3.9-12.2l-.3.8c-.6 4-1.8 7.8-3.6 11.4zm-35.8-68l-5.7.5.8.1c1.4-.5 3.4-.2 5-.6zm-53 28.7c1.5-3.2-.4-1.2-.5-2 .2 2.8-2.2 3.9.5 2zM15.4 38c-1.8 2.3-.8 2.8-1 4.3.6-2 .7-3.1 1-4.3z"/></svg>