<svg viewBox="0 0 128 128"><path d="M112.3 79.1c-.1-3.1-.6-6.1-1.4-9a51.2 51.2 0 00-11.5-20.6c-4.2-4.8-8.6-9.4-12.9-14.2L61.9 8.5a50.2 50.2 0 00-5.2-5.1C53.3.6 49.4.2 45.2 1.4c-1.2.4-2.3 1-3.4 1.6-.7.4-1.4 1-2 1.7a11.4 11.4 0 00-2.3 9.2c.3 2.8 1.7 5.1 3.5 7.1l10.7 11.7 3.1 3.4-.2.2-.8.4a74.2 74.2 0 00-20.1 13.6A45.6 45.6 0 0024 63.2c-3.7 7.8-4.7 16-4.1 24.4a36 36 0 002.4 10.3 44.4 44.4 0 009.3 14.5c8.4 9 18.8 13.9 31.1 14.6 2.4.1 4.8 0 7.2-.1 3.2-.2 6.3-.7 9.5-1.5a40 40 0 0021.8-13.9c8-9.3 11.6-20.2 11.1-32.4zm-17.9 5a25.4 25.4 0 01-6.6 9.6L70 110.5c-1.3 1.2-2.6 2.4-4 3.4-3.7 2.6-9.8.8-11.5-4a6 6 0 01.5-4.9c1.1-2.3 2.7-4.3 4.5-6.1l8.3-8.3.6-.6h-9.9l-7.3.1a147.5 147.5 0 01-12.8-.6 6.7 6.7 0 01-5.4-5.8c-.6-3.2.1-6.1 2.5-8.4a7.3 7.3 0 014.6-1.9l8.5-.1h19.8l-3-3.2-8.5-8.4a10.4 10.4 0 01-3-6.4 6 6 0 01.9-3.4c1.6-2.6 4-3.8 7-4 2.8-.2 5.1 1 7.1 2.9 3.2 3 6.2 6.2 9.3 9.3l9.7 9.8a34 34 0 015.5 7c.8 1.4 1.4 2.9 1.5 4.6-.1 1-.2 1.9-.5 2.6z"/></svg>