<svg viewBox="0 0 128 128"><path fill-rule="evenodd" d="M82.1 78.4l1.4-3.7 6.8-21.3c1-2.7 1.9-5.4 3.6-7.7 2.6-3.8 6.4-5.7 10.8-6.4 1.8-.2 3.6-.4 5.3-.4h16.8l-.3.8-6 10.5c-3.4 6-7 12-10.6 18a92.6 92.6 0 01-7.6 11 31 31 0 01-7.2 6.7c-2 1.2-4 2-6.3 2L64 87.7c-2.5 0-4.6-1-6.4-2.6-2.6-2.4-4-5.4-5.3-8.6-2.3-5.9-3.6-12-5-18L45 50l-.2-.6-.6.5c-3.2 3.2-6 6.8-8.6 10.5-.7 1-1 2.4-1.3 3.6L30 77.5a16 16 0 01-8.3 9.6c-2.4 1.2-5 1.8-7.7 1.9L2.1 89c-1 0-1 0-.7-1C3 81.8 5.2 75.6 7.9 69.6a87 87 0 0110.3-17.4c2.8-3.6 6-7 9.8-9.6a14.9 14.9 0 017.7-2.6H61c4.6-.1 7.8 1.8 10.3 5.4 1.5 2.3 2.6 4.8 3.6 7.4 1.8 5.2 3 10.5 4.3 15.9l2.4 9 .2.7h.2z" clip-rule="evenodd"/></svg>