<svg viewBox="0 0 128 128"><path d="M91 25c-6.3-4-12.3-5.6-18.3-9.5A85.5 85.5 0 0159.6 1.8c-.9 8.3-3.4 11.6-6.3 14-6 4.8-10 6.3-15.2 9.1A54.4 54.4 0 009.6 72.5c0 31 26 53.7 54.9 53.7s54-21 54-52.7S94.8 27.3 91 24.9zm.8 90a26 26 0 01-12.6 5c-6.5.6-15.2 1-20.5-3.9-.8-.8-.6-2 0-2.5s1-.8 1.8-.8.6 0 1 .2c2.4 2 6 3.5 13.6 3.5 7.7 0 13-2.2 15.5-4 1-.8 1.5 0 1.7.4 0 .5.3 1.2-.5 2zm-21-11c1.3-1.2 3.5-3.1 5.5-4 2-.8 3.1-.7 5-.7 2 0 4 .2 5.4 1.1 1.5 1 2.3 3.1 2.8 4.3s0 2-1 2.4c-.8.5-1 .3-1.8-1.3-.8-1.5-1.5-3.1-5.7-3.1s-5.5 1.4-7.6 3.1c-2 1.7-2.7 2.3-3.4 1.3-.8-1-.5-1.9.8-3zm31.8 1c-4.3-.4-13-13.8-18.5-14-7-.3-22 14.5-34 14.5-7.1 0-9.3-1.1-11.7-2.7-3.6-2.5-5.3-6.3-5.2-11.6C33.2 81.8 42 73 53 73c14-.1 23.7 13.9 30.8 13.8 6-.2 17.5-12 23.1-12 6 0 7.7 6.3 7.7 10s-1.2 10.5-4.1 14.7c-2.9 4.2-4.7 5.7-8 5.5z"/></svg>