<svg id="Electron" viewBox="0 0 128 128"><defs/><g id="original"><path d="M49 32.7c-14.3-2.7-25.6 0-30.2 8-3.4 5.8-2.4 13.6 2.4 21.9a1.5 1.5 0 002.5-1.5c-4.3-7.5-5.1-14.2-2.3-19 3.7-6.5 13.9-9 27.1-6.6a1.5 1.5 0 10.6-2.9zm-20.4 40a92.2 92.2 0 0022 17.2c20.9 12 43 15.3 54 7.8a1.5 1.5 0 00-1.6-2.4c-9.9 6.7-31 3.6-51-8a89.3 89.3 0 01-21.2-16.7 1.5 1.5 0 00-2.2 2z" class="cls-1"/><path d="M101 70.8c9.5-11.1 12.8-22.3 8.2-30.1-3.3-5.8-10.3-8.8-19.7-9a1.5 1.5 0 000 3c8.4.1 14.5 2.8 17.2 7.5 3.8 6.5.8 16.5-7.9 26.7a1.5 1.5 0 102.3 2zM77 33.2a92 92 0 00-26.3 10.3C29.1 56 15.1 74.3 17 87.5a1.5 1.5 0 003-.4c-1.8-11.8 11.5-29.1 32.1-41A89 89 0 0177.5 36a1.5 1.5 0 10-.6-2.9z" class="cls-1"/><path d="M42 96.8c5 13.7 13 22.2 22 22.2 6.6 0 12.7-4.5 17.5-12.4A1.5 1.5 0 1079 105c-4.3 7.1-9.5 11-15 11-7.5 0-14.6-7.5-19.2-20.2a1.5 1.5 0 00-2.7 1zM87 94a92.5 92.5 0 004-27.3c0-24.4-8.6-45.4-20.8-50.9a1.5 1.5 0 00-1.2 2.7c10.8 4.9 19 24.8 19 48.2a89.6 89.6 0 01-3.8 26.4 1.5 1.5 0 002.8.9zM114.7 92.7a7 7 0 10-7 7 7 7 0 007-7zm-3 0a4.1 4.1 0 11-4-4.1 4.1 4.1 0 014 4zM20.3 99.7a7 7 0 10-7-7 7 7 0 007 7zm0-3a4.1 4.1 0 114.1-4 4.1 4.1 0 01-4 4z" class="cls-1"/><path d="M64 23.1a7 7 0 10-7-7 7 7 0 007 7zm0-3a4.1 4.1 0 114.1-4 4.1 4.1 0 01-4 4zM65.1 71.8a5.1 5.1 0 113.9-6 5.1 5.1 0 01-3.9 6z" class="cls-1"/></g></svg>