<svg viewBox="0 0 128 128"><g><path d="M127.3 72.5a1.5 1.5 0 00-2.1-1.3s-3.1 2.4-5.8 2.1-1.9-6.3-1.9-6.3.6-5.5-1-6-3.6 1.4-3.6 1.4a20 20 0 00-3.6 6.2l-.3.1s.4-6 0-7.4c-.4-.7-3.3-.6-3.8.6s-2.8 9.7-3 13.3c0 0-4.5 3.8-8.5 4.5s-5-1.9-5-1.9 10.9-3 10.5-11.7-8.7-5.4-9.7-4.7-5.8 3.6-7.2 11.8l-.1 1.4a37.5 37.5 0 01-6.6 3.6s6.6-11-1.4-16c-3.6-2.2-6.5 2.4-6.5 2.4s10.8-12 8.4-22.2c-1.1-4.8-3.6-5.3-5.8-4.5a10 10 0 00-4.6 3.3 37.1 37.1 0 00-5.4 15.7c-1 9.4-2.5 20.8-2.5 20.8s-2 2-4 2.1-1-5.7-1-5.7 1.5-8.8 1.3-10.3-.2-2.3-2-2.8-3.6 1.7-3.6 1.7-5 7.6-5.5 8.8l-.3.5-.2-.3s3.5-10.5.1-10.6-5.6 3.7-5.6 3.7-3.9 6.5-4 7.2l-.3-.3s1.6-7.6 1.3-9.4a1.7 1.7 0 00-2-1.5s-2.3-.3-2.9 1.2a105.2 105.2 0 00-3 14s-5.6 4-9.2 4-3.3-2.4-3.3-2.4S27 73.1 23.4 64a6.7 6.7 0 00-6.3-3c-2.7 0-6 1.7-8.2 6.6a21.2 21.2 0 00-1.5 6.2s-2.4.5-3.7-.6-2 0-2 0-2.2 2.8 0 3.6A26.7 26.7 0 007.2 78a10.3 10.3 0 003.9 6c4 3 11.6-.2 11.6-.2l3.2-1.7s.1 2.9 2.4 3.3 3.2 0 7.2-9.7c2.3-5 2.5-4.7 2.5-4.7h.3s-1.8 9.4-1.1 12 3.7 2.2 3.7 2.2 1.6.3 3-4.4a70 70 0 013.8-9.8h.3s-1.1 9.7.6 12.8 6 1 6 1a30.7 30.7 0 003.6-2 12.5 12.5 0 008.9 2.6c11.5-2.3 15.6-5.3 15.6-5.3a9.5 9.5 0 008.1 5.5 13.5 13.5 0 0010.9-4s0 3 2.4 4 4-4.7 4-4.7l4.1-11.4h.4s.2 7.4 4.3 8.6 9.3-2.7 9.3-2.7a2.7 2.7 0 001-2.9zM13 73.5c.2-6.2 4.3-9 5.7-7.6s1 4.3-1.8 6.2-3.9 1.5-3.9 1.5zm53.9-24.4s3.8-9.9 4.7-5-8 19-8 19c.2-3.2 3.3-14 3.3-14zm4.5 27.3c-2.5 6.6-8.5 4-8.5 4s-.7-2.4 1.2-9 6.6-4 6.6-4 3.2 2.5.7 9zm16.8-2.8s-.6-2 1.5-6 4-1.9 4-1.9 1.8 2-.3 5a6.3 6.3 0 01-5.2 2.9z"/><text font-family="MyriadPro-Regular,Myriad Pro" font-size="8.5" transform="translate(108.2 88.3)">®</text></g></svg>