<svg viewBox="0 0 128 128"><path d="M126.7 98.4c-4.6 1.2-7.4 0-10-3.7-5.6-8.5-11.9-16.6-18-25l-2.5-3.4C89 76 81.8 85.2 75.2 94.8c-2.5 3.4-5 4.9-9.5 3.7l27-36.2-25.1-32.6c4.3-.8 7.3-.4 10 3.5 5.8 8.5 12.2 16.6 18.6 25.2 6.5-8.6 12.8-16.7 18.8-25.1 2.4-3.5 5-4.8 9.3-3.5l-9.7 12.9c-4.3 5.7-8.6 11.5-13.1 17.1-1.7 2-1.4 3.3 0 5.2l25.2 33.4zM1.3 61.7c.8-3.6 1.2-7.3 2.2-10.8 6-21.4 30.6-30.3 47.5-17C61 41.6 63.4 52.6 63 65H7.1c-.8 22.2 15.2 35.6 35.5 28.8 7.2-2.4 11.4-8 13.5-15 1-3.5 2.8-4 6.1-3-1.7 8.7-5.5 16-13.5 20.6a32.7 32.7 0 01-38.1-5 34.5 34.5 0 01-8.6-20c-.1-1.2-.5-2.4-.7-3.6v-6zm5.9-1.5h50.4c-.3-16-10.3-27.4-24-27.5-15-.1-25.8 11-26.4 27.5z"/></svg>