<svg viewBox="0 0 128 128"><path fill-rule="evenodd" d="M7.3 51.7L4 54.3c-.5-2 0-3.6.4-5.3 1-3.3 2.9-6.3 5-9.2.7-1 1.2-2 1.2-3.4 0-5 .4-9.8 2.1-14.5.9-2.3 2-4.6 4-6.5.8 3.8 1.5 7.5 3.6 10.3l4.5-4A55 55 0 0155.4 7c14.6-2.1 28.2 1 40.5 9.4 1.2.8 2.5 1.3 3.8 2a27.1 27.1 0 0113 13l1.2 3.1h.3l-1.6-9.5a53 53 0 019 29.1c1.1-1.6 1.1-3.6 1.8-5.4l.6 4c.6 5.4-.5 10.6-1.5 15.9a70.4 70.4 0 01-15.8 33 53.6 53.6 0 01-35.1 19.7 58.4 58.4 0 01-52.7-19.7 54 54 0 01-13.3-26C4.1 68 4.5 60.5 7 53.3l.4-1.1v-.5zm94.6-9.9l.4-.3 4.5 3.4c0-1 0-2.1-.2-3.2A18 18 0 0099.5 31c-4.4-3.6-9.4-6.1-14.6-8.3l-1.5-.7v-.5l7.4-.4c-2.7-4.5-7.4-5.7-12-7l.5-.3c-9.5-3-19-3.2-28.5-.8-9 2.3-22.2 10.4-24.3 14.7l.6-.1a19 19 0 0110 0c.4 0 1-.2 1.4-.5 3.1-2.8 6.6-5 10.7-6.3l4-1c-.2.5-.4.6-.6.8-4.2 2.9-7 6.7-7.9 11.9 0 .2 0 .7.2.8 1.9 1.8 3.7 3.6 5.7 5.2.7.6 1.6 1 2.5 1.1 1.7.3 3.5.3 5.2.4 1 .1 1.8.9 1.4 1.7a7 7 0 01-2.5 3.4c-2.5 1.6-4.7 3.5-7.1 5.3-.6.4-.6.8-.3 1.5a25 25 0 011.5 3.7c.4 1.6.6 3.3.2 5l-3.8-.8-3.8-.7c-1.5-.3-2.8.3-3.6 1.5-1 1.5-1 3 0 4.3a32 32 0 007 6.7 9.4 9.4 0 007.4 1.8c1.8-.4 3.7-1.2 5.3-2 5.2-2.7 11-1.8 14.5 2.4.6.7 1 1.6.4 2.5-.5.8-1.4 1-2.3.8-1-.3-2-.1-3 .5-2.4 1.6-4.9 3.4-7.5 4.7-4.2 2.2-8.8 3-13.5 2.8H47l.4.5c3.4 3.3 7.3 5.9 11.9 7.4 5 1.6 10 2.3 15.2.9a29.4 29.4 0 0014.3-9.6l4.5-5.6.3.1-1.3 9c7.2-8.7 7.4-18.7 6.4-29.3 2 2.3 2.7 5 3.9 7.7a46.7 46.7 0 00-.7-24.3z" clip-rule="evenodd"/></svg>