<svg viewBox="0 0 128 128"><path fill-rule="evenodd" d="M116.2 64.1l1.4.5.1-.2c-.8-1-1.6-2.2-3-2.4l-3.2-.1c0-.5-.2-.7-.7-.5l-1.4.5c-1.2.5-2.4 1-3.5 1.3h-.7v-.6l.7-2.4.2-.8 1 1c.3-2.8-.3-5.2-1.7-7.5h1.4a7 7 0 00-2.9-3.4c-1.7-1-3.6-1-5.5-1h-1c1.5 2.3 2 6.3 1.2 7.6l-.5-.8c-1 1.7-2 3.6-3.2 5.3a11.8 11.8 0 01-4.7 4l.2-1.1-.7.1c-.5.1-1 .3-1.5.2-1-.1-1.8-.4-2.7-.6l-1.9-.6v-.1c-.8-.5-.7-1.1-.3-1.8l.6-1.4L85 56c.5-.5 1-.9 1.3-1.4l1-1.9c.2-.4.5-.8 1-1 .2 0 .5-.3.6-.6.3-.5.4-1 .6-1.6.1-.4 0-.7-.5-.9l-.5-.1.1-.6 4-8.3c1.4-2.9 2.9-5.6 4.4-8.4l1.1-1.7 2 .1c3 0 5.7-.7 7.9-2.8a20 20 0 005-7.9l.1-.5-.4.3a13 13 0 01-9.7 2.5l.1-.4 3.8-5 1.5-1.9-.8-.3-3.6-1.1c-.5-.1-.6-.4-.4-.9l1.5-3.2.6-1c-3-.6-5.8-.7-8.8-.3V5.3c-2 .2-2.4.3-3.5.6l-3.3.9-.1-.1 2.5-4.4c-1.3.2-2.5.2-3.7.5l-7.5 1.4L78 5V3l-4.5 1.7L74.6 2l.1-.6-.2-.1c-.8 0-1.5.2-2.2.3-3.8.8-7.4 2-10.7 3.9l-1.4.7-.2-4c-2 .7-4 1.6-5.4 3.4l-.8-3.1v-.4l-.1.1-.5.6a14.1 14.1 0 00-2.6 7.6l-1.3-2.9-1.8 8.6-3.1-3.9a36 36 0 00-2 8.8l-2.2-2.4A62.4 62.4 0 0037 31.8c-1.1-.6-1.8-1.5-2.2-2.6-.7-1.5-.8-3-.8-4.7v-.7h-.2c-2.1 7.4-2.7 15-2.4 22.7l-2.6-5h-.2l-.5 5.9c-.1 1.2 0 1-1 1.2-3.7 1-7.2 2.3-10.2 4.5l-.6.4.2.2 3.1 1.1-3.9 4.4a17.2 17.2 0 00-3 5l2-.7 1.6-.5c-1.1 1-2 2.3-2.6 3.6a45.2 45.2 0 00-3.1 25.1c0 .7.2 1.2.3 1.8h.3l1.5-3.5c.7 3.8.8 7.6.7 11.4l.2.1 1.4-1.6.3.7c.7 2.6 1 5.2.7 7.9 0 1.3 0 2.7.3 4 .7 3.3 2.4 6.1 4.6 8.6.5.5 1 .8 1.6 1.2.3.2.5.2.4-.2l1 .4 1.8.5v-.1l-1-2.3-.1-.1v.1h.3c1 1.1 2.4 1.7 3.7 2.3.4.8 1 1.5 1.7 2.1l1.2-.8.4.5c1 1.4 2.4 2 4 2h3.3c3.7-.2 7.5-.2 11.2-.3l7.7-.3 3.7-.3c-2-5-6-7.7-10.4-9.6l3.8-1c5.5 3 11.6 5 16.6 9h.2l-.4-4.6 1 .7 3.6 2.7.2.1.1.2c1.8 1.5 3.8 2.7 6.4 2.7h10.6c.3 0 .7-.2.8-.4l2.3-4 5.3-10 .5-1c-.8.2-1.5.6-2.2.9l-2.2 1.1v.1l.2-.8 4.9-7.9c1.7-2.5 3.6-5 4.6-7.9l1.3-4h-.1l-2.3 1.5c-1 .6-2 1-3 1.4v.1l.2-.6.8-3a1 1 0 00-.6.1L97.7 95c-3 1.3-5.9 3-8.4 5l-2.6 2.2-.2-.1-2.5-2.3-1.6-1.4c1.9-2.4 3.3-5 4.2-7.8.6-1.9 1-3.8 1.4-5.7l.6-.1a11 11 0 014.4-.9c.7 0 1.3.3 2 .4l-.5-1.1h.4c1.1.6 2.2 1.2 3.4 1.6 2 .7 4 1.1 6 1 .3 0 .5 0 .3-.4l.6.2c1.5.6 3.1.8 4.7.7a4 4 0 003.4-2.4l.5.2c.4-1.1 0-2.2-.2-3.3v-.6L115 79l.3.6c.6-1 .6-2.2.7-3.5l.6.7h.3c-.2-1-.2-2-.7-2.9-.5-1.2-.6-2.1.2-3.2.5-.6.7-1.5 1-2.4l.2.3.3.2c0-1.7-.9-3.1-1.7-4.6z" clip-rule="evenodd"/></svg>