<svg viewBox="0 0 128 128"><path d="M36.4 54.4a3 3 0 01-2.7-1.6l-.8-1.6-.3 1.8-.1.8c0 3.3 2.6 5.9 5.9 5.9 3.3 0 5.9-2.6 5.9-5.9a6 6 0 00-5.6-5.9l-1.7-.1 1.4 1.1c.7.6 1.2 1.5 1.2 2.4a3.3 3.3 0 01-3.2 3.1zM35.9 41c5 0 9.3 3.4 10.6 7.9.8-2.2 2.1-4.1 3.8-5.6C34 42.3 27 27.8 27 27.8l-.4 18.3a11 11 0 019.3-5.1zm25.8 21c3.7 0 6.7-3 6.7-6.7 0-3.6-2.8-6.6-6.4-6.7l-1.5-.1 1.2.9c.9.7 1.4 1.8 1.4 3 0 2.1-1.7 3.8-3.8 3.8a4 4 0 01-3.4-2l-.7-1.3-.2 1.5-.1.9a7 7 0 006.8 6.7zm64.3 47.2l-1.2-4.1c-2.5-9-4.4-16-12.3-15.3-1.2.1-2.2.5-3.1 1.1l-7.9-5h-.3l-.6-1.9-1.2.8c-2.5-1.6-5.3-3-8.1-4.3 9-10.7 13.9-29.6 10.5-60.5-.3-2.7-1.8-3.1-2.8-.2-.8 2.5-6.1 18.3-33.4 22.7A13 13 0 1146 56.4a11 11 0 01-20.4 0l-.3.5-.4-.7c-5.4-7.4-14-10.4-19.3-6.6C.3 53.5.4 62.6 5.8 70c4.5 6.2 11.2 9.3 16.4 7.9 15.1 11.2 43 20.9 61.7 9 3.7 2.1 7.9 4.1 11.8 5.5v.1l.4 1.2 1.6-.6.2.2 8.8 3.2a8.2 8.2 0 005.4 7.3c6.7 2.6 13.1 5.8 13.1 5.9l1 .5-.2-1zM5 57.1c0-3.2 2.2-5.8 4.8-5.8 2.7 0 4.8 2.6 4.8 5.8 0 3.2-2.2 5.8-4.8 5.8-2.7 0-4.8-2.6-4.8-5.8zm36.6 18.6c18.3 3.7 27.7.3 33.1-4-1.4-1.9-3.9-3.9-3.9-3.9s6.4 1.8 8.7 4.7c1 1.3 1.3 2.4 1.2 3.5l-6.1-2c-2-.9-3.9-.3-4.4 1.2-.4 1.1-.1 2.4.9 3.4-6.3 2.9-16.6 1.7-29.5-2.9z"/></svg>