<svg viewBox="0 0 128 128"><g><path fill-rule="evenodd" d="M64 5.1a60.4 60.4 0 00-19 117.7c3 .6 4-1.3 4-3v-11.2c-16.8 3.7-20.4-7-20.4-7-2.7-7-6.7-9-6.7-9-5.5-3.7.4-3.6.4-3.6 6 .4 9.3 6.2 9.3 6.2 5.4 9.3 14.1 6.6 17.5 5 .6-3.8 2.2-6.5 3.9-8-13.4-1.5-27.5-6.7-27.5-29.9 0-6.6 2.3-12 6.2-16.2-.6-1.5-2.7-7.6.6-16 0 0 5-1.6 16.6 6.2a57.9 57.9 0 0130.2 0c11.6-7.8 16.6-6.2 16.6-6.2 3.3 8.4 1.2 14.5.6 16 3.9 4.3 6.2 9.6 6.2 16.2 0 23.2-14.1 28.3-27.5 29.8 2.1 2 4 5.6 4 11.2V120c0 1.6 1 3.5 4.1 2.9A60.4 60.4 0 0064 5z" clip-rule="evenodd"/><path d="M26.5 91.8c-.1.3-.6.4-1 .2-.5-.2-.7-.6-.6-1 .1-.2.6-.3 1-.1.5.2.7.6.6 1zM28.9 94.5c-.3.3-.8.2-1.2-.2-.4-.5-.5-1-.2-1.3.3-.3.9-.1 1.3.3s.4 1 .1 1.2zM31.4 98c-.5.3-1 0-1.4-.5-.4-.5-.4-1.2 0-1.4.3-.3 1 0 1.3.5.4.5.4 1.1 0 1.4zm3.2 3.4c-.4.3-1 .2-1.6-.3-.5-.4-.7-1.1-.3-1.5.3-.4 1-.3 1.5.2.6.5.7 1.2.4 1.6zm4.5 2c-.2.4-.9.6-1.5.4-.7-.2-1.2-.7-1-1.2.1-.5.8-.7 1.5-.5.7.2 1.1.7 1 1.2zm5 .3c0 .5-.6.9-1.4.9-.7 0-1.3-.4-1.3-.9s.6-.9 1.3-.9c.7 0 1.3.4 1.3.9zm4.5-.8c.1.5-.4 1-1.1 1.1-.7.2-1.4-.2-1.5-.6 0-.5.5-1 1.2-1.2.7 0 1.3.2 1.4.7zm0 0"/></g></svg>