<svg viewBox="0 0 207 207"><g fill-rule="evenodd"><path d="M16.3 88.4c-.4 0-.5-.2-.3-.5l2.1-2.7c.2-.3.7-.5 1.1-.5H55c.4 0 .5.3.3.6l-1.7 2.6c-.2.3-.7.6-1 .6zM1.2 97.6c-.4 0-.5-.2-.3-.5L3 94.4c.2-.3.7-.5 1.1-.5h45.6c.4 0 .6.3.5.6l-.8 2.4c0 .4-.5.6-.9.6zM25.4 106.8c-.4 0-.5-.3-.3-.6l1.4-2.5c.2-.3.6-.6 1-.6h20c.4 0 .6.3.6.7l-.2 2.4c0 .4-.4.7-.7.7zM129.2 86.6L112.4 91c-1.5.4-1.6.5-2.9-1a13.4 13.4 0 00-4.7-3.8 17.4 17.4 0 00-18 1.5 21.3 21.3 0 00-10.3 19c.1 8 5.6 14.6 13.5 15.7 6.8.9 12.5-1.5 17-6.6 1-1.1 1.7-2.3 2.7-3.7H90.4c-2 0-2.6-1.3-1.9-3 1.3-3.1 3.7-8.3 5.1-11 .3-.5 1-1.5 2.5-1.5h36.4c-.2 2.7-.2 5.4-.6 8a42.6 42.6 0 01-8.2 19.7 41.7 41.7 0 01-28.5 17 35.4 35.4 0 01-26.9-6.6 31.4 31.4 0 01-12.7-22.2 39.2 39.2 0 018.5-29.3 44.4 44.4 0 0128-17.3c9.4-1.7 18.4-.6 26.5 4.9 5.3 3.5 9.1 8.3 11.6 14 .6 1 .2 1.5-1 1.8z"/><path fill-rule="nonzero" d="M162.3 141.9A37.5 37.5 0 01138 133a31.4 31.4 0 01-10.8-19.3 38.2 38.2 0 018.1-30.2 42 42 0 0128-16.7 37 37 0 0128.5 5 31.1 31.1 0 0114.1 22.4 38.6 38.6 0 01-11.5 33.9 45.8 45.8 0 01-24 12.8c-2.7.5-5.4.6-8 .9zm23.8-40.4c0-1.3 0-2.3-.3-3.3a16.5 16.5 0 00-20.4-13.3c-9.3 2-15.3 8-17.5 17.4-1.8 7.8 2 15.7 9.2 18.9 5.5 2.4 11 2 16.3-.6a21.9 21.9 0 0012.7-19.1z"/></g></svg>