<svg viewBox="0 0 128 128"><path d="M99.5 112.5H85.3c-.5 0-.8-.2-1.1-.5-3.2-4-6.7-7.7-10.9-10.6a22 22 0 00-6.8-3.5c-2-.6-4.1-.9-6.2-.4-2.1.5-3.9 1.7-5.4 3.2a19.5 19.5 0 00-4.2 6.7l-1.6 4.5-.2.6H37.5a20 20 0 00-2.3-7.7 11 11 0 00-2.8-3.6 6.8 6.8 0 00-4.5-1.7c-1.3 0-2.4.5-3.5 1.2-1.5 1-2.7 2.3-3.6 3.8a26.5 26.5 0 00-2.9 7.2l-.2.8H2.8l-.3-2.2a111 111 0 01-.7-14.1 75 75 0 012-16.3C5 75 6.7 70.4 9.3 66.2A30 30 0 0124 53.9l.5-.2h.2l.3.6c1.8 4 3.7 7.9 6 11.5 1.4 2.3 3.4 4 5.9 4.8 2.7.9 5.3.6 7.9-.5a21 21 0 006-4.2c2.1-2 3.8-4.2 5.5-6.6l.1-.3-.7.6a36.8 36.8 0 01-8.3 6.4c-1.5.9-3.2 1.6-4.9 1.9-2.5.5-4.8.2-6.8-1.6-.8-.7-1.4-1.5-2-2.3a138 138 0 01-8-14.6c-.5-1-.9-2-1-3.2-.2-1.7.3-3.2 1.5-4.5.9-.9 1.9-1.6 3.1-2.2 2.2-1.1 4.5-1.9 6.8-2.7a61.5 61.5 0 0123-2.6c9 .9 17 4.2 24.3 9.5 2.5 1.8 5.1 3.3 8.1 4.2a18.5 18.5 0 0023.6-12.8c.6-2.3.8-4.6-.1-6.8a10.7 10.7 0 00-15.4-6l-1.5.7c-1.2.4-2 .1-2.6-1-.8-1.4-1.4-2.8-2.1-4.3-.3-.6-.2-1.1.1-1.6.3-.7.8-1.2 1.4-1.7 1.5-1.2 3.3-2 5.3-2.4 4.9-1.1 9.5-.4 13.9 1.8a19 19 0 018.2 7.7 29.1 29.1 0 013.9 18.9c-.6 5-2 9.7-4 14.3a102 102 0 01-9.3 17.2l-5.5 7.6c-1.9 2.7-3.8 5.4-5.2 8.4-1.9 3.9-3 7.9-3.4 12.2-.3 3.7-.1 7.3.5 11l.2 1.4zm-8.2-51.4c.3 2.4-.5 4-2.7 4.9a4 4 0 01-4.6-1.3c-1.6-2.1-1.1-4 .7-5.8l-5.3-1.7a9 9 0 00-.5 3.7c.2 2.4 1.1 4.4 3.1 5.7 2.1 1.4 4.5 2 7 1.5a9 9 0 006-4.2c.3-.4.5-.8.5-1.4l-4.2-1.4z"/></svg>