<svg viewBox="0 0 128 128"><path fill-rule="evenodd" d="M99.3 67.2c2.7-1.5 5.5-3 7.8-5 4.2-3.8 3.8-9-.5-12.5-.8-.5-1.7-1.1-2-1.9-.8-3.4-1.6-6.8.5-10.1.8-1.3 1.5-2.8 1.9-4.2 1.2-4.1-.8-7.5-4.9-8.7-.7-.2-1.5-.2-2.2-.5-.4-.2-1-.5-1-1-.8-4-.3-5.8 3-7.6 1.4-.9 3.2-1.3 4.9-1.9l2-.5a16.2 16.2 0 00-17.3-6C86.2 8.8 82.4 12.2 79 16c-.4.5-1.1 1-1.7 1-1.6 0-2-1.2-1.7-2.4l2-7.3c-3.1 0-5.4 1.8-8 3.7-.3-1.7-.7-3-.8-4.4-.1-1.4.1-2.9.2-4.4-4.6 1.6-8.2 4.3-9.2 9.5h-.6L58 5.2l-1.7 1a13.8 13.8 0 00-4.9 9.5c0 .4-.3 1.2-.6 1.2-.5 0-1-.2-1.4-.6-.8-.7-1.4-1.5-2.1-2.3-4.4-4.6-9.5-7.5-16-7.1-4.9.3-9.1 2.1-12 6.2 2.5.9 5 1.5 7.1 2.7 2.8 1.4 3.4 3.5 3.1 6.5-.2 1.6-1 2-2.4 2.2-5 .8-7.3 4.7-5.9 9.5.3 1 .6 2 1.3 2.8 2.3 2.8 1.8 6 1.5 9.2a4.8 4.8 0 01-2.1 3.5c-5 3.9-5.2 9.3-.2 13.3 2 1.7 4.4 3 6.7 4.2 3.2 1.7 4.5 4.3 4.5 7.7 0 2.8-.2 5.5-.3 8.3-.1 2-.4 4-.6 5.9l-.6.1c-1.1-1.5-2.4-3-3.4-4.7-.9-1.7-1.5-3.5-2.2-5.3-7.4 6-7.6 23.6 4.3 29 1.6.8 2.7 1.8 3.6 3.4 3.1 5.3 7.8 8.5 14 9.6.6 0 1.2.4 1.8.7a28 28 0 0029.2 0c.4-.3 1-.6 1.6-.7a20 20 0 0015-10.8c.2-.6.7-1.2 1.3-1.4 7-2.9 10.4-8.3 10.9-15.7.3-5.5-1.1-10.3-5.3-14.4a16 16 0 01-6.3 10.2c-.1-5.1-.5-10.3-.4-15.5 0-2.7 1.4-4.7 4-6.2zM32.1 15.8c3.1 0 7.3 3.5 7 6.4-.1 1-1.5 2.5-2.6 2.9-1 .3-2.8-.1-3-1.9-.3-.8-.4-1.7-.5-2.5l-.9-4.9zm7.8 91.3c-1.7-.3-3.4-.5-5-.9a13.7 13.7 0 01-10.8-13.9c0-2 .4-4 .7-6.1h.3l.1.3c3.5 7.4 10.1 9.4 17.4 10l-3.4 6.4.7 4.2zM39 51.8v-4.6c3 2.3 7.2 4.5 9.9 7.6l.7.8.3.6C46.4 59 39 57.2 39 51.8zm19.4 54.3l-2.3 3.2c-1.8 2.3-4.4 2.5-6.6.4l-2.1-2-.4-.4c-.8-4-.7-4 3.5-4h5.9c2.2 0 2.6.7 2 2.8zm22.6.8l-.4.7-1.6 1.8c-2.5 2.5-5.3 2.3-7.4-.5l-2-2.8c-.6-2.1-.1-2.8 2-2.9h7c3 0 3.5.8 2.4 3.7zm-3-50.7l1.1-1.4a36 36 0 019.9-7.6V52c0 5.2-7.3 7-11 4.3zM102.4 87l.5-1c1.6 4.9 1.7 9.8-1.2 14.2-3.1 4.8-8 6.5-13.5 6.8l.5-4.1-3.3-6.3c7-.8 13.5-2.4 17-9.6zm-7.7-64.3c-.2 1-.5 1.9-1.9 2.3-2 .7-2.7-.7-3.5-1.8-.4-.5-.2-1.7 0-2.4 1-2.4 2.6-4.2 5.2-4.9l1.3-.2-1.1 7z" clip-rule="evenodd"/></svg>