<svg viewBox="0 0 128 128"><path fill-rule="evenodd" d="M37 35.5l2.6 27.8c1.5-2.5 2.5-5 4-6.9 1.6-1.8 3.4-3.5 5.4-4.7 2.7-1.5 6.1 0 7 2.6.2.8-.3 1.7-.5 2.6-.7-.3-1.5-.5-2-1-1.7-2.3-2.8-2.5-4.8-.6-3.7 3.6-5.7 8-6.5 13-.2 1 .4 2.1.7 3.2 1-.4 2.2-.5 3-1.1 2.6-2 4.3-4.7 5.2-7.9.2-.7 1.3-1.1 2-1.7.2.7 1 1.4.8 2l-4.5 14.4c-.2.5-1 .7-1.6 1-.2-.6-.7-1.2-.6-1.8.1-1.4.6-2.7.9-4l-7.3 3.4 1.4 15c.3 4 1 5 4.9 5.7 4.5.9 9.1 1.4 13.8 1.8 6.8.5 13.6-.2 20.2-2 2.5-.6 3.5-2.2 3.6-4.7l.8-6.6L87 71.6c-1.7 1-3 2.2-4.5 2.7-1.1.4-2.5-.1-3.8-.3.2-1.1.2-2.5.8-3.5.9-1.6 2.2-3 3.3-4.5l-.5-.6c-.8.5-1.8.8-2.4 1.5a22 22 0 00-3.1 4.5c-1.3 2.8-2.3 5.7-3.5 8.5-.5 1.2-1 3-2.7 2.3-1.8-.7-.6-2.3-.1-3.5l2.2-5-5.3.7c-.7 0-1.6-.4-2.3-.1-2 1-3.3.5-3.7-1.7-1 .6-1.8 1.4-2.7 1.6-1.2.3-2.7.5-3.6 0-.6-.5-.9-2.3-.6-3.3.4-2 1.3-4 2-5.8.6-1.2 1-3.1 2.8-2.3 1.6.8.1 2.2-.3 3.3l-1.8 5.1 1 .6c.9-.8 2-1.5 2.7-2.4 1-1.6 1.7-3.5 2.7-5.1.4-.7 1.3-1 2-1.6 0 .9.4 1.7.3 2.6-.1.8-.7 1.6-1 2.4l-1.2 4c2 0 3-.8 3.5-2.3 1.8-4.8 3.7-9.6 5.7-14.3.3-.8 1.5-1.3 2.3-1.9 0 1 .5 2 .2 2.9l-5.2 13c-.3.7-.4 1.5-.6 2.2 3-1.3 5.6-2.9 6.5-6.1.3-.8 1.2-1.4 1.8-2l1.4 1.4 1.3-1c1.5-1 3-1.8 4.6-.4 1.6 1.6.4 3-.4 4.4l-3.1 4c2.3-1.4 5.5-2.1 5.9-5.3 1-7.9 2-15.8 2.8-23.7l.7-7a111 111 0 01-54.1-.1zm7.8 61.3c.9 2.3 2.2 4.6 2.5 7 .8 5.2 1 10.4 1.5 15.6 0 .7.5 1.8 1.2 2.1 9 4.9 18 5.7 27.2.4 1.3-.8 1.6-1.8 1.8-3.3.8-7.2-1-14.8 3.5-21.6a72.3 72.3 0 01-37.7-.2zm31-60c4.3-.5 8.6-1.5 13-2.3.8-.2 1.5-.8 2.3-1.2a5 5 0 00-2.8-1.4l-13.6-1.6c-.7 0-2-.9-1.9-1 1.3-4 1.3-8.5 4.3-11.9L88.5 4.8c-2.8-3-2.9-3-5.4-.4-1.5 1.5-2.8 3.1-4.4 4.5-5.8 5-9.9 11-10.7 18.9-.2 1.8-1.2 2.4-3 2.5-6.3 0-12.6.2-18.8.6-3.1.2-6.2 1-9.2 1.6v1.1c1.9.6 3.8 1.4 5.7 1.8 11 2 22 2.4 33 1.3zM72.3 34c-2.5 2-4.5 2-6.5 0h6.5z" clip-rule="evenodd"/></svg>