<svg viewBox="0 0 128 128"><path d="M14.6 62.7a7.1 7.1 0 002.3-3.5c.5-2 .4-4-2.3-5.3C7.8 50.5 3.5 56.6 2.8 58s-1.8 3.7-1 8.8 3.2 10 11 11.8a32.9 32.9 0 0022-2.6c6.8-3.3 19.7-9 23-9.6a28.1 28.1 0 016.4-.8v-7.8a18 18 0 00-17.4-9.2c-12.4 1-17.3 7.4-20.3 10.1s-8.6 9.2-12.4 8-4.8-5.7-3.5-7.1 2.4-1.2 3.2 0a6.2 6.2 0 01.8 3z"/><path d="M113.4 62.7a7.1 7.1 0 01-2.3-3.5c-.5-2-.4-4 2.3-5.3 6.8-3.4 11.1 2.7 11.8 4.1s1.8 3.7 1 8.8-3.2 10-11 11.8a32.9 32.9 0 01-22-2.6c-6.8-3.3-19.7-9-23-9.6a28.1 28.1 0 00-6.4-.8v-7.8a18 18 0 0117.4-9.2c12.4 1 17.3 7.4 20.3 10s8.6 9.3 12.4 8 4.8-5.7 3.5-7.1-2.4-1.2-3.2 0a6.2 6.2 0 00-.8 3.2z"/></svg>