<svg viewBox="0 0 128 128"><path d="M126.1 66.8c0-9.8-2.5-19-7-27 19-43-20.3-36.7-22.5-36.2A100 100 0 0073.5 11h-3.2a55.8 55.8 0 00-54.4 43.2c14-15.6 23.7-22 29.6-24.5l-2.7 2.5-1 .9-1.7 1.7-1 1-1.5 1.6-1.1 1.1-1.4 1.5-1 1.2a172.4 172.4 0 00-6.7 8l-1 1.3-1 1.4-.8 1a197.4 197.4 0 00-7.4 11v.1l-1.4 2.2A182 182 0 005 87.8c-15.9 56.8 33.7 32.8 40.6 29.2 7.4 3.7 15.8 6 24.7 6 24.3 0 45-15.9 52.6-36.9H93.6c-4.4 7-12.7 12-22.3 12-14 0-25.5-11-25.5-24h79.9c.3-2 .4-4.7.4-7.2zm-112.6 50c-3.9-4-4.6-13.8 4-31.6A56 56 0 0042 114.9c-5.6 3-20.5 10-28.4 2zM45.7 59c.4-13 11.6-23 25.2-23 13.7 0 24.8 10 25.2 23H45.7zm44.8-44.2c5.1-2.5 18-7.8 25.2-2.9 4.8 3.3 8.6 8.4 2 25.5a56 56 0 00-27.2-22.6z"/></svg>