<svg viewBox="0 0 128 128"><path fill-rule="evenodd" d="M48 69h15.3c-2.6-9-5.2-17.3-7.8-25.8C53 51.7 50.5 60 48 69zM124 1H3C.7 1 1 1.5 1 3.6V125c0 2-.3 2 1.7 2h121.6c2 0 2.7 0 2.7-2V3.7c0-2.2-.7-2.7-2.9-2.7zM77.3 96h-5c-1 0-1.5-.4-1.8-1.4L66 79.8c-.3-1-.8-1.4-1.8-1.4H47.5c-1.2 0-1.7.3-2 1.5L41 94.5c-.3 1.1-.8 1.5-2 1.4H29l2.7-8.7 16.6-51.6c.3-1.2.9-1.5 2.1-1.5H62c.7 0 1.2 0 1.5.9L83 95.4v.6h-5.7zM98 96H86V51h12v45zm-6.3-51c-3.7 0-6.3-2.6-6.4-6.1 0-3.6 2.7-6.2 6.4-6.2 3.8 0 6.4 2.5 6.4 6.2 0 3.5-2.6 6-6.4 6z" clip-rule="evenodd"/></svg>