<svg id="Layer_1" data-name="Layer 1" viewBox="0 0 128 128"><defs/><g id="plain"><path d="M68.5 52.7H59l-2.5-3.3V23.7h14.4v25.7l-2.4 3.3zM55.7 55.1l-2.9 9-3.9 1.4-24.5-8 4.5-13.6 24.4 7.9 2.4 3.3zM54 67.7l7.7 5.6.1 4.1-15.1 20.9-11.6-8.5L50.2 69l3.8-1.3zM65.8 73.3l7.6-5.5 4 1.1 15.1 20.9-11.6 8.4-15.1-20.8v-4.1zM74.8 64.2l-2.9-9 2.4-3.4 24.4-7.9 4.5 13.6-24.5 8-3.9-1.3z" class="cls-1"/><path d="M64 1.4A62.6 62.6 0 10126.6 64 62.6 62.6 0 0064 1.4zM63.7 113a49.5 49.5 0 1149.5-49.5A49.5 49.5 0 0163.7 113z" class="cls-1"/><path d="M61.6 83h3.9v19.5h-3.9z" class="cls-1"/><path d="M90.8 62.4h3.9v19.5h-3.9z" class="cls-1" transform="rotate(-72 92.7 72.1)"/><path d="M80 28.3h3.9v19.5H80z" class="cls-1" transform="rotate(-144 82 38)"/><path d="M44.1 28.3H48v19.5h-3.9z" class="cls-1" transform="rotate(144 46 38)"/><path d="M32.8 62.4h3.9v19.5h-3.9z" class="cls-1" transform="rotate(72 34.7 72.1)"/></g></svg>