<svg viewBox="0 0 128 128"><path d="M47.6 98.1c-19.2 5.4 11.7 16.5 36.1 6-4-1.6-6.8-3.4-6.8-3.4-11 2.1-16 2.3-25.9 1.1-8.1-.9-3.4-3.7-3.4-3.7zm33.2-10.4a100.9 100.9 0 01-33.3 1.6c-8.2-.9-2.9-4.8-2.9-4.8-21.1 7 11.8 15 41.3 6.3-3.1-1.1-5-3.1-5-3.1zM92.1 27S49.4 37.8 69.8 61.3c6 7-1.6 13.1-1.6 13.1s15.3-7.8 8.3-17.7C69.9 47.4 64.9 42.9 92 27zm10 81.1s3.6 3-3.9 5.2c-14 4.3-58.7 5.5-71 .2-4.5-2 3.8-4.7 6.5-5.2 2.7-.6 4.3-.5 4.3-.5-5-3.5-32 6.8-13.8 9.8 49.8 8 90.8-3.6 78-9.5zM85 78c2.4-1.6 5.7-3 5.7-3s-9.4 1.6-18.8 2.4c-11.5 1-23.8 1.2-30 .3-14.7-2 8-7.3 8-7.3s-8.8-.6-19.6 4.6C17.5 81.1 62 84 85 78zM90.6 93a2 2 0 01-.5.7c31.3-8.3 19.8-29 4.9-23.8-1.3.5-2 1.6-2 1.6s.8-.4 2.6-.7c7.6-1.6 18.4 10-5 22.2zM64.2 70c-4.6-10.4-20.3-19.5 0-35.5 25.3-20 12.3-33 12.3-33 5.2 20.7-18.5 27-27 39.8C43.7 50 52.4 59.4 64.2 70zm27.3 51.8a184.7 184.7 0 01-57 .9s3 2.4 17.7 3.3c22.5 1.5 57-.8 57.8-11.4 0 0-1.5 4-18.5 7.2z"/></svg>