<svg viewBox="0 0 128 128"><path d="M65.3 107l-2.5-.8-.6-.1-2.3-.8-.3-.1-2.1-.8-.6-.2-2.2-1-.5-.2-1.9-.8-.5-.3-1.5-.7-1-.5-1.7-1-.6-.4-2.3-1.4-.6-.4-1.6-1-.5-.4-1.6-1.1-.7-.5-1.3-1.1-.7-.5-1.7-1.5-.2-.1-1.8-1.7-.5-.5a56 56 0 01-1.3-1.2l-.5-.5-1.6-1.7v-.1l-1.7-1.9-.4-.5-1.2-1.4-.4-.5-1.4-1.8C13 62.9 8.5 40 18.2 21.3L9.6 32.2C-1.4 48 0 68.7 8.4 85.5l.6 1.2.4.8.3.4.4.8.8 1.4.5.7.9 1.5.4.6 1.3 2 .3.3 1.2 1.6.5.6 1.1 1.4.5.5 1.6 1.9L21 103l.5.5 1.3 1.2.5.5 1.8 1.6.3.3 1.6 1.4.7.5 1.3 1 .7.6 1.5 1 .6.5h.1l1.5 1 .6.5 2.3 1.3.6.4 1.7 1 1 .5 1.2.6.3.1.5.3 2 .9.3.1 2.3 1 .5.2 2.2.8h.2l2.4.9.6.1c.8.3 1.6.6 2.4.7 53.4 9.8 68.9-32 68.9-32-13 17-36.1 21.4-58 16.4zM46 63.6c1.2 1.7 2.5 3.7 4 5.1l1.9 1.9.4.4 1.9 1.7v.1l2.2 1.8.5.4a54 54 0 002.2 1.6l1 .7.6.3 1.6 1 .3.2 1.4.8.5.3 1 .5h.2c.7.4 1.4.8 2.2 1l.4.3 1.8.7.7.3 1.6.5.8.2c.7.3 1.5.6 2.3.7 41.2 6.8 50.7-24.9 50.7-24.9C117.7 71.7 101 77.6 83.4 73l-2.3-.7-.7-.2-1.7-.6-.7-.3-1.8-.7-.4-.2-2.2-1-1-.5-.7-.3-1.3-.8-.4-.2-1.6-1-.5-.3a65.9 65.9 0 01-3.3-2.4l-.5-.4a49.7 49.7 0 01-16.8-24c-3-9.8-2.4-20.8 2.9-29.8l-6.5 9.2a38.3 38.3 0 00-1.4 39c1 2 2.3 4 3.6 5.9zm43.4-14.2l1 .4h.4l1.5.5c22.8 4.4 29-11.7 30.6-14-5.4 7.8-14.5 9.6-25.7 7a28.4 28.4 0 01-5.9-2.2c-2-1-3.8-2.1-5.6-3.5-10-7.5-16.1-22-9.6-33.7l-3.5 4.8a24 24 0 00-2 23.2 32.6 32.6 0 0018.8 17.5z"/></svg>