<svg viewBox="0 0 128 128"><path d="M2 1v125h125V1H2zm66.1 106.5a14.8 14.8 0 01-9.4 7.4c-6.3 1.5-12.3.6-16.8-2-3-1.9-5.3-4.7-6.9-8l9.6-5.8.6 1.1a10 10 0 004.3 4.5c2 .7 6.5 1.1 8.2-2.4 1-1.9.7-7.7.7-14.1V58h11.8v32.2c0 6.5.6 12.4-2 17.3zm48.6-3.3c-4 14-26.8 14.4-35.8 5.2-2-2.2-3.2-3.3-4.3-5.8l9.5-5.5c2.6 4 5 6 9.1 7 5.8.7 11.6-1.3 10.3-7.4-1.3-5-11.8-6.2-18.9-11.6a16.4 16.4 0 01-3-23.3c2-2.5 5.4-4.3 9-5.2l3.6-.5c7-.1 11.5 1.7 14.8 5.3.9 1 1.6 2 3 4l-9.2 6c-1.1-2.5-3-4-5-4.8-3.2-.9-7.2.1-8 3.5-.3 1-.2 2 .2 3.6 1.3 3 5.6 4.2 9.4 6 11 4.4 14.8 9.2 15.7 15 .9 4.8-.2 8-.4 8.5z"/></svg>