<svg viewBox="0 0 128 128"><path fill-rule="evenodd" d="M120.6 30.6c-5.2-2.5-10.2-5.1-15.4-7.5-10.1-4.8-20-10.2-30-14.8-3.4-1.5-6.6-3.3-9.8-5-1-.5-2-.5-3.1 0-4.2 2.2-8.5 4.2-12.7 6.3-10 4.8-20.2 10-30.3 14.8-4.4 2-9.3 4.3-13.3 6.4v66.5l.8.1 9.7 4.7c3.2 1.7 6.6 3.2 9.8 4.8 10.2 4.8 20.2 10 30.3 15l5.9 2.8c1 .5 1.7.5 2.7 0l9-4.3c11.6-5.7 23-11.6 34.7-17.1 4-2 7.1-4 12.1-6.1V30.7h-.4zm-15 61.5a29.2 29.2 0 01-8.3 6c-.8.3-1.6.8-2.4.9-1.3.2-1.8 1.2-2.4 2a7.8 7.8 0 01-5.1 3H86c-1.9.1-3.6-.3-5.2-1.2a14.9 14.9 0 00-7.3-1.2c-1.3 0-2.5.3-3.6 1a4.3 4.3 0 00-2 4.4c.1.4-.2.8-.5 1.5-.5-.5-1.1-.7-1.2-1-.1-2-.2-4.2 1.2-5.9 2-2.3 4.5-3.5 7.6-3.7h2.3c2-.1 3.7.3 5.6.8a6 6 0 004.8-.5c.6-2-.5-3.5-2-4.5s-3.1-2-5-2.5c-1.4-.3-2.6-1.3-4-1.8l-4-1.5c-1.4-.5-2.8-.5-4-1.3-2.1 0-4.2-.9-6.4-.5-2.8.5-5.6 1-8.3 2l-6 2.7c-1 .6-2.4.9-3.6 1.4l-2.6 1.6c-1.4 1.1-2.3 2.5-1.9 4.4 1.7.8 3.5.9 5.3.3 2-.7 4-.6 6-.7 2.7-.1 5 .7 7 2 2 1.2 3.4 3 3.3 5.5v1.7c-.1.4-.4.9-.8 1.5-.6-.7-1.7-.8-.7-1.8-.6-1.2-.3-2.7-1.5-3.6-1-.7-2.1-1.6-3.6-1.5h-2.6c-2-.2-3.8.5-5.5 1.4-2.4 1.2-4.9 1-7.4 1-1.4-.8-3-1.2-4.1-2.5-.5-.7-.8-1.9-1.4-2.1-.8-.3-1.6-.9-2.4-1-2-.3-3.5-1.8-5.2-2.7-1.5-.8-2.6-2.1-3.9-3.3a8 8 0 01-2.3-4.7 8 8 0 012-6.7c2-2 4.4-3.1 7-4-.7-1.3-1.2-2.7-2-3.8-.8-1.1-1-2.4-1.2-3.5a8.5 8.5 0 010-4.2c.3-1.3 1-2.6 1.9-3.7.7-1 1.7-1.8 2.6-2.6.3-.3.8-.3 1.2-.4.5.7.3 1.2-.2 1.7L30 62.2c-1.4 1.7-1 3.6-1 5.5.1 1.2.8 2.2 1.5 3.2 1.3 1.8 2.7 3.6 5 4.5 1.1.5 2.2.9 3.5.8h4.1l-2-.9a8.6 8.6 0 01-5.5-8.2c0-1.4.2-2.7 0-4-.2-1.1.5-2 .5-3.1 0-1-.4-2 .5-2.9-.3-1.8.4-3.7-.4-5.5-.4-1 0-2-.5-3-.8-2.1-1.4-4.1-4-4.4-.4 0-.6-.5-.8-.7.4-1 .9-1.2 2-.9 2.7.9 4.3 2.7 5.6 5.1 1.4 2.6 1.9 5.4 2.4 8.2.5 2.8.2 5.7.4 8.5 0 1 .3 1.9.6 2.8.3.9.8 1.4 1.7 1.5 1.3.1 2.4 0 3.4-1.2v-2.4c-1-.4-1-1.7-2.3-1.6-.6 0-.7-.8-.7-1.5 0-2 .2-4 0-6.1-.2-2.2.3-4.3.7-6.4.3-1.8.5-3.7 1.2-5.5.7-1.7.9-3.6 1.5-5.3 1.3-3 2.6-6.1 4.4-9 1-1.7 2.3-3 3.1-4.8l.3-.4c1.2-1.4 2.3-2.8 3.6-4l5-4.6c1.8 1.6 3.7 3 5.2 4.7a52.7 52.7 0 0112.8 23.6l1.4 7.8c.6 3.5.1 6.8.4 10.2 0 .7-.5 1.3-.9 1.3-1.4-.1-1.7 1.1-2.7 1.6v2.5c1 .9 2 1.2 3.2 1.1 1.5 0 2.3-.8 2.7-2.3.5-1.7.6-3.4.4-5-.2-2.4.3-4.8.6-7a21 21 0 012.8-7.9c1-1.6 3.8-3.8 5.5-4.1.7-.1 1.3.1 1.6 1.1-.3.2-.6.7-1 .7-2.3.3-3 2.1-3.7 3.9-.4 1-.3 2.1-.6 3-.5 1.7-.4 3.2-.4 4.8 0 1 .3 2 .5 2.9.2.9-.4 1.8.4 2.6.2.2 0 .8 0 1.2V67c.2 3.8-2.4 8-7 9 2.9.3 5.6.5 8.2-1.1 2.6-1.6 4-4 5.4-6.5 0-2.8.5-5.7-2.2-7.7-.5-.5-.7-1-.5-1.9.5 0 1 0 1.2.2 1.4 1.5 3.3 2.7 4 4.9.2.6.8 1.2.8 1.8 0 1.5.2 3-.2 4.6l-1.3 3.4-1.8 3.1c.9.5 1.7 1 2.7 1.3 2 .6 3.3 2 4.7 3.4 1.3 1.4 1.5 3.2 2 5-.7 1.9-.9 4-2.4 5.6zm-73.1-7.9H30c-1.2.1-2.4.6-3.4 1.3-1 .7-1.2 1.3-.7 2.5a9.3 9.3 0 002.2 3.1c1.6 1.7 3.4 3.2 5.4 4.3.7-4 3-6.9 6.4-9l-1.5-.8a10 10 0 00-6-1.4zm68.7 1.4a9.1 9.1 0 00-3.6-1.4h-3.3c-1.7-.1-3 .5-4.5 1.1l-2 1c3.3 2.2 5.6 5.1 6.3 9.2 1-.6 1.9-1.2 2.7-1.9a71 71 0 004.2-4c.4-.4.6-1.1.8-1.7.4-.9.1-1.6-.6-2.3zM56.7 63.1c-1 0-1.4.5-1.3 1.9 0 1 .5 1.4 1.6 1.4.8-.1 1.8-1 1.7-1.8-.1-.8-1.1-1.6-2-1.5zM71 63c-1 0-2 .8-2 1.7 0 .8 1 1.6 2 1.6s1.3-.4 1.3-1.6c0-1.3-.3-1.7-1.3-1.7z" clip-rule="evenodd"/></svg>