<svg viewBox="0 0 128 128"><path fill-rule="evenodd" d="M17 1.7c-1.2.1-2.3 0-3.4.4A16 16 0 001.8 14.7l.6 1 3.6 6 3.2 5.4 3 4.9 4.6 7.7 3.1 5.2 4.6 7.7 5.6 9.3L35 70l.2.3h.6l6.4-1.5 10.4-2.5L58 65l10.5-2.5L79.1 60l5.4-1.3 10.4-2.5 11.3-2.7.6-.2-.2-.3-3-4.4-3.1-4.3-3.3-4.6-3-4.4L91 31l-3.2-4.6-3-4.4-1.7-2.3c-.3-.3-.5-.7-.6-1.1-.3-1 0-1.7.6-2.2.4-.3.8-.6 1.3-.7l2-.5 4.1-.7 4.6-.8 3-.5 4-.7 3.8-.6 4.2-.7 3-.5 3.3-.5 4.1-.7c.9-.1 1.7-.2 2.5 0 .6.2 1.2.5 1.7.9l.7.5c.1-.2 0-.3 0-.4a16.5 16.5 0 00-10-8.5c-1.2-.4-2.4-.2-3.7-.3M55.7 127l-.2-.6-4.5-7.8-5.6-9.8-5.8-10.4a5710 5710 0 01-5.6-10l-3.3-6-.3-.5-.5.1-3.3.9-4.4 1.2-10 2.6-10.4 2.6-.8.1v21.2c.4.6.4.3.4.5 0 .7.2 1.3.3 2a16.5 16.5 0 0014 13.3l1.3.3" clip-rule="evenodd"/><path fill-rule="evenodd" d="M5 77.7L16.8 75l5.2-1.2 2.6-.6c.7-.2.8-.5.4-1.2l-1.7-3-5-8.7-5.1-8.7L8 42.6 3.6 35l-2-3.2c-.1-.2.4-.5-.6-.6v47.4h.6l3.4-.9zm121.2 34A1965.5 1965.5 0 00111 117l-5.8 2-12 4.3-6.9 2.7c-.6.2-1.2.9-1.9.9H111l.6-.3c.7 0 1.3-.3 2-.4a16.4 16.4 0 0011.4-8.1c1-2 1.7-4 2-6.1v-.6l-.7.1zM124 76l-3.5-4.7-4.8-6.7-2-2.7c-.1-.2-.3-.3-.6-.2h-.2l-8.9 2.2-5.3 1.3-10.4 2.5L78 70.2l-10.7 2.6-10.5 2.5-10.1 2.5-5.4 1.3c-.2 0-.5 0-.8.3l.2.4a6000 6000 0 009.6 16.6L56 106l3.2 5.5a661.9 661.9 0 004.9 7.9l1 1c.4.2.9.3 1.4.2l.7-.2 1-.4 9.6-3.3 7.6-2.6 7.5-2.5 7.5-2.5 7.7-2.6 9.3-3.2 9-3c.3-.1.5-.1.6-.3v-.5-18.7c0-.4 0-.7-.2-1l-2.9-3.8zm-.5-58.9a2.4 2.4 0 00-2.7-.9c-.4.2-1 .2-1.4.3l-4.8.9-7 1.3-5.5 1-7.5 1.2-.9.2c-.4.2-.6.5-.4.9l.6 1c1.6 2 3.1 4.2 4.6 6.3l6.4 8.7 5.4 7.4 4.3 5.8.2.3 12.3-3v-.7-25.5c0-.4 0-.7-.3-1l-3-4-.3-.2zm3.3 41.3l-5.6 1.3 5.7 7.8h.2v-3.4-5-.7h-.3z" clip-rule="evenodd"/></svg>