<svg viewBox="0 0 194.7 195.8"><path d="M28.6 0v95.3h137.6V0zm42.3 15.9a26.5 26.5 0 0126.5 26.4 26.5 26.5 0 01-26.5 26.5 26.5 26.5 0 01-26.4-26.5A26.5 26.5 0 0170.9 16zm0 10.6A15.9 15.9 0 0055 42.3a15.9 15.9 0 0016 16 15.9 15.9 0 0015.8-16 15.9 15.9 0 00-15.9-15.8zM17 29v37h10.6v-37zm150.3 0v37h10.6v-37zm-35.4 2.6a18.5 18.5 0 0118.5 18.6 18.5 18.5 0 01-18.5 18.5 18.5 18.5 0 01-18.6-18.5 18.5 18.5 0 0118.6-18.5zM5.3 37v21.2h10.6V37zm173.6 0v21.2h10.5V37zm-47.1 2.2a11.1 11.1 0 00-11.1 11 11.1 11.1 0 0011 11.2A11.1 11.1 0 00143 50.3a11.1 11.1 0 00-11.1-11.1zM78.8 82h37v5.3h-37zm8 23.8v10.6H108v-10.6H94.7zM55 126v16h84.7v-16zM0 143v52.9h26.5v-53zm39.2 0v52.9h116.4v-53zm129 0v52.9h26.5v-53zm-140.7 8v23.7h10.6v-23.8zm129.1 0v23.7h10.6v-23.8zm-54 5.2h37.1v10.6h-37z"/></svg>