<svg viewBox="0 0 128 128"><path fill-rule="evenodd" d="M122.3 58.6c-.6-1.3-.9-2.8-1-4.2l-.1-10.7c-.2-3.2-1.3-6.1-4.4-7.8a18.8 18.8 0 00-8.8-1.6V40h1c4 .3 5.4 1.6 5.4 5.6v8.9c.1 3.6.7 7 4 9.3v.4a7.6 7.6 0 00-3.3 4.8l-.6 5.1v9.4c-.1 2.4-1.3 3.6-3.7 4.1l-2.8.4v5.7l4.4-.3c5.1-.6 8-3.3 8.6-8.3.2-1.6.2-3.2.2-4.7.1-3 0-6 .3-9s2.5-4.6 5.5-4.4v-6c-2 .4-3.8-.5-4.7-2.4zm-94 12.2c0-11.6-.3-23.1-.3-34.7v-1.8h-9.4a29 29 0 00-3.7.3c-4.9.7-7.2 3-8 7.8-.3 1.4-.3 2.9-.3 4.3V55c0 3.4-1.7 6.1-5.2 6.3-.1 0 .6.1-.4.2v5.3c4 .7 5.3 2.3 5.5 6l.1 1.8.1 10c.2 3 .9 5.8 3.8 7.4 2.7 1.5 6.5 1.7 8.5 1.7V88l-.4-.1c-4.3-.3-5.3-1.5-5.3-5.8v-8.6c0-3.7-.6-7-3.8-9.4v-.3a8 8 0 003.6-6.1l.3-4.3v-9c.1-2 1.5-3.6 3.2-4L22 40v2c0 10.4-.4 20.7-.3 31 0 3.5.4 7 4.2 8.5 2 .9 4.2 1.1 6.6 1.7.4-2.3.5-4.2.9-6.1-4.4-1.3-5-2-5-6.3zm26.7-20a14.7 14.7 0 00-19.7 7 20.5 20.5 0 00-.2 16.9c1.2 3 3.5 5.3 6.5 6.6 5.9 2.7 11.9 2 17.8.2.3-.1.7-.7.7-1l-.8-5-3.8.9c-3.2.6-6.4.6-9.6-.7-3-1.2-5.1-4.7-4.6-7.7h20.9c.2-3 .1-7.1-1.1-10.5-1.2-3-3.1-5.2-6.1-6.6zM55 63H41.1c0-4 3.3-7.6 7.6-7.5 3.7 0 6.3 3.5 6.1 7.5zm56 12.3c.5-5-1-8-5.5-10.1-1.6-.8-3.3-1.4-4.9-2L97 61.2a3 3 0 01-1.4-3c.2-1.3 1-2.1 2.2-2.4 1.4-.3 3-.5 4.4-.4 2 .2 4 .7 6.1 1l1.4-5.8c-2.9-.4-5.5-1-8.2-1.2-3-.2-6 .3-8.7 1.7-5.7 3-5.8 12.1-.5 15.1 1.6 1 3.2 1.6 4.9 2.4l5.2 2.5c1.3.7 1.7 2 1.4 3.5-.3 1.4-1.4 2-2.6 2-1.9.3-3.8.4-5.6.2-2.2-.2-4.4-1-6.7-1.4l-1.1 5.8c5.3 2 10.6 2.3 16 1.1 4.4-1 7-3.6 7.3-7.1zm-28.4-9.5l-6-2.7c-1.3-.6-2.6-1-3.7-1.9-2.2-1.5-1.8-4.4.7-5.2 1.4-.5 3-.6 4.5-.5 2 .1 4 .7 6.2 1l1.2-5.5-3-.8c-4-.8-8-1.2-11.9.2-3.3 1.2-5.7 3.4-6.1 7.1-.5 4.2.8 7.4 4.7 9.4 1.5.8 3.1 1.4 4.7 2.1 1.6.7 3.2 1.4 4.6 2.4 1.1.7 1.6 1.8 1.3 3.2-.3 1.4-1.3 2-2.6 2.2a26 26 0 01-5.6.1c-2.2-.2-4.4-.9-6.7-1.4l-1 4.9c0 .3.4 1 .7 1.1a26.3 26.3 0 0016.3.5c3.3-1 5.6-3 6-6.6.6-4-.4-7.5-4.3-9.6z" clip-rule="evenodd"/></svg>