<svg viewBox="0 0 128 128"><path fill-rule="evenodd" d="M113.8 104.6l-5.3-4.5a8 8 0 01-2.8-6.7c.2-1.6-.2-3-2-3.5l1-2.7.1-2.8c.3-10-3.3-18.7-8.6-26.9l-7.6-11a32 32 0 01-5.7-19c0-3.2-.4-6.4-1-9.5-1.4-6-4.6-10.8-10.5-13.3-4.5-2-9.1-2.3-13.9-1-6.9 1.7-11 6.8-11 14 .1 6.9.4 13.8 1 20.7.2 3.8-.4 7.2-3 10.3-2.4 3-4.7 6.2-6.8 9.4a28.5 28.5 0 00-3 6c-2.2 5.6-4 11.3-7.4 16.4a6.5 6.5 0 00-.5 6.2c.3.6.4 1.4.1 1.9-2.3 4-5 7.3-10 8.1-4 .6-4.2 1.3-4 5.4a76 76 0 01-.4 10c-.3 3.6 0 4.6 3.5 5.4 7.9 2 15.9 3.6 23.5 6.9 3.2 1.3 6.4.8 9-1.8 2.7-2.8 6.2-3.9 9.9-3.9 6.3 0 12.6.3 18.8.4 1.7 0 2.7.7 3.4 2.2.8 1.9 2.3 3.3 4.5 3.5 4.1.5 8-.1 11.1-3.3 4-4 8.5-7.1 13.7-9.3 1.4-.6 2.8-1.5 4-2.6 2.3-2 2.2-3.2 0-5zM62.4 24a6.4 6.4 0 015.3-4.8c2.2-.4 4.2.7 5.6 3.3 1.6 2.7 2 5.6.7 8.6-1 2.5-1.5 2.7-4 1.9l-1.9-.7 1.7-1.3c1.1-.8 1.5-1.9 1.4-3.2-.2-1.7-1.5-3.2-2.9-3.2-1.2 0-2.2 1.2-2.4 3l.2 3.5c-3.5-1-4.7-3.5-3.7-7zM49.7 22c1.2-2 3.2-2.3 5-1 2.1 1.3 3.6 5.2 2.8 7.5-.2.9-1 1.5-1.7 2.3l-.6-.4c-.2-1.3-.3-2.6-.7-3.7-.3-.8-1.3-1.2-2-1.8-.6.7-1.6 1.4-1.7 2.2-.1 1.1.5 2.3 1 3.4.3.6 1 1.1 1.7 1.9l-2 1.5c-3-2.7-3.9-8.8-1.8-12zM87.3 86c-.2 2.6-.5 2.7-3 3-2 .3-2.4.8-2.5 3v7.8c0 1.8-.6 3.1-1.8 4.4a28.2 28.2 0 01-24.5 9c-4.2-.6-7-3.1-9.1-6.7l2.4-1c3.1-1.2 3.7-3.9 1.2-6.2-1.9-1.8-4-3.3-6-4.9L38.1 90c-1.6-1.3-2.3-3-2.3-5.2-.1-5.2 1-10 3.1-14.8 2-4.2 3.4-8.6 5.3-12.8.9-2.2 1.9-4.5 3.2-6.4a8.9 8.9 0 002-6V41l.7-.4 3.4 3c4 3.6 8 3.8 12.4.7 1.8-1.4 3.9-2.5 5.9-3.7.5-.3 1-.4 2-.7l6.3 15c1 2.5 2 5.1 3.3 7.5 2.6 4.8 4 9.8 4 15.3 0 2.8.2 5.7 0 8.5z" clip-rule="evenodd"/></svg>