<svg viewBox="0 0 128 128"><path d="M120.3 65.4a2 2 0 002.1-2.1c0-.5-.2-1-.5-1.3l-28-25.8 24.6 28.1c.3.7 1 1.1 1.8 1.1zm5.7 14.3l-.2-.2L65 24l55.7 60.6.2.2c.6.6 1.5 1 2.5 1 2 0 3.6-1.6 3.6-3.6a4 4 0 00-1-2.5zm-26.9 37.6l-88-81.5 81.1 88.5a5 5 0 008.6-3.2c0-1.5-.6-2.9-1.7-3.8zM1 2l107.6 114.6.1.1c.9.9 2.1 1.4 3.4 1.4a5 5 0 004-7.7C115.8 109.9 1 2 1 2zm122.4 92.8l-88-81.5 81.1 88.5a5 5 0 008.6-3.2 5 5 0 00-1.7-3.8zm-42.5 24.8l-.2-.2-60.8-55.5 55.7 60.6.2.2c.6.6 1.5 1 2.5 1 2 0 3.6-1.6 3.6-3.6 0-1-.4-1.8-1-2.5zM34.1 91.7l24.6 28.1c.4.6 1 1.1 1.8 1.1a2 2 0 002.1-2.1c0-.5-.2-1-.5-1.3l-28-25.8z"/></svg>