<svg id="Layer_1" data-name="Layer 1" viewBox="0 0 112 126.4"><defs/><g id="plain"><path d="M91.8 58.8l-2.3 5.4h4.6l-2.3-5.4z" class="cls-1"/><path d="M61 52h4a1 1 0 00.4-.2c2.4-2.8 2.7-8.2 2.7-10.1a.7.7 0 00-.7-.7h-9a.7.7 0 00-.7.7c.1 1.9.4 7.3 2.7 10a.7.7 0 00.5.3zm4.3-5.2c1.7-.6 1.7-1.2 1.7-1.2a10.7 10.7 0 01-2 5.3.5.5 0 01-.4.1h-3.3l-.5-.1a9.6 9.6 0 01-1.7-3.8s4 .5 6.2-.3z" class="cls-1" transform="translate(-8 -.8)"/><path d="M116.4 30l-49-28.3a6.8 6.8 0 00-6.8 0L11.7 30A6.9 6.9 0 008 35.8v56.4a7 7 0 003.6 5.8l49 28.3a6.8 6.8 0 006.7 0L116.4 98a7.1 7.1 0 003.6-5.9V35.8a7 7 0 00-3.6-5.9zM112 88.2a5.8 5.8 0 01-3 5L67 117.7a5.7 5.7 0 01-5.9 0L19 93.3a5.6 5.6 0 01-2.9-5V39.6a5.7 5.7 0 012.9-5L61 10.2a5.6 5.6 0 015.8 0L109 34.6a5.7 5.7 0 013 5z" class="cls-1" transform="translate(-8 -.8)"/><circle cx="40" cy="62.5" r="4.8" class="cls-1"/><path d="M108 36.3L65.9 12a3.9 3.9 0 00-1.9-.5 4 4 0 00-1.9.5L19.9 36.3a3.9 3.9 0 00-1.9 3.4v48.6a3.9 3.9 0 001.9 3.4L62 116a3.6 3.6 0 001.9.5 3.8 3.8 0 001.9-.5L108 91.6a4 4 0 002-3.3V39.7a4 4 0 00-2-3.4zM67 68.2a4.8 4.8 0 003.6-1.7l1.6 1.5a7.7 7.7 0 01-1.1 1 5.9 5.9 0 01-1.2.8 5 5 0 01-1.5.4 8.3 8.3 0 01-1.8.2 6.7 6.7 0 01-4.9-2 6.1 6.1 0 01-1.3-2.3 7.3 7.3 0 01-.4-2.7 7.1 7.1 0 01.4-2.8 7.6 7.6 0 011.4-2.2 6.3 6.3 0 012.2-1.5 7.5 7.5 0 012.8-.6 13 13 0 011.7.2l1.4.4a6.4 6.4 0 011.2.7 11.8 11.8 0 011 .8l-1.6 1.7a4.8 4.8 0 10-3.5 8zm-2.8-37.6c-.4.4 0 1.6 1 3a2.8 2.8 0 01-1 4 3.8 3.8 0 00-.8-2.3c-1.6-2.5-.1-3.7.8-4.7zM61.5 33c-.3.2 0 1 .6 2a2 2 0 01-.6 2.7 2.7 2.7 0 00-.5-1.5c-1.1-1.7-.1-2.5.5-3.2zm-5 5.9h12.8a.6.6 0 01.6.6c0 2.4-.3 10.4-3.7 14.2a.6.6 0 01-.5.2H60a.7.7 0 01-.5-.3c-3.3-3.8-3.7-11.7-3.7-14a.7.7 0 01.7-.7zM21 49h34.4v1H21zm34 14.3a7.4 7.4 0 01-.5 2.8 6.7 6.7 0 01-1.4 2.2 6.4 6.4 0 01-2.3 1.5 6.6 6.6 0 01-2.8.6 7.9 7.9 0 01-2.8-.6 6.5 6.5 0 01-2.3-1.5 6.3 6.3 0 01-1.4-2.2 7.2 7.2 0 01-.5-2.7 7.4 7.4 0 01.5-2.8 6.8 6.8 0 011.5-2.2 6.5 6.5 0 012.2-1.5 6.7 6.7 0 012.9-.6 7.9 7.9 0 012.8.6 6.5 6.5 0 012.3 1.5 6.2 6.2 0 011.3 2.2 7.1 7.1 0 01.5 2.7zM29.1 67H29l-4-6.5V70h-3V57h3l4.1 6.4 4.1-6.4H36v13h-3v-9.5zm77.9 8H21v-1h86zM86 62v-5h2v13h-2v-6h-7v6h-2V57h2v5zm6.7 8l6-13h2.2l6 13h-2.5l-1.4-3h-6.4l-1.4 3zM107 50H70.4v-1H107z" class="cls-1" transform="translate(-8 -.8)"/></g></svg>