<svg viewBox="0 0 128 128"><path fill-rule="evenodd" d="M90.5 57.3a68.6 68.6 0 00-18.8-40.7c-2-2-4-3.7-5.3-6.1L64 5.8l-.5-1.2-.1.5c0 2.5-1.5 4.2-3.3 5.8-2 1.8-3.8 3.7-5.7 5.6l-6 7.8-4.7 8.7-3.2 8.6-.1.2a79.9 79.9 0 00-3 17.7c-.2 2.2 0 4.5.1 6.8a61 61 0 0019.4 38.4l4.8 4.2.8-2.9.7-2.9-.6 2.9-.8 2.9.7 2.5.7 3.9.3 4v2.5c0 .2.3.4.5.6l1.3.5 1.5.5-.3-3.6v-3.5l.5-5.4.4-1.2 1-1.8 3.8-3c2-2.1 4.2-4.2 6-6.5 2.5-2.9 4.5-6 6.2-9.5 1.1-2.3 2.2-4.6 3-7 .8-2 1.3-4.3 2-6.5V75a61.2 61.2 0 001-17.7zm-23.6 49.4l-.8-1.8.8 1.8 1.2 1-1.2-1z" clip-rule="evenodd"/></svg>