<svg viewBox="0 0 128 128"><path d="M116.7 45c-5.1-3.8-12.3-5.7-21.1-5.7-9.7 0-16.4 2.2-20 6.8a18.8 18.8 0 00-6-4.3c-2.4-2.4-5-4-7.5-4.7 5.8-3.7 12.5-8.7 21-15.4-34.7 3.6-51.4 7-81.2 24.9h3.5c-.7 5.6-.3 13.9-.2 16.3-4 10.2-.4 18.5 2.6 26 0-9 .4-16.3-2.1-25.6l20.2-16c-.3 3-.2 6.5.4 10.8l-.2 1.2.9.1c-.2 1.5 0 3.1 0 4.8V106h18V66.4c0-2 .7-3.7 1-5.2 2.8-.5 5.7-1.3 8.2-2.4l.2.5.5-.7c2-.9 4.2-2 6-3.3 3.3 1.7 5.1 5.4 5.1 11V106h21V66.4c0-8.1 2.4-12.2 9-12.2s9 4 9 12.2V106h21V64.2c0-8.5-3.4-14.7-9.3-19.1z"/></svg>