<svg viewBox="0 0 128 128"><path d="M125.5 122.8l-2.6-2.6a41.8 41.8 0 00-9-8.5c-2.7-2-8.7-4.5-9.8-7.6l-.2-.2c1.9-.3 4-1 5.8-1.4 3-.8 5.4-.6 8.4-1.4l3.9-1.1v-.8c-1-1.6-2.4-3.7-4.1-5.1-4.4-3.7-9-7.4-14-10.5-2.7-1.8-6-2.9-8.9-4.3-1-.5-2.6-.8-3.3-1.6-1.5-2-2.3-4.4-3.5-6.6-2.4-4.7-4.8-9.9-7-14.9-1.5-3.3-2.4-6.7-4.3-9.7a86.2 86.2 0 00-33.1-32c-3.2-1.8-7-2.6-11-3.5l-6.4-.4c-1.3-.6-2.7-2.2-4-3-4.8-3-17.4-9.8-21-1-2.3 5.7 3.4 11.1 5.5 14 1.4 2 3.2 4.1 4.3 6.4.6 1.4.8 3 1.3 4.5 1.5 3.8 2.7 8 4.5 11.5 1 1.8 2 3.6 3.1 5.2.8 1 2 1.5 2.2 3-1.2 1.7-1.3 4.3-2 6.4-3 9.6-1.9 21.6 2.6 28.7 1.3 2.2 4.5 6.9 9 5 3.8-1.5 3.2-6.4 4.3-10.7.2-1-.2-1.7.8-2.3v.2c1 2.3 2.1 4.7 3.3 7 2.6 4.2 6.9 8.6 10.8 11.5 2 1.6 3.9 4.2 5.9 5.1v-.1h.2c-.5-1-1.3-1.2-2-1.8a44.7 44.7 0 01-4.4-5.1C47.2 90.3 44 85 41.2 79.5l-3.7-8.2c-.4-1-.4-2.6-1.4-3.1-1.2 2-3 3.5-4 5.8-1.6 3.7-1.8 8.2-2.4 12.9l-.4.2c-2.7-.7-3.7-3.5-4.7-5.9-2.5-6-3-15.8-.7-22.8.5-1.8 3.2-7.5 2.1-9.2-.5-1.6-2.2-2.6-3.1-3.9a30.7 30.7 0 01-3.1-5.4c-2.1-4.8-3.1-10-5.3-14.9-1-2.3-2.8-4.6-4.3-6.6-1.6-2.3-3.4-4-4.7-6.6-.4-1-1-2.6-.4-3.6.2-.6.5-1 1.2-1.1 1.1-.9 4.3.3 5.5.8 3 1.3 5.7 2.5 8.3 4.2l4.1 2.9H26c2.7 0 5.8.2 8.4 1 4.5 1.4 8.6 3.6 12.3 5.9a76.1 76.1 0 0126.7 29.3c1 1.9 1.5 3.8 2.4 5.8 1.8 4.2 4 8.4 5.8 12.5 1.8 4 3.5 8.1 6 11.5 1.4 1.8 6.5 2.7 8.8 3.7 1.7.7 4.3 1.4 5.9 2.4 3 1.8 5.8 3.9 8.6 5.8 1.4 1 5.6 3.1 5.8 4.9-6.8-.2-12 .5-16.6 2.3-1.2.6-3.3.6-3.5 2.2.7.7.8 1.8 1.4 2.7 1 1.8 2.9 4 4.5 5.3 1.7 1.3 3.6 2.7 5.5 3.9 3.3 2 7 3.2 10.3 5.3l5.8 4c1 .7.9 1.8 2.9 2.2v-.2c-1-.8-1-1.9-1.5-2.7zm-96-99.3c-1.4 0-2.5.1-3.5.4v.1h.2l2.7 3.5 2 4.1.2-.1c1.2-.9 1.7-2.3 1.7-4.3-.5-.5-.5-1.2-1-1.8-.5-.8-1.6-1.3-2.3-2z"/></svg>