<svg viewBox="0 0 128 128"><path d="M112.7 30.3L68.5 4.7a9.6 9.6 0 00-9.2 0L14.8 30.3a9.5 9.5 0 00-4.8 8.1v51.1c0 3.4 2 6.5 4.9 8.1l11.7 6.7c5.6 2.8 7.2 2.8 9.7 2.8 8.4 0 12.7-5 12.7-13.8V42.8c0-.7.4-1.8-.3-1.8h-5.6c-.7 0-2.1 1-2.1 1.8v50.5c0 3.9-3.6 7.7-10.2 4.4l-12.1-7c-.4-.2-.7-.7-.7-1.2v-51c0-.6.5-1 .9-1.3l44.4-25.6c.4-.2 1-.2 1.4 0l44 25.6c.4.2.3.7.3 1.2v51.1c0 .5 0 1-.3 1.2l-44.2 25.6c-.3.3-.8.3-1.2 0l-11.4-6.7c-.3-.2-.7-.3-1-.1-3.2 1.8-3.8 2-6.7 3-.7.3-1.8.7.4 2l14.8 8.7a9.3 9.3 0 009.3 0l44-25.6a9 9 0 004.3-8V38.3a9 9 0 00-4.3-8zm-35 51.1c-11.7 0-14.3-3.2-15.1-9-.1-.6-.7-1.4-1.3-1.4h-5.7c-.8 0-1.3.9-1.3 1.6 0 7.4 4 16.5 23.4 16.5 14 0 22.1-5.5 22.1-15.1s-6.5-12.1-20-14c-13.8-1.7-15.2-2.7-15.2-5.9 0-2.6 1.2-6.2 11.3-6.2 9.2 0 12.5 2 13.9 8.1.1.6.6 1 1.2 1h5.8c.3 0 .7-.1 1-.4.2-.3.3-.6.3-1-1-10.5-8-15.5-22.2-15.5-12.6 0-20.1 5.4-20.1 14.3 0 9.7 7.5 12.4 19.6 13.6C89.9 69.4 91 71.5 91 74.4c0 5-4 7-13.3 7z"/></svg>