<svg viewBox="0 0 560 647"><path style="isolation:auto;mix-blend-mode:normal;solid-color:#000" d="M280 0L0 162v323.3L280 647l280-161.7V162L280 0zm.1 26.8a5 5 0 012.4.7l252.9 146c1.5.8 2.6 2.5 2.6 4.2V469.6c0 1.8-1 3.5-2.6 4.4L282.5 620a5 5 0 01-5 0L24.2 474a5 5 0 01-2.4-4.4V177.7a5 5 0 012.4-4.3l253.3-146a5 5 0 012.6-.6zm-.1 10.8l-248 143V267h102.7a31.7 31.7 0 0132.1 28 43 43 0 0025-9.9c6.3-5.7 10.6-14 15.9-23.5a77.4 77.4 0 0123.5-28.6c9.5-6.5 23.5-9.7 40-10.5v-5.8a31.3 31.3 0 0131.2-31.7h127.3c17.6 0 33.3 14.2 33.3 31.8V248c0 17.6-15.8 32-33.3 32H302.3a31.4 31.4 0 01-31.2-32v-4c-12.4.7-22 3-27.7 6.9a57.3 57.3 0 00-16.7 21.2c-4.6 8.4-9.8 18.3-18.5 27 46.5 7.4 69.6 25 88 41.2 22.3 19.4 40 34.8 99.8 35.3v-4.3c0-17.6 15-32.3 32.6-32.3H528V180.6l-248-143zM302.4 207c-6 0-10.8 3.8-10.8 9.8V248c0 6 4.8 10 10.8 10h127.3c5.9 0 10.3-4 10.3-10v-31.3c0-5.9-4.3-9.7-10.3-9.7H302.4zM32 287v52h102.7c5.9 0 10.3-4 10.3-9.9V298c0-6-4.4-10.9-10.3-10.9H32zm135.4 30.2v12a32.7 32.7 0 01-32.7 31.8H32v105.7l248 143.1 248-143V434h-99.4a32.2 32.2 0 01-32.6-31.5v-5.4c-64.7-.8-91.9-21.1-114-40.5-23-20.2-42.8-38.2-114.6-39.4zM428.7 361c-6 0-10.7 4.3-10.7 10.3V402c0 6 4.7 10 10.7 10H528v-51h-99.3z" color="#000"/></svg>