<svg viewBox="0 0 647 647"><path d="M323.5 0l-280 162v323.3l280 161.7 280-161.7V162zm.1 26.8a5 5 0 012.4.6l252.9 146c1.5.9 2.6 2.5 2.6 4.3v291.9c0 1.8-1 3.4-2.6 4.3L326 620a5 5 0 01-5 0L67.7 474a5 5 0 01-2.5-4.3V177.7a5 5 0 012.5-4.3L321 27.4a5 5 0 012.6-.6zm-.1 10.7l-248 143.1V267h102.7a31.7 31.7 0 0132.1 27.9 43 43 0 0025-9.8c6.3-5.8 10.6-14 15.9-23.5a77.4 77.4 0 0123.5-28.6c9.5-6.5 23.5-9.8 40-10.6v-5.7a31.3 31.3 0 0131.2-31.7h127.3c17.6 0 33.3 14.1 33.3 31.7V248c0 17.6-15.8 32-33.3 32H345.8a31.4 31.4 0 01-31.2-32v-4c-12.4.7-22 3-27.7 6.9a57.3 57.3 0 00-16.7 21.2c-4.6 8.4-9.8 18.3-18.5 27 46.5 7.3 69.6 25 88 41.2 22.3 19.4 40 34.8 99.8 35.3v-4.4c0-17.5 15-32.2 32.6-32.2h99.4V180.6zM345.9 207c-6 0-10.8 3.8-10.8 9.7V248c0 6 4.8 10 10.8 10h127.3c5.9 0 10.3-4 10.3-10v-31.3c0-6-4.3-9.7-10.3-9.7H346zM75.5 287v52h102.7c5.9 0 10.3-4 10.3-9.9v-31.3c0-5.9-4.4-10.8-10.3-10.8zm135.4 30.2v12a32.7 32.7 0 01-32.7 31.8H75.5v105.7l248 143.1 248-143V434h-99.4a32.2 32.2 0 01-32.6-31.5v-5.4c-64.7-.9-91.9-21.2-114-40.5-23-20.2-42.8-38.2-114.6-39.4zM472.2 361c-6 0-10.7 4.3-10.7 10.2V402c0 6 4.7 10 10.7 10h99.3v-51z"/></svg>