<svg viewBox="0 0 165.6 144.3"><path d="M84 138.7c-.6-1.2-1.3-3.6-1.8-4.7-.4-1-1.8-3.5-2.5-4.3-1.5-1.8-1.9-2-2.3-4.2-.8-3.9-2.9-11-5.3-15.9a24.7 24.7 0 00-5.2-6.4 20.4 20.4 0 00-6.1-4.2c-6.1 1.2-8 7.2-11 12-1.5 2.6-3.2 4.8-4.5 7.6-1.1 2.6-1 5.5-3 7.7a21 21 0 00-4.4 7.6c-.1.6-.7 6.4-1.3 7.8l9.1-.6c8.5.5 6 3.8 19.3 3l21-.6a60 60 0 00-2-4.8z"/><path d="M144.7 0H20.9A20.9 20.9 0 000 20.9v45.4c3-1 7.3-7.4 8.6-9 2.4-2.6 2.8-6 4-8.2 2.7-5 3.1-8.4 9.2-8.4 2.8 0 4 .7 5.8 3.3 1.4 1.7 3.7 5 4.7 7.2 1.3 2.6 3.3 6 4.2 6.7.7.5 1.3 1 2 1.2 1 .3 1.7-.3 2.4-.9.8-.6 1.2-2 2-3.8 1-2.6 2.3-5.8 3-6.9 1.2-1.9 1.6-4.1 3-5.2 1.8-1.6 4.3-1.7 5-1.9 3.9-.7 5.6 1.9 7.5 3.6 1.3 1 3 3.3 4.2 6.3.9 2.3 2 4.5 2.6 5.8.5 1.3 1.7 3.4 2.4 6 .6 2.2 2.3 4 3 5 0 0 1 2.8 7 5.4 1.4.6 4 1.5 5.7 2 2.6 1 5.2.9 8.4.5 2.4 0 3.6-3.4 4.7-6 .6-1.7 1.2-6.2 1.6-7.5.4-1.3-.5-2.3.3-3.4.9-1.3 1.4-1.3 2-3 1.1-3.6 7.7-3.8 11.4-3.8 3.1 0 2.7 3 8 2 3-.6 5.8.3 9 1.2 2.7.7 5.2 1.5 6.7 3.3 1 1.1 3.5 6.9 1 7.1.2.3.4.8.8 1.1-.5 2.2-3 .6-4.2.4-1.8-.4-3.1 0-4.9.8-3 1.3-7.4 1.2-10 3.4-2.2 1.8-2.2 6-3.2 8.2 0 0-2.9 7.4-9.2 12-1.6 1.1-4.7 3.9-11.5 5-3.1.4-6 .5-9.1.3l-4.6-.2c-.9 0-4 0-3.8.2l-.3.9.2 1.1.2 1.9v4c0 2.6 1 5.1 1.2 7.8.1 3 1.6 6.3 3 8.8.6 1 1.5 1 1.9 2.2.4 1.4 0 2.8.2 4.2a55.3 55.3 0 005 16.4c3-.5 6-1.6 10-2.2 7.4-1.1 17.6-.5 24.1-1.2 16.5-1.5 25.5 6.8 40.4 3.4V21c0-11.6-9.4-20.9-21-20.9zM82.9 97.9c0-.2 0-.2 0 0z"/><path d="M38.2 117c1.1-2.5 1.8-5.3 2.7-8 1-2.4 2.4-5.9 4.8-7.1-.3-.4-5-.5-6.3-.6l-4.2-.6c-2.6-.6-5.4-1-8-1.7a84 84 0 01-7.8-2.7c-2.6-1.2-4.4-4.5-6.4-4.2-1.3.3-2.6.7-3.4 2-.7 1.1-1 3-1.4 4.2-.5 1.4-1.4 2.8-2.2 4.2-1.5 2.5-4.2 4.8-5.4 7.2l-.6 1.7V139.5c1.4.2 2.8.5 4.3 1a52.1 52.1 0 0026 2l1-.1c.9-1.9 1.5-8 2.1-10 .4-1.4 1-2.6 1.3-4 .2-1.5 0-2.9-.2-4.2-.3-3.2 2.4-4.4 3.7-7.1z"/></svg>