<svg viewBox="0 0 166 166"><path d="M21 10.9A20.9 20.9 0 00.3 31.7v45.5c3-1 7.3-7.4 8.7-9 2.3-2.6 2.7-6 3.9-8.2 2.7-5 3.1-8.4 9.2-8.4 2.8 0 4 .7 5.9 3.2 1.3 1.8 3.6 5.1 4.7 7.3 1.2 2.6 3.2 6 4.1 6.7.7.5 1.3 1 2 1.1 1 .4 1.7-.3 2.4-.8.8-.7 1.2-2 2-3.8 1.1-2.7 2.3-5.8 3-7 1.2-1.8 1.6-4 3-5.1 1.8-1.7 4.3-1.8 5-1.9 3.9-.8 5.6 1.9 7.5 3.5 1.3 1.2 3 3.4 4.2 6.4l2.6 5.8c.5 1.3 1.7 3.4 2.4 6 .6 2.2 2.4 4 3 5 0 0 1 2.8 7.1 5.4l5.6 2c2.6 1 5.2.8 8.5.5 2.3 0 3.5-3.4 4.6-6.1.6-1.6 1.2-6.2 1.6-7.5.4-1.2-.5-2.2.3-3.3 1-1.3 1.5-1.4 2-3 1.1-3.7 7.7-3.8 11.4-3.8 3.1 0 2.7 3 8 2 3-.7 5.9.3 9 1.2 2.7.7 5.3 1.5 6.8 3.3 1 1.1 3.4 6.8.9 7 .2.4.4 1 .9 1.2-.6 2.2-3 .6-4.3.3-1.8-.3-3 0-4.8.9-3 1.3-7.4 1.2-10 3.3-2.3 1.9-2.3 6-3.3 8.3 0 0-2.9 7.4-9.1 12-1.7 1-4.8 3.9-11.6 5-3 .4-6 .4-9.1.3l-4.5-.2c-1 0-4 0-3.9.2l-.3.8.2 1.2.2 1.9v3.9c0 2.7 1 5.2 1.2 8 .1 3 1.7 6.2 3.1 8.7.6 1 1.4 1 1.8 2.2.4 1.3 0 2.8.2 4.2a55.3 55.3 0 005 16.4c3-.5 6.1-1.6 10.1-2.2 7.3-1.1 17.5-.6 24-1.2 16.5-1.5 25.5 6.8 40.4 3.4V31.7c0-11.5-9.4-20.8-20.9-20.8zm-7.4 92h-.4c-1.3.3-2.6.7-3.4 2-.7 1.2-.9 3-1.4 4.3-.5 1.4-1.4 2.7-2.2 4.1-1.5 2.5-4.2 4.8-5.3 7.3l-.7 1.6v28.2l4.4.9a52.1 52.1 0 0025.8 2h1.1c.9-2 1.6-8 2.1-10 .5-1.5 1-2.6 1.3-4.1.2-1.5 0-2.8-.1-4.1-.4-3.3 2.3-4.4 3.6-7.2 1.2-2.5 1.8-5.4 2.8-8 .9-2.4 2.3-6 4.8-7.2-.3-.3-5.1-.5-6.4-.6l-4.2-.6-8-1.6a84 84 0 01-7.8-2.7c-2.4-1.2-4.1-4.2-6-4.2zm69.5 5.7v0zm-22 1.2c-6.2 1.3-8.1 7.3-11 12-1.6 2.7-3.3 4.9-4.5 7.7-1.2 2.6-1 5.4-3 7.6a21 21 0 00-4.4 7.6c-.2.6-.8 6.5-1.3 7.8l9-.6c8.5.6 6 3.8 19.3 3.1l21-.6a60 60 0 00-2-4.9l-1.7-4.6c-.5-1-1.9-3.5-2.6-4.4-1.5-1.7-1.9-1.9-2.3-4.1-.8-4-2.9-11-5.3-16a24.7 24.7 0 00-5.2-6.4 20.4 20.4 0 00-6-4.2z"/></svg>