<svg viewBox="0 0 128 128"><path d="M55.4 66.5h8.3l-4.4-7.1-8 12.8h-3.8l9.9-15.4c.4-.6 1.1-1 2-1 .7 0 1.4.4 1.8 1l9.9 15.4h-3.7l-1.7-2.9h-8.5l-1.8-2.8zm38.2 2.8V56h-3.1v14.6c0 .4.2.8.5 1.1.3.3.7.5 1 .5h14.3l1.9-2.9H93.6zM42 67a5.5 5.5 0 100-11H28.3v16.3h3.1V58.8h10.3c1.5 0 2.7 1.2 2.7 2.7S43.2 64 41.7 64H33l9.4 8.1h4.5l-6.3-5.3H42zM9.1 72.2A8.1 8.1 0 119 56h9.4a8.1 8.1 0 010 16.2H9.1zm9.2-2.9a5.3 5.3 0 100-10.5h-9a5.3 5.3 0 000 10.5h9zm59.3 2.9a8.1 8.1 0 110-16.2h11.2L87 58.8h-9.2a5.3 5.3 0 000 10.5h11.3l-1.9 2.9h-9.6zm38.2-2.9a5.2 5.2 0 01-5-3.8H124l1.8-2.9h-15.2a5.3 5.3 0 015.1-3.8h9.2l1.8-2.8h-11.2a8.1 8.1 0 000 16.2h9.6l1.9-2.9h-11.3"/></svg>