<svg viewBox="0 0 128 128"><path fill-rule="evenodd" d="M50.2 41.6c-3.6-1-7.3-.6-11.2 0v20c0 .4.5 1 .9 1 4.2.6 8.4.6 12.4-1.3 4.1-2 6.2-6.2 5.6-11-.4-4.6-3-7.5-7.7-8.7zM127 64V3.3c0-2.1 0-2.3-2-2.3H3.5C1.5 1 1 1.2 1 3.2v121.5c0 2 .3 2 2.2 2H125c1.6 0 2-.4 2-2V64zm-70.6 5.8c-5.6 2-11.4 2.1-17.4 1.6V94H28v-1.4l-.1-56.7c0-1.6.2-2.3 2-2.5 8.3-.8 16.6-1.8 24.9.1 8.9 2.1 14 8 14.4 16.2.5 10-4 17-12.8 20.1zm44.3 12.8c-.5 5.7-3.7 9.5-9 11.3a29.8 29.8 0 01-21.3-.8c-1.1-.5-1.3-1-1-2.2l1.8-6.3c3 .8 5.7 2 8.6 2.4 2 .4 4.3.2 6.4-.1a4 4 0 003.5-3.6c.3-2-.3-3.8-2.1-5-1.4-.8-3-1.4-4.5-2.1-2.5-1.2-5-2-7.3-3.5-8.8-5.8-6-16.4 0-20.4 3-2.2 6.6-3.1 10.3-3.3 4.4-.1 8.6.6 12.8 2.7l-2.2 7.7c-1.7-.6-3.4-1.4-5-1.7-2.1-.4-4.2-.6-6.3-.4-2.7.2-4.3 2.1-4.3 4.5 0 1.3.5 2.5 1.7 3.2 1.6 1 3.4 1.8 5.1 2.6 2 .9 4 1.5 5.8 2.5 4.8 2.7 7.4 6.8 7 12.5z" clip-rule="evenodd"/></svg>