<svg viewBox="0 0 128 128"><path d="M64 33C30.3 33 3 47 3 64s27.3 31 61 31 61-13.9 61-31-27.3-31-61-31zM48.1 70a12 12 0 01-4.9 2.5c-1.7.6-4 .5-6.8.5h-6.2l-1.8 10h-7.3l6.6-34h14c4.2 0 7.3 1.2 9.2 3.4 2 2.2 2.6 5.4 1.8 9.4A15.2 15.2 0 0148 70zm21.3 3l2.9-14.4c.3-1.7.2-3-.4-3.6-.5-.6-1.7-1-3.6-1h-5.8l-3.7 19h-7.3L58 40h7.3l-1.7 9H70c4 0 6.9.8 8.4 2.2s2 3.4 1.4 6.6l-3 15.2h-7.4zm40.3-11.2A15 15 0 01105 70a12 12 0 01-4.9 2.5c-1.8.6-4 .5-6.8.5h-6.2l-1.8 10h-7.3l6.5-34h14c4.3 0 7.4 1.2 9.3 3.4 2 2.2 2.5 5.5 1.8 9.4zM95.9 54h-5l-2.7 14h4.4c3 0 5.2-.3 6.6-1.4 1.5-1.1 2.4-2.8 3-5.4.4-2.5.2-4.5-.7-5.5-1-1-2.8-1.7-5.6-1.7zm-57 0h-5l-2.7 14h4.4c3 0 5.2-.3 6.6-1.4 1.5-1.1 2.4-2.8 3-5.4.4-2.5.2-4.5-.7-5.5S41.7 54 38.9 54z"/></svg>