<svg viewBox="0 0 128 128"><g><path d="M72 82.4V71.2c0-2.5-.8-3.9-2.5-3.9S67 68.7 67 71.2v11.2c0 2.5.8 3.7 2.5 3.7s2.5-1.2 2.5-3.7z"/><path d="M84.1 100l2.8-3.1c1.7-1.8 3.2-3.4 5.8-7 2.6-3.5 4.3-6.2 4-10.8-.1-2.3-.2-4-1.8-5.8-.9-1.2-2.6-2.8-4.4-4.6l-6-6c-2.3-2.5-5.3-8.6-5.3-8.6-1-2.4-3.1-7.8-3.1-12.1l-.1-2.8V39H42v24c2-2.1 4.4-2.9 6.8-2.9 3.7 0 7.2 2.2 7.2 7.1V92h-9V70.2c0-2-1-2.9-2.4-2.9-1.7 0-2.6 1.1-2.6 3V92h-9V39H2v70h6V61h8v3.7c2-3.1 4.7-4.6 7.2-4.6 4.6 0 7.8 3.5 7.8 9.8v14.3c0 5.4-3.6 9-7.7 9-2.4 0-4.3-1.2-6.3-3.7V109h41V61h8v3.7c2-3.1 4.7-4.6 7.2-4.6 4.6 0 7.8 3.5 7.8 9.8v14.3c0 5.4-3.6 9-7.7 9-2.4 0-4.3-1.2-6.3-3.7V109h9.3l2.7-3 4.3-5 .8-1z"/><path d="M22 82.4V71.2c0-2.5-.8-3.9-2.5-3.9S17 68.7 17 71.2v11.2c0 2.5.8 3.7 2.5 3.7s2.5-1.2 2.5-3.7zM126.3 76c0-4.6-3.3-11.6-3.3-11.6-.6-1.2-2.3-3.4-3.4-5.4-.4 0-.6-.7-.6-.7-3.3-3.8-8.4-8-10.6-10.7-2.6-3.2-2.6-6.2-2.8-8.5-.3-6.3 2.2-10 5-13.8 4-5.6 5.5-6.7 8.7-10.3l5-6H93.7c-1.8 2.3-5.5 6.8-7.6 10.8-2.8 5.3-5.2 9.3-5.4 19l.1 3.2c0 4.6 3.3 11.6 3.3 11.6.6 1.2 2.3 3.4 3.4 5.4.4 0 .6.7.6.7 3.3 3.8 8.4 8 10.6 10.7 2.6 3.2 2.6 6.2 2.8 8.5.3 6.3-2.2 10-5 13.8-4 5.6-5.5 6.7-8.7 10.3l-5 6h31.7c1.9-2.4 4.5-6.8 6.7-10.8 2.8-5.3 5-9.3 5.3-19l-.1-3.2z"/></g></svg>