<svg viewBox="0 0 128 128"><path fill-rule="evenodd" d="M123.3 76.8a6 6 0 00-5.8-5c-1 0-2 0-3.1.2l-3.7.6-2.6.3 4.8-9.2c1.1-2.3 2.1-4.7 3.1-7.2a93.2 93.2 0 006.5-24.5l.2-5-.3-4c-.2-1.5-.6-3-1.2-4.3-.9-1.8-2.2-3.3-3.5-4.7-1.1-1.2-2.3-2.2-3.5-3.2a32.2 32.2 0 00-12.7-6.5l-4.5-1c-.6 0-1.1-.3-1.7-.3H85.1l-1.1.2a39 39 0 00-7.3 1.5c-.8.3-1.6.1-2.5 0l-1.9-.2c-2.4-.2-4.9-.3-7.3-.3a26.3 26.3 0 00-12.4 3.2c-.7.5-1.3.4-2 .2-2.6-.8-5.1-1.5-7.7-2a42.7 42.7 0 00-9.6-1h-4.6c-2.4.3-4.8.8-7.1 1.6a21.9 21.9 0 00-12.4 10A27.8 27.8 0 006 24.3c-.4 1.5-.6 3.1-.8 4.7-.1.5.7 1-.3 1.4v6.8c1 .5.2 1 .3 1.4l.4 3.3A146 146 0 008.2 54l1.4 5.1 2.2 7.8 2.5 7a63 63 0 004.3 9.5 27 27 0 005.5 7c1.5 1.4 3.1 2.4 5 3 1.6.3 3.1.4 4.7 0a11 11 0 004.8-2.2c.2-.2.3-.3.5 0 .8.9 1.8 1.5 2.8 2 2.8 1.5 5.8 2 8.9 2.1H53a17 17 0 004.3-.8l2.2-.7v2.3l.2 4.2v1.9l.6 4.8A29.2 29.2 0 0063 117a12.6 12.6 0 0011.5 8c1.2 0 2.4 0 3.5-.3a49 49 0 005.4-1.2c3.6-1.1 6.7-3 9-6 1.3-1.7 2.4-3.6 3.1-5.7l1.6-5.1.7-4.2.3-2.8.4-4.6V92l.2-1c0-.3.1-.4.5-.4h3.2A56.5 56.5 0 00111 89c1.9-.5 3.7-1.4 5.4-2.4a20 20 0 005.3-4.5 6.8 6.8 0 001.6-5.4zm-3.5 1a4 4 0 01-1 2.3 20 20 0 01-10.6 6 36.5 36.5 0 01-9 .9c-1 0-2-.3-3-.5l-.3 3-.5 3.7-.4 3.5-.4 3.5-.5 3.2-.7 5c-.4 1.9-1 3.7-2 5.5a12.6 12.6 0 01-5 5 24.7 24.7 0 01-12.1 2.7c-3-.3-5.6-1.5-7.5-3.9a15.6 15.6 0 01-3.6-7.6 63.1 63.1 0 01-.8-8.8l-.2-5.9v-7.2c-1.3.7-2.5 1.5-3.8 2.1-1.5.8-3 1.3-4.8 1.4-1.3 0-2.6.2-4 0-2-.1-4.2-.4-6.2-1.5a7 7 0 01-2-1.6c-1.4-1.7-.8-3.8 1.2-4.8 1.3-.7 2.8-1 4.2-1.3l3.8-1c1.2-.4 2-1.4 2.8-2.4l1.2-1.5-1.5-.2c-1.4-.1-2.8-.5-4.1-1-1.1-.6-1.1-.6-2 .2l-4 4.6-3 3.4-3 3.3a7.5 7.5 0 01-5.6 2.3c-1.5 0-2.8-.6-4-1.4a20.4 20.4 0 01-5.6-6.6c-2-3.2-3.4-6.6-4.7-10.2l-2.5-7.3a199.3 199.3 0 01-5.2-21.4l-.7-4.8c-.4-2.2-.4-4.3-.3-6.5.1-2 .4-4 .7-5.9a23.3 23.3 0 015.4-11.7c1.8-2 4-3.5 6.6-4.6a25 25 0 015.4-1.6c2.8-.6 5.6-.6 8.4-.5 1.2 0 2.4.3 3.6.4 2.7.2 5.3.8 7.8 1.5l5.5 1.7h.6A23.7 23.7 0 0164 7.4a34 34 0 014.1 0c1.7 0 3.3.3 5 .5.7 0 1.5.4 2.3.4l1.2-.3 6.1-1.4c1.6-.3 3.2-.4 4.7-.5a36.7 36.7 0 0119.5 3.6c1.8 1 3.6 2 5.1 3.4l3 2.7c1.2 1.2 2.3 2.4 3 4 .6 1.2 1 2.4 1 3.6.2 1.6.4 3.2.3 4.8l-.3 4.6c-.4 3.4-1.1 6.8-2 10.1a117 117 0 01-13.4 30.5l-1 1.6c.8.6 1.8.8 2.8 1h3l4.5-.5c1.5-.2 3-.7 4.5-.6 1.5.1 2.7 1.3 2.5 2.8zm-22-3.4l-2-2.5c-1-1.4-1.7-2.9-2.4-4.4l-2.2-4.2-3.8-7.4a31.3 31.3 0 01-3-10c-.1-1.4-.1-2.9.2-4.4a8 8 0 013.7-5.4c2-1.1 4-1.5 6.2-1.6h4.1v-.3c-.9-1.8-1.7-3.7-2.7-5.4a34.3 34.3 0 00-9.6-11.2A32.6 32.6 0 0061 11.5a19.1 19.1 0 00-11.6 7.7 36.8 36.8 0 00-5.4 13.2l-.7 4.1L43 38l.9-.4.8-.4c3-1.4 6.1-2.3 9.5-2.2 1.4 0 2.7.4 4 1a8.2 8.2 0 014.4 5.8c.5 1.7.8 3.5 1 5.3.3 1.4.5 2.8.5 4.3 0 2 0 4.1-.2 6.2 0 1.7-.4 3.5-1 5.1l-3.6 9-1 3h2a7 7 0 015.4 6.8v3.1a3615.2 3615.2 0 00.1 16.7 186.7 186.7 0 00.9 8.4c.2 1.6 1 3 1.8 4.5a8 8 0 003 2.9 9.5 9.5 0 006.6.8l4.5-1.2a9.6 9.6 0 006.2-6c1-2.7 1.4-5.5 1.8-8.3l.4-3 .4-3.6.4-2.7.4-3.8.3-3 .4-3.7c.1-1 0-2 .2-2.9a5.8 5.8 0 012.7-4.1l2-1v-.2zm-57.6-7c-.7-1.8-1.2-3.7-1.3-5.7-.1-1.8 0-3.6.3-5.4.1-1.8.3-3.5.3-5.3.1-3 0-5.8-.2-8.7a46.8 46.8 0 013-17.5c.8-2.3 1.9-4.6 3.3-6.7l3.2-4-.3-.2a53.7 53.7 0 00-16-2.7H31l-4 .5c-2.2.4-4.3 1.1-6.3 2.3-1.8 1-3.3 2.4-4.5 4a18.4 18.4 0 00-3 5.9c-.7 2.5-1.1 5-1.2 7.7-.1 2.3-.2 4.6.2 6.9l.9 5.1 1.4 7 2.5 9.7a149.8 149.8 0 006 16.5c.7 1.6 1.6 3 2.5 4.5 1 1.6 2 3 3.5 4.2 1.8 1.4 3.3 1.6 5.2 0 .8-.6 1.4-1.4 2.2-2.2l3.3-3.8 4.2-4.8 1-1-.6-.4a17.7 17.7 0 01-4-6zM94 19.8a37.9 37.9 0 018 13.3c.6 1.4 1 2.9.9 4.4l-.3 3.3c0 1-.2 1.9-.3 2.8l-.5 4.1v4l.5 4c.1 1.5.3 3 .3 4.6 0 1.2 0 2.5-.2 3.7a15 15 0 01-1 4.4l-1.4 2.9.2.2.3.2.3-.5a93.6 93.6 0 009.5-19.3 86.8 86.8 0 005.5-22.9c0-1.6 0-3.2-.2-4.8a6.5 6.5 0 00-1.2-3.5 21.8 21.8 0 00-4.2-4.3c-1.4-1-2.8-2.1-4.3-3a27.1 27.1 0 00-7.5-2.9 38 38 0 00-7.8-.9c-1.6 0-3.2.2-4.7.3l-4.2.6L86 13c3 1.8 5.6 4.1 8 6.8zM55.3 72.5c1-3 2.3-6 3.5-9a23.1 23.1 0 001.8-11.3 44.6 44.6 0 00-1.4-9.6c-.4-2-1.6-3.3-3.6-3.8a9.1 9.1 0 00-3.6 0c-3 .4-5.8 1.5-8.4 3.1-.5.4-.8.6-.7 1.4.2 1.5.3 3.1.3 4.7l-.2 6.7-.2 2.2a14.5 14.5 0 000 6.7c.9 3.5 2.8 6.4 5.8 8.4 1.9 1.3 4 1.9 6.3 2l.4-1.5zm-3.6-30c-.4-1-.2-1.6.8-2l.7-.1h1c1.1 0 2.3.1 3.2.9.7.5.8 1.1.4 1.8-.5.9-1.4 1.4-2.5 1.5-1.7.1-2.9-.7-3.6-2.2zm47-.4l.4-3.4c0-.4-.1-.5-.5-.5L95 38c-1.3 0-2.7.2-3.9.7a4.5 4.5 0 00-2.9 3 9 9 0 00-.2 3.4c.1 1.7.5 3.5 1.1 5.1A74 74 0 0092 57c1.4 2.9 3 5.7 4.5 8.5l1.2 2.4c.8-1.8 1.3-3.7 1.3-5.6 0-1.6 0-3.2-.2-4.8l-.3-3-.3-4c0-1.5 0-2.9.2-4.3 0-1.3.3-2.6.5-4zm-2.6-1c-.5 1.2-1.4 1.8-2.7 2a3 3 0 01-2.8-1.1c-.6-.6-.4-1.4.4-1.9 1-.5 2-.6 3.1-.7l1.3.3c.7.2 1 .7.7 1.3zM60.6 78.6c-.6-.5-1.5-.6-2.1 0-.8.7-1.5 1.6-2.1 2.4-.8 1-1.6 2-2.6 2.7-1.4 1-3.2 1.5-4.9 2l-4.1.9v.2l1.2.5c2.1.7 4.2 1 6.5.8 1.6-.1 3-.5 4.5-1.1 2-1 3.5-2.5 4.8-4.2.3-.3.4-.7.4-1.1 0-1.3-.6-2.3-1.6-3.1zm51.8.5l-5 .5-2.6-.2a8.5 8.5 0 01-3.9-1.1 2 2 0 00-2-.3c-1 .4-1.8.9-2 2-.2.8-.3 1.5-.3 2.3l.2.4 2.4.6h3l3.3-.3a18 18 0 007.1-2.6L115 79v-.1c-.9 0-1.7.2-2.5.3z" clip-rule="evenodd"/></svg>