<svg viewBox="0 0 512 512"><path d="M348 326.6c-19 0-36.8-7.5-50.1-21.1a20 20 0 0128.6-28 30 30 0 1021.5-51H20a20 20 0 110-40h328a70.1 70.1 0 010 140zm-95-40.1c0-11-9-20-20-20H20a20 20 0 100 40h213c11 0 20-9 20-20zm-152 80c0-11-9-20-20-20H20a20 20 0 100 40h61c11 0 20-9 20-20zm221.2 115.6a91.7 91.7 0 00103-91 20 20 0 10-40 0 51.7 51.7 0 01-65 50 20 20 0 00-20.5 6.5A66.8 66.8 0 01248 472c-37.6 0-67-29-67-66v-39.5a20 20 0 00-40 0V406c0 28.6 11.2 55.3 31.5 75.3A107 107 0 00248 512c28 0 54.4-10.8 74.2-30zM490 336.6A161.9 161.9 0 00382.3 96.2 121.7 121.7 0 00263 0c-67.3 0-122 54.7-122 122v4.5a20 20 0 0040 0v-4.2-.4a82 82 0 01163.7-6.6 20 20 0 0018 18.3A121.6 121.6 0 01472 255c0 21.6-5.7 42.9-16.6 61.4a20 20 0 1034.6 20.2zM101 126.5c0-11-9-20-20-20H20a20 20 0 100 40h61c11 0 20-9 20-20zm0 0"/></svg>