<svg id="pycharm" viewBox="0 0 128 128"><defs/><g id="plain"><path d="M96.4 40.5H96a23.6 23.6 0 00-23 17.7h-.1a20.2 20.2 0 01-40-3.8 16 16 0 010-2.2l.1-.5.2-.8A64 64 0 0166.8 7a49.2 49.2 0 00-63 43c0 .2 0 .4-.2.6v72h29.2V99.4a49.2 49.2 0 0067.5-58.9h-3.9z" class="cls-1"/><path d="M68 57.3V57a28.4 28.4 0 0127.6-21.5h13.9a15.1 15.1 0 006.2-1.6l-1.4-.2A20 20 0 0199 20.3a20 20 0 0012 7.5 19.8 19.8 0 0011.9-1.4 15.2 15.2 0 00-13.9-21.3H95.6a58.9 58.9 0 00-57.5 46.3 15 15 0 00-.4 3 15.3 15.3 0 0030.2 3zm36.4-43.4a4.7 4.7 0 113.7 5.6 4.7 4.7 0 01-3.7-5.6zm20 93.8a15.2 15.2 0 01-15.2 15.2H95.6A58.6 58.6 0 0157 108.5a54 54 0 0034.8-16.3 29.4 29.4 0 003.7.2H109a15.3 15.3 0 0115.3 15.3z" class="cls-1"/></g></svg>