<svg viewBox="0 0 128 128"><path d="M49.3 62h29.2C86.6 62 93 55.1 93 47V19.2c0-8-6.6-13.9-14.6-15.2a90.7 90.7 0 00-29 0C37.2 6.2 35 10.8 35 19.2V30h29v4H23.8c-8.5 0-16 5.1-18.3 14.8a54 54 0 000 29.5C7.6 87 12.5 93 21.1 93H31V80c0-9.7 8.4-18 18.3-18zm-1.8-39.1c-3 0-5.5-2.5-5.5-5.6 0-3 2.5-5.5 5.5-5.5s5.5 2.5 5.5 5.5c0 3.1-2.5 5.6-5.5 5.6zm74.8 26c-2.1-8.5-6.1-14.9-14.6-14.9H97v13c0 10-8.8 18-18.5 18H49.3c-8 0-14.3 7.3-14.3 15.3v27.8c0 8 6.7 12.6 14.5 14.9 9.2 2.7 18 3.2 29 0C86 120.8 93 116.5 93 108V97H64v-4h43.7c8.5 0 11.6-5.8 14.6-14.7 3-9.1 2.9-17.8 0-29.5zm-42 55.5c3 0 5.5 2.5 5.5 5.6 0 3-2.4 5.5-5.5 5.5a5.5 5.5 0 010-11.1z"/></svg>