<svg viewBox="0 0 128 128"><path fill-rule="evenodd" d="M109.7 14.7a46.5 46.5 0 00-37.5-2A56.5 56.5 0 0044 34.3a166 166 0 00-25.2 56.3c-2.5 10.4-4 21.4-3.6 32.2l.2 3.1h60.4c-.2-2-.3-1.4-.5-1.8-3.1-8.1-5.6-16.7-7.4-25.2a91.4 91.4 0 01-1.2-37 47 47 0 0130.1-36.4A24 24 0 01123 30h.4l2.6-3.8c-5-4.7-10.4-8.4-16.3-11.4zM3.3 94.4L2 105.8l11.1 1.4 2-12-11.8-.8zm21.9-34.2l-10.5-4-3.4 9.5L22 69.1l3.2-8.9zM74.6 114l11.1.6-4-8.3c-.2-.3-.7-.6-1-.6h-9.3l2.1 7.5c.1.3.7.7 1.1.8zM43 31l-8-5.3-6.3 7.1 8.2 5.5 6.1-7.3zm25.4 53.4c0 .3.2.8.5 1l9 3.8-.4-6.6c0-.4-.2-1-.5-1.1l-8.2-4.4-.4 7.3zm-2.4-72.2l-5.4-6.2-7.5 4 5.4 6.6 7.5-4.4zm3.4 49.2c-.1.3 0 1.1.4 1.4l7 6 1.5-6.7c0-.4 0-1-.3-1.2-2-1.6-4-3-6-4.7l-2.6 5.2zM81.8 9h8.5L89.5 4c-.1-.4-.8-1-1.2-1-2.8-.3-5.6-.4-8.7-.5.4 2 .7 3.8 1.2 5.6 0 .4.6 1 1 1zm3.4 35.6v-1l-4.3-6.4-4.7 4.4 6.6 7.3 2.4-4.3zm5-14.5l3 5.3c4.4-2.5 4.8-3.3 3.2-6.9l-6.1 1.6zm21.4-16.3c1.8 1.2 3.8 2.1 5.8 3.2l1.3-2-7.4-5.5c-.1 1.1-.3 1.9-.2 2.7 0 .5.1 1.4.5 1.6zM109 30.6l7 .7v-2.7l-7-1.4v3.4z" clip-rule="evenodd"/></svg>