<svg viewBox="0 0 128 128"><path d="M77.6 92.4l-.1.1-1.7 1.7c-1.4 1.1-3-.1-4-.7-2.3-1.3-4.1-.5-4.6.5-.4 1 .1 2.3 1.3 2.1 1.7-.2 1.8 0 3.1.8 2.4 1.5 4.1.7 4.9 0 .7-.6 1.1-1.1 1.5-1.8.7-1.3.1-2.4-.2-2.7h-.2zM74.9 17h-.4c-.7 0-1.4.3-2.1.4-2.4.2-4.5 1-5.9 1.7l-.1-.1.2-.1 1.2.2c3.9-.4 7.1.4 7.3 1.6.1.9-1.6 1.9-4.1 2.5l-.2.3.2.3c1 .3 2.3.5 3.6.5 4 .1 7.3-1.6 7.3-3.5.2-1.8-3-3.8-7-3.8zM64 1.8A62.3 62.3 0 004.9 84h4.3c3.8 0 7.4-.9 10.4-2.4.8-.4 1.6-.6 2.5-.6 1.9 0 3.6.8 4.6 2.5a7.2 7.2 0 006.6 4.1c.8 0 2.1-.2 2.4-1.1.4-1-.1-1.7-1.3-2.2-1.7-.7-2.1-1.7-3-3.3-.9-1.6-2.8-2.4-3.1-5.4-.3-3 2-6.7 6.6-5.5 3.3.9 5.4 4.9 6.2 6.3.4.7 1.9 1.6 3.1.5 1.2-1.1 2.3-1.1 3.2.3.8 1.2 6.4 8.7 12.5 8.9 6.2.2 9.5-1.4 12.2-1.3 1.9.1 2.8 1 3.9 1.2 1.9.3 3.2-1.4 5.3-1.3 1.7.1 3.5 1.2 5.4 1.2s5.9-2.3 5.8-1.3c-.1 1.7-1.4 4.6-1.7 6-.2.9 0 3.2-.6 5.1-.5 1.9-2.2 4.2-2.7 4.9-1.5 2.3-2.6 3-3.9 5.4-1.4 2.7-3.7 5.2-4.3 6-.8 1 4.3 0 6.1-1.7 1.5-1.4 4.2-5.8 8.5-6.8 2.9-.6 3.4-1.7 3.1-2.8l-.1-.4c0-.4.2-.7.6-.9a31.4 31.4 0 0118.9-1.1A62.4 62.4 0 0064 1.8zM114.8 63c-3 16.4-29.9 21.9-56 14-25-7.5-46.8-22.5-44.3-31.3 1.5-5.1 9.6-7.3 20.4-6.1-1.6 3.3-1.5 7.3 5.6 11.7 8.8 5 23.6 9.2 27.6 8.8 1.5-.1 2.8-.9 1.5-1.8-1.3-.9-2.5-2.7-3.3-5.8-.4-1.7-.9-4.2-10.3-6-20.2-3.9-19.4-9.6-18.8-12.8l2.5-10.9c.7-2.8 2.7-9.3 15.7-6.4 7.5 1.7 11.6-.4 13.6-.9 5.6-1.4 11.9-.4 15.3 3.1A69.1 69.1 0 0195.1 42c1.2 4.3.9 6.3.3 7.8-.4 1-.7 1.6-2.2 4.1-.3.4 0 .9.5.6 3.9-2 4.8-4.7 5.4-6.7 10.7 2.2 17 7.7 15.7 15.2zM57.6 27.5c-3 0-5.2.4-7.1.4s-3.4-1.3-4-2.2c-.6-.7-2.4-1.4-3.3.9-1 2.3.8 4.7 2.3 5 0 0 2.5 4.7 4.4 2.6 1.3-1.4 2.1-2.2 9.3-2.7 3.4-.3 3.8-1 3.7-1.9-.2-1-2.3-2.1-5.3-2.1z"/></svg>