<svg id="ruby_mine" data-name="ruby mine" viewBox="0 0 128 128"><defs/><g id="plain"><path d="M118 97.5c-1.2-2-12.2-18.3-13.1-20.2l-.4-.7.6-.5a39.6 39.6 0 0015.2-31.4v-1.1c0-8.7-2.8-17-7.7-22.8A33.4 33.4 0 0089 9.3v25.2c5 1.5 8.4 6.5 8.4 13 0 7.5-5.4 11.4-9.8 14.3l-1.8 1.1a14 14 0 00-6 12 22.1 22.1 0 001.7 8.2l1.6 3 16.2 25 .2.4 2.2 3.4a9.7 9.7 0 005.6 4 11.3 11.3 0 009.3-1.9 11 11 0 004.6-7.4l.2-2a19.6 19.6 0 00-3.5-10z" class="cls-1"/><path d="M83.9 9a32.4 32.4 0 00-8.5 1.8l-.7.3-2.4 1-1 .5L69 14a34.4 34.4 0 00-5.3 4.2A32.8 32.8 0 0041 8.9C22 8.9 6.5 25.5 6.5 46a.7.7 0 000 .1V117H30V46.1a.8.8 0 010-.1c0-6.5 5-11.8 11-11.8s11 5.2 11 11.7v.1a.7.7 0 000 .1V117h23.3V46.1v-.2l.1-.9v-.6a11.5 11.5 0 018.4-9.9V9z" class="cls-1"/></g></svg>