<svg viewBox="0 0 128 128"><path fill-rule="evenodd" d="M36 111.3l82 11.2-27.8-46.1-54.2 35zM125.7 25l-7.3 11-24.9 37.4c-.4.7-1 1.3-.4 2.4l24 39.7c1.2 2.1 2.5 4.2 4.1 6.2L126 25h-.3zM16.3 66.2c.3.4 1.3.6 1.7.4C25.7 62.8 33.4 59 41 55c2.4-1.3 4.3-3.7 6.4-5.7l21-19.2c.4-.4.9-.8 1.2-1.3l7.5-15-8.9-3.2c-.4-.1-1 .1-1.4.4C60 14.8 53 18.3 46.6 22.5c-3.3 2-6 5-8.9 7.7l-14 12.9a24 24 0 00-3.2 3.8l-9.4 14c1.8 2 3.4 3.7 5.2 5.3zm28-6.3l-11.5 48.9 54.3-35-42.7-13.9zM121 25.1l-46.2 7.7L90.5 71 121 25.1zM45 56.6l41.9 13.6-15.5-37.7L45 56.6zm-28.2 19l-14.6 35L30 110 16.8 75.6zm13.6 26.1h.4l10.1-42.3L18.5 71l12 30.7zm85-78.9L102 19.3l-19.3-5c-.8-.3-1.3-.4-1.8.6l-7 13.8v.7c13.9-2 27.7-4.2 41.4-6.3v-.3zm-26-10.5l36.4 10-6-17-30.3 6.6v.4zM33.6 114c-4.5-.5-9.1 0-13.7 0l-11.2.4c-.4 0-.8 0-1.2.5l93 8.6v-.4L70.8 119c-12.4-1.7-24.8-3.6-37.2-5zM2.8 100l12-27.8c.4-1 .3-1.6-.4-2.3l-5.1-5.2c-2.5 12.2-5 24.1-7.3 36l.2.2.6-1zM81.5 9.8c6.8-1.7 13.6-3 20.4-4.6l1.3-.3v-.4l-29.3 4c2.8 1.2 4.9 2 7.6 1.3z" clip-rule="evenodd"/></svg>