<svg viewBox="19 19 106 106"><path d="M123.6 70.7l-4.4-2.7-.1-1.3 3.8-3.5a1.5 1.5 0 00-.5-2.5l-4.9-1.8c0-.5-.2-.9-.3-1.3l3-4.2a1.5 1.5 0 00-1-2.3l-5.1-.9-.6-1.1 2.1-4.7a1.5 1.5 0 00-1.4-2.1l-5.2.1-.8-1 1.2-5a1.5 1.5 0 00-1.8-1.8l-5 1.2-1-.8.1-5.2a1.5 1.5 0 00-2-1.4l-4.8 2.1-1.1-.6-.9-5.1a1.5 1.5 0 00-2.3-1l-4.2 3a46 46 0 00-1.3-.3l-1.8-4.9a1.5 1.5 0 00-2.5-.5L77.3 25l-1.3-.1-2.7-4.4a1.5 1.5 0 00-2.6 0L68 24.8l-1.3.1-3.5-3.8a1.5 1.5 0 00-2.5.5l-1.8 4.9c-.5 0-.9.2-1.3.3l-4.2-3a1.5 1.5 0 00-2.3 1l-.9 5.1-1.1.6-4.7-2.1a1.5 1.5 0 00-2.1 1.4l.1 5.2-1 .8-5-1.2a1.5 1.5 0 00-1.8 1.8l1.2 5-.8 1-5.2-.1c-.5 0-1 .2-1.3.6-.3.5-.3 1-.1 1.5l2.1 4.7-.6 1.1-5 .9a1.5 1.5 0 00-1 2.3l3 4.2-.4 1.3-4.9 1.8a1.5 1.5 0 00-.5 2.5l3.8 3.5-.1 1.3-4.4 2.7a1.5 1.5 0 000 2.6l4.4 2.7.1 1.3-3.8 3.5a1.5 1.5 0 00.5 2.5l4.9 1.8c0 .5.2.9.3 1.3l-3 4.2a1.5 1.5 0 001 2.3l5.1.9.6 1.1-2.1 4.7a1.5 1.5 0 001.4 2.1l5.2-.1.8 1-1.2 5a1.5 1.5 0 001.8 1.8l5-1.2 1 .8-.1 5.2a1.5 1.5 0 002 1.4l4.8-2.1 1.1.6.9 5a1.5 1.5 0 002.3 1l4.2-3 1.3.4 1.8 4.9a1.5 1.5 0 002.5.5l3.5-3.8 1.3.1 2.7 4.4a1.5 1.5 0 002.6 0l2.7-4.4 1.3-.1 3.5 3.8a1.5 1.5 0 002.5-.5l1.8-4.9c.5 0 .9-.2 1.3-.3l4.2 3a1.5 1.5 0 002.3-1l.9-5.1 1.1-.6 4.7 2.1a1.5 1.5 0 002.1-1.4l-.1-5.2 1-.8 5 1.2a1.5 1.5 0 001.8-1.8l-1.2-5 .8-1 5.2.1a1.5 1.5 0 001.4-2l-2.1-4.8.6-1.1 5-.9a1.5 1.5 0 001-2.3l-3-4.2.4-1.3 4.9-1.8a1.5 1.5 0 00.5-2.5l-3.8-3.5.1-1.3 4.4-2.7a1.5 1.5 0 000-2.6zm-29.4 36.5a3.1 3.1 0 111.3-6.1 3.1 3.1 0 01-1.3 6zM92.7 97c-1.5-.4-3 .6-3.4 2.1l-1.5 7.3a38.1 38.1 0 01-32-.1L54.4 99a2.8 2.8 0 00-3.3-2.2l-6.5 1.4a38.1 38.1 0 01-3.3-4h31.3c.3 0 .6 0 .6-.3V83c0-.4-.3-.5-.6-.5h-9.2v-7h10c.8 0 4.8.3 6 5.3.4 1.6 1.3 6.6 1.9 8.2.5 1.8 3 5.4 5.5 5.4h16.1c-1 1.4-2.2 2.8-3.5 4l-6.6-1.3zm-43.2 10a3.1 3.1 0 11-1.3-6.2 3.1 3.1 0 011.3 6.1zM37.6 58.8a3.1 3.1 0 11-5.7 2.5 3.1 3.1 0 015.7-2.5zM34 67.6l6.6-3c1.5-.7 2.1-2.3 1.5-3.8l-1.4-3h5.4v24.4h-11A38.3 38.3 0 0134 67.6zm29.3-2.4V58h13c.6 0 4.7.7 4.7 3.8 0 2.5-3.1 3.4-5.7 3.4h-12zm47 6.5l-.1 2.8h-4c-.4 0-.5.3-.5.6V77c0 4.2-2.4 5.1-4.5 5.4-2 .2-4.2-.9-4.5-2.1-1.2-6.6-3.1-8-6.2-10.5 3.8-2.4 7.8-6 7.8-10.9 0-5.2-3.6-8.5-6-10a17 17 0 00-8.2-2.8H43.5c5.5-6.1 13-10.5 21.4-12l4.8 5c1 1.1 2.9 1.2 4 0l5.3-5c11.3 2 20.8 9 26.2 18.6l-3.6 8.3c-.7 1.4 0 3 1.4 3.7l7 3.2c.2 1.2.3 2.5.3 3.8zm-40.6-42a3.1 3.1 0 114.3 4.6 3.1 3.1 0 01-4.3-4.5zM106 59.2a3.1 3.1 0 115.7 2.5A3.1 3.1 0 11106 59z"/></svg>