<svg viewBox="0 0 128 128"><path fill-rule="evenodd" d="M1.2 56.2c0 .7.2 1.1.3 1.6.8 3 2.4 5.4 4.4 7.7a51 51 0 009.5 8.4l9 6.4c.6.3 1 .8 1.6 1.2l-1.3.7c-4 2-7.8 4.3-11.3 7A23 23 0 007.8 95c-2.3 3.7-3.1 7.6-1.4 11.7a7 7 0 002.4 3c.3.3.7.6 1.1.7l3.2.6h3c3.4-.3 6.5-1.4 9.2-3.4 4.4-3 7.3-7 8.5-12a21.3 21.3 0 00-.5-12.2l-.4-1 6.8-4h.1c0 .5-.2.9-.3 1.3-.8 3-1.4 6-1.2 9.1.2 3.3 1.1 6.4 3 9.1 1.6 2.3 5.4 2.4 7 .1a16 16 0 001.6-2.5l3.2-7 .2-.4-.2 3c0 1.5 0 3 .6 4.5.4 1.2 1.2 2.2 2.6 2.3 1 .1 1.7-.3 2.4-.9 1.1-.8 2-2 2.7-3.2 2-3.5 3.9-7 5.6-10.5 1.9-3.9 3.5-7.9 5.2-11.8l.3-.7c.4 1.6.7 3.2 1.2 4.7.6 1.7 1.4 3.4 2.2 5 .4.8.4 1.3-.2 2L69 90.6l-1.4 1.9c-.2.4-.4.9-.4 1.3-.2 1 .4 1.8 1.3 2 1 .2 1.9.3 2.7.2 3.1-.2 6-1.3 8.4-3.2 3.3-2.3 4.3-5.6 3.5-9.5-.2-1-.6-2-1-3 0-.5-.1-.8.2-1.2a97.8 97.8 0 007.1-12 30 30 0 003.5 9.7l-2.7 2.6c-1.8 1.9-3.3 4-4.1 6.6a7.8 7.8 0 00-.5 3.4c.2 1.8 1.7 3 3.5 2.6 3.9-1 7.2-2.7 9.7-6 1.6-2.1 1.7-4.5 1-7-.1-.8-.4-1.4-.6-2.2l2.8-.9c5-1.1 10-1 14.7.9 2.8 1 5.1 2.8 6.5 5.5 1.6 3.4.7 6.6-2.5 8.8l-.9.6-.2.6c0 .2.4.3.5.3 1 0 2-.5 2.8-1.1 2-1.4 3.5-3.3 3.8-5.8v-1.8-.3c-.4-3.6-2.4-6.5-5.2-8.7a19 19 0 00-11.3-3.8c-3.3-.1-6.6.4-9.7 1.5l-2.7 1.1-.4-.6c-.9-2-2-3.8-2.3-6-.1-1.5-.3-3 0-4.5l1.3-4.4c.2-.7 0-1.2-.7-1.5l-.8-.3c-1.7-.2-3.4 0-5.1.4-.6.2-1 .5-1.2 1.2 0 .4-.2.7-.3 1.1-.5 1.6-.8 3.2-1.5 4.7-1.8 3.7-3.9 7.3-6 10.9l-.7 1.2c-.7-1.5-1.5-3-1.8-4.5a14 14 0 010-5.5c.3-1.4.8-2.7 1.2-4 .2-.7.1-1-.5-1.4-.3-.1-.6-.3-1-.3-1.7-.3-3.5-.2-5.3.4-.5.2-.8.5-1 1.1-.5 1.7-.9 3.3-1.6 5l-8.4 19-2 3.8-.6 1-.3-.5v-2.5l1.7-7c.4-2 1-4 1.5-5.9.2-.6.2-1.2-.3-1.8-.8-.9-2.4-1.1-3.4-.4l-.4.2.1-.6c.2-1.5.2-3-.2-4.5-.5-1.8-1.8-2.8-3.6-2.8a8 8 0 00-2.7.5c-3.4 1.4-6 3.8-8.2 6.6l-.8.7-8.7 4.7-3.2 1.8-2.6-2.4-8.2-6.6c-2.5-2-4.8-4-6.6-6.6-1.4-1.9-2.2-4-2.3-6.3a15 15 0 012.3-8.4c2-3.3 4.6-6 7.6-8.3A75.5 75.5 0 0146.2 27a42.4 42.4 0 0117-2c2.2.3 4.4.8 6.4 2 1.6.8 2.9 1.9 3.5 3.6.6 1.8.5 3.5.1 5.2-.8 3.6-2.7 6.5-5.2 9-4 4.4-8.8 7.3-14.3 9.2a39.5 39.5 0 01-9.8 2c-2.7.3-5.4 0-8-.9-1.7-.6-3.2-1.6-4.4-3-.2-.2-.4-.5-.8-.3-.4.3-.5.6-.4 1 .2.6.4 1.3.8 1.8.8 1.4 2 2.5 3.5 3.3a17 17 0 008.6 2.4c4.7.2 9.2-.5 13.7-1.7 6.4-1.8 12-5 16.4-10 3.7-4 6.3-8.7 6.9-14.3a14 14 0 00-1.3-8 14.4 14.4 0 00-6.3-6.1c-3.8-2-8-3.2-12.3-3.2H56c-5.2 0-10.3 1.5-15.2 3.3A104 104 0 0030 25 70.3 70.3 0 009.2 39.8a31 31 0 00-7.9 14.5m27.8 36c-.3 4.5-2.3 8.1-5.6 11-1.9 1.7-4 2.9-6.5 3.3-.9.1-1.8.2-2.7-.2-1.2-.5-1.5-1.6-1.5-2.8 0-1.9.6-3.6 1.5-5.2 1.2-2.1 2.9-3.7 4.7-5.2 3-2.4 6-4.4 9.3-6.2l.2-.1c.5 1.8.8 3.6.6 5.5zM54.3 71a124.7 124.7 0 01-6.2 18.2l-1.4 2.4-.3.3c-.6.6-1.1.6-1.4-.2l-.7-2.7-.2-1.9c0-4.5 1.5-8.6 3.8-12.4 1-1.5 2-3 3.6-4 .5-.3 1-.6 1.6-.7.8-.3 1.3.1 1.2 1zm17.2 21.8l6.1-7.2c.3 2.7-4.3 8-6.1 7.2zM91.2 88l-1.4.7c-.4.2-.5 0-.5-.4v-.7c.9-3 2.4-5.5 4.7-7.5h.2c1 3-.2 6.3-3 7.9z" clip-rule="evenodd"/></svg>