<svg viewBox="0 0 1800 1800"><path d="M303.2 1731.6a226.5 226.5 0 00188.2-49c28.7-24.3 50.7-55.5 71.9-86.7a1595.6 1595.6 0 00163.2-305.8c58.8-147.2 158.4-591 249-749.6C1046 417 1144 349.2 1221.6 353.3c84.7 4.4 129.3 64.1 132.5 127.2 3.2 63-51.3 133.5-110 156.7 37.2-14.7 73.4-33.8 97-67.7a151.7 151.7 0 00-68.2-229.9c-137.9-53.5-252 41.4-324.5 153.6-159.6 247-198.5 660.3-329.2 909.4 12.1-53.3-2-152.8-26.8-201.5-24.7-48.7-44.2-97-63.3-148.3-23.4-62.8-33.6-142.9-31.8-222.6 14.1 55.3 50.2 136 83.4 182.3-20.5-80.6-53.4-164.6-56.9-254.7 25 69.3 55.7 147.8 99.5 207-36-92.3-72.5-188-67.7-286.9 7.7-163 124.8-300.8 158-460.5a363.7 363.7 0 0125.7 221.2c27.2-100.1 67.6-199.6 139-274.8 71.5-75.2 179-122.4 280.3-100.5a258.7 258.7 0 00-64.1 100.2c60.1-64 157-91 241.6-67.4a247.4 247.4 0 01171.7 182.8 75.1 75.1 0 00-65.6-42.3c37.9 51 73.5 107.5 77.6 170.9 4.9 73.3-33.3 142.7-78.2 201-25.3 32.8-53.5 64-87.7 87.5-31.6 21.6-67.6 36-101.6 53.5-66.9 34.4-132 90-140.4 164.7a330.3 330.3 0 0139-281.4c37-55.2 94-109.6 82.6-175.1l27 37c0-31-2-66.2-26.2-85.5-23.5-18.7-59.7-13-83.3 5.5-23.6 18.5-37.3 46.8-48.4 74.7a742.7 742.7 0 00-39.1 133.1l45.4-45.4c-36.8 202.3-141.8 372.8-222.8 513 93-70 143-130.9 143-130.9 10.5 68.9-128 146.6-191.7 260.9 64.4-79.5 112.1-63 198.7-179.6-34.5 100.7-131.1 175.4-193.9 261.5l-217.9 298.5c-43 59.1-89.7 121-157.7 148a199 199 0 01-188.2-24.3"/></svg>