<svg id="sequelize" viewBox="0 0 128 128"><defs/><g id="plain"><path d="M101.8 41.7V86l-37.6 22.3-.4.3v16.6l.4.3 53-30.6V33l-.5-.1-15 8.4v.3" class="cls-1"/><path d="M26.4 86.4l37.8 22v17.1L10.8 94.8V33.2h.5l15 8.6.1.5v44.1" class="cls-1"/><path d="M26.4 42.3l-15.6-9L64 2.4 117.2 33l-15.4 8.6-37.7-21.5-37.7 22.1M30 84V65.9l.5.2L45 74.6h.1v17.6l-15-8.2M83.3 92.6V75l14.3-8.4.5-.3v17.5l-14.8 8.8M64.8 103.5l-.4-.5V86l.5-.2 14.3-8.3.5-.3v17.5l-14.8 8.8" class="cls-1"/><path d="M49.8 95.2v-18l.4.2 14.5 8.4.1 17.7-15-8.3M63.3 23l-14.8 8.7 15 8.8 14.8-8.7-15-8.9M30 60.4V42.5h.5L45 51l.1.3v17.3l-15-8.2" class="cls-1"/><path d="M44.9 33.8L30 42.6l15 8.7L60 42.7l-15-8.9M83.3 69V51.3L97.7 43l.5.1v17.1L83.3 69" class="cls-1"/><path d="M83 34.2L68.2 43l15 8.8L98.2 43 83 34.2M64.8 79.8l-.4-.4V62.8l.4-.2.1-.4 14.3-8.4.5.2v17L64.9 80" class="cls-1"/><path d="M49.8 71.6V53.8h.4l14.5 8.5.1.3v17.2l-15-8.2" class="cls-1"/><path d="M64.6 45l-14.8 8.8 15 8.8 14.8-8.7-15-8.8" class="cls-1"/></g></svg>