<svg id="Sketch" viewBox="0 0 128 128"><defs/><g id="line"><path d="M63.8 118.6l-61-70.4v-.3l26.6-35.5h.2L64 8.6l34.4 3.6.2.1L125.2 48v.3l-61 70.4zM3.3 48L64 118l60.7-70-26.5-35.2L64 9.2l-34.3 3.6z" class="cls-1"/><path d="M63.8 118.6l-61-70.4.2-.5h24.7l.2.2 36.3 70.4zM3.5 48.3l59.3 68.4-35.2-68.5z" class="cls-1"/><path d="M64.2 118.6l-.4-.2L100 47.8l.2-.1H125l.2.4zm36.2-70.3l-35.2 68.4 59.3-68.5z" class="cls-1"/><path d="M64.2 118.6h-.4L27.5 48l.2-.4h72.6l.2.4zm-36-70.3L64 117.8l35.9-69.7z" class="cls-1"/><path d="M27.9 48.2l-.4-.2 1.9-35.4.2-.3L64 8.7l.2.4zm2-35.4L28 47.3l35.4-38z" class="cls-1"/><path d="M100.1 48.2l-36.3-39 .2-.5 34.4 3.6.2.2 2 35.5zm-35.5-39L100 47.4l-1.9-34.5z" class="cls-1"/><path d="M125 48.3h-24.7l-.3-.3-1.9-35.4.5-.2 26.6 35.4zm-24.5-.5h24L98.7 13.4z" class="cls-1"/><path d="M100.3 48.3H27.7l-.2-.5 36.3-39h.4l36.3 39zm-72-.5h71.4L64 9.3z" class="cls-1"/><path d="M27.7 48.3H3l-.2-.4 26.6-35.5.5.2L28 48zm-24.2-.5h24l1.9-34.4z" class="cls-1"/></g></svg>