<svg id="slack" viewBox="0 0 128 128"><defs/><g id="plain"><path d="M53 59l5.4 15.4L75 69l-5.4-15.4L53 59z" class="cls-1"/><path d="M53 59l5.4 15.4L75 69l-5.4-15.4L53 59z" class="cls-1"/><path d="M121 47.5C108 6.3 89.5-3.4 47 9S-5.8 39.3 7 80.5s31.4 50.8 74 38.5 52.7-30.3 40-71.5zM99.2 74.3l-8 2.6 2.8 8a6.2 6.2 0 01-4.1 7.9 6.6 6.6 0 01-2.2.3 6.4 6.4 0 01-6-4.2l-2.7-8-16.6 5.3 2.8 8a6.2 6.2 0 01-4.1 7.9 6.6 6.6 0 01-2.2.3 6.4 6.4 0 01-6-4.2l-2.8-8-8 2.6a6.6 6.6 0 01-2.2.3 6.4 6.4 0 01-6-4.2 6.2 6.2 0 014.1-7.9l8-2.6-5.3-15.5-8 2.6a6.6 6.6 0 01-2.2.3 6.4 6.4 0 01-6-4.2 6.2 6.2 0 014.1-7.9l8-2.6-2.8-8a6.2 6.2 0 014.1-7.9 6.5 6.5 0 018.2 4l2.7 8 16.6-5.4-2.8-8a6.2 6.2 0 014.1-8 6.5 6.5 0 018.2 4l2.8 8 8-2.6a6.5 6.5 0 018.1 4 6.2 6.2 0 01-4 7.8l-8 2.6L87.2 65l8-2.6a6.5 6.5 0 018.2 4 6.2 6.2 0 01-4 7.9z" class="cls-1"/></g></svg>