<svg viewBox="0 0 128 128"><path d="M64 .7a63.3 63.3 0 10.1 126.7A63.3 63.3 0 0064 .7zM67.3 121v-11L94.8 96a2 2 0 001-1.7V88a6 6 0 004-6.3A6 6 0 1088 83a6 6 0 004 5v5.2l-24.6 12.4V95.3l10.9-5a2 2 0 001.1-1.8v-17l20.1-11.3c.6-.3 1-1 1-1.7v-4.7a6 6 0 00-2.6-11.6 6 6 0 00-1.3 11.6v3.6l-20 11.2c-.7.4-1 1-1 1.7l-.1 17-8 3.7V54.2l16.8-8.3a2 2 0 001.1-1.7v-6.3a6 6 0 004-6.3 6 6 0 00-6.6-5.3 6 6 0 00-5.3 6.6 6 6 0 004 5v5l-14 7V28.5a6 6 0 10-8-5 6 6 0 004 5v34.6l-10-5.2V42.3a2 2 0 00-.7-1.6L46 35.5a6 6 0 10-2.6 3l6.3 4.7v16a2 2 0 001 1.7l12.8 6.8v12.7l-21.3-9.9.2-7.7a2 2 0 00-1-1.9l-9.8-5a6 6 0 00.1-2 6 6 0 00-11.9 1.3 6 6 0 006.6 5.3 6 6 0 003-1.3l9 4.7-.2 7.8a2 2 0 001.1 1.8l24.2 11.2v9a2 2 0 000 .6V121a57.5 57.5 0 01-6-.4v-23a2 2 0 00-1.2-1.7l-15.2-7a6 6 0 00-6.6-6.5 6 6 0 105 10l14 6.5V120a57 57 0 1114 .9z"/></svg>