<svg viewBox="0 0 128 128"><path d="M34.3 109.2c-3.6 0-8.6 3.7-8.6 7.9 0 2 1.3 3 3.2 3 3.4 0 8.8-3.6 8.8-8 0-2.1-1.5-3-3.4-3zM46 28.9c0-3.6-2.6-6.4-6.4-6.4a6.4 6.4 0 00-6.6 6.4 6.5 6.5 0 1013 0zM64 13.6c0-2.8-1.8-6.3-5.7-6.3-3.5 0-5.3 3-5.3 5.9 0 2.6 1.9 6.6 5.7 6.6 3.5 0 5.3-3.5 5.3-6.2zM48.4 117.1c-3.2 0-7.7 4.2-7.7 7.4 0 1.6.7 2.4 2.4 2.4 2.3 0 5.7-2 7.1-4.8l.8-1.7v-1.6c-1-1.4-1.7-1.7-2.6-1.7zm-20-19.9c0-2.8-2-3.9-4.3-3.9-3.4 0-9.2 3.3-9.2 7.9 0 2.6 1.8 3.8 4.3 3.8 3.2 0 9.3-2.9 9.3-7.8zm-4-39c3.4 0 8-2.4 8-7.2 0-3.6-3-5.8-6.2-5.8-3.6 0-8.2 2.4-8.2 7 0 3.7 3 6 6.4 6zm1.8 17.4c0-3.4-2.7-4.9-5.6-4.9h-1c-4.2.4-8.1 4-8.1 7.6 0 3.4 3 4.9 5.8 4.9 3.4 0 8.9-2.7 8.9-7.6zm80-66.2c-2.6 0-3.4 4-3.4 5.3 0 1.2.4 4 2.6 4 2.6 0 3.4-3.9 3.4-5.2 0-1-.5-4-2.6-4zm-12.5-7c-3 0-3.9 3.6-3.9 5.3 0 1.2.7 5.2 3.6 5.2 2.8 0 3.8-3.7 3.8-5.5 0-1.5-.6-5-3.5-5zm20.7 17.5c-2.3 0-3.2 3.9-3.2 5 0 1 .4 3.4 2.2 3.4 2.3 0 3.1-3.8 3.1-5 0-.8-.3-3.4-2-3.4zm-24.7 86.7c-2.6 0-4.5 4.1-4.5 5.7 0 .9.2 1.7 1.4 1.7 2.7 0 4.6-4 4.6-5.7 0-.8-.3-1.7-1.5-1.7zm-26.6 11.7c-3 0-6.5 4-6.5 6.8 0 .5 0 1.3.8 1.8.7.5 2.1.5 3.8-.6 2.3-1.5 3.8-4.2 3.8-6 0-1-.6-2-1.9-2zM77.2.8c-3.2 0-4.5 3.8-4.5 5.9 0 2.1 1.6 5.9 4.8 5.9 3.2 0 4.4-3.9 4.4-5.8-.1-2.5-1.2-6-4.7-6zm0 113.5c-3 0-5.4 4.2-5.4 6.4 0 1 .5 1.7 1.6 1.7 2.7 0 5.4-4 5.4-6.2 0-1-.2-1.9-1.6-1.9z"/></svg>