<svg id="Stylus" viewBox="0 0 128 128"><defs/><g id="original"><path d="M20.6 85.4c3.3-3.9 3.7-8 1.1-15.4-1.5-4.7-4.2-8.3-2.3-11.3 2.1-3.1 6.5 0 2.9 4.1l.7.5c4.4.5 6.6-5.5 3.3-7.2-8.7-4.6-16.3 4.2-13 14.2 1.5 4.3 3.5 8.8 1.9 12.5-1.4 3-4.1 4.9-6 5-3.8.1-1.2-8.6 3.1-10.8.4-.2 1-.5.4-1-5.3-.7-8.5 1.8-10.3 5.3-5.3 10.1 10 13.9 18.2 4zM115.3 55.7c1.3 3 3.2 6 2 8.7-.9 2.3-2.1 3.3-3.4 3.5-2 .3-1.4-5.6 1.8-7.3.3-.2.7-1 .3-1.4-4-.2-6.4 1.7-7.6 4.3-3.6 7.6 8.2 9.7 14 2.2 2.2-3 2.3-5.9.1-11.2-1.4-3.4-3.5-5.9-2.2-8.1s5-.4 2.3 2.8l.6.3c3.4.2 4.7-4.2 2.2-5.4-6.8-2.9-13 4.4-10 11.6z" class="cls-1"/><path d="M72.7 47.6c-2.3-1.9-8.8 1.2-10.7 5.8a72.6 72.6 0 01-9.2 18.1c-3.5 4-3.9 1-3.5-1.4.8-5.3 6-17.6 8.9-21-1.1-1.7-8-1.4-12.8 6-1.8 2.8-5.8 12.1-10.4 19.5-1 1.6-2.2.5-1.3-3.2 1.1-4.4 4.3-16.2 8.4-25.5 10.8-2.1 22.2-3.6 31-3.7 1.2-.3 2-1.3 0-1.4-7.5-.3-18.9.6-29.5 2 2-4 4.2-7.3 6.4-8.7-2.4-1.5-7.3-1-10 3.2a55 55 0 00-3.8 6.5c-7.7 1.2-14.4 2.6-17.7 3.9s-3.2 5.5-1 4.7a141.7 141.7 0 0117-4.9C30.3 57.1 27 68.4 26.2 73c-2 11.2 5 11.1 8.3 6.7C38.2 74.9 46 57.9 47 56.1c.3-.6.8-.2.6.3-8.6 17-7.8 23.7-1 22.2 3.2-.7 8.6-6 10-8.8.3-.7.9-.6.8-.3-5.4 14-12.3 25.4-17 29-4.1 3.2-7.3-3.8 7.6-13.8 2.2-1.5 1.2-3.5-1.3-2.8A133 133 0 007.4 96.8c-.8.5-1.4.9-1.4 2 0 .6 1 .3 1.6 0A102 102 0 0142 86a.7.7 0 00.6 0c.5-.2.5.1.1.3l-1.8 1c-7.9 3-12.7 9.9-11 13.3 1.5 3 9.2 2 12.9 0 9-4.9 15.5-14.5 20-27.7 3.9-11.7 8.8-24.9 10-25.3zM125 74.6c-14.6-1.9-46.2.7-60.1 4.4-4.2 1-3 3.2-1 2.8l1-.2c11.5-2.2 39.3-4.2 55.5-1 1.9.3 7.7-5.6 4.6-6zM76.8 72.9C81 70.9 87 58.2 91 51.3c.3-.5.8-.1.5.3-10 17.3-5.8 19.3-1.8 19 5.4-.3 10.3-8 11.4-9.6.5-.7.7-.1.5.3-.3.9-1.2 2.3-2 4.2-1.3 2.7 0 3.7 1 4.2 1.7.8 6.3.3 7-2.5-4.6 0 6.3-21.4 7.4-22.8-3-1.7-7.7.2-9.9 4.4-4.5 9-8.3 16.3-10.7 16.4-4.7.3 5.3-20 7-20.7-1-1.5-7.4-.9-11 4.6-1.2 2-9 15.8-11 18-3.3 4-3.5.6-2.6-3.4a47.3 47.3 0 011.6-5c2.2-5 4.6-6.7 6-8.3 10-11 15.6-19.8 13.3-23.3-2-3.1-8.5-1.7-12.8 4.6-7.8 11.7-15 27.8-16 35.1s4.4 7.9 8 6zM81 51.4c.3-.8.6-1 1.2-2.3C85.7 41.3 90 33.2 93 29.4c1.9-2 4.5.7-.3 8a73.7 73.7 0 01-9.5 11.9l-2 2.3c-.2.3-.5.3-.3-.2z" class="cls-1"/></g></svg>