<svg viewBox="0 0 128 128"><path d="M125.5 26.2a28.8 28.8 0 00-2.6-7.5 28.8 28.8 0 00-4.8-6.4 23.4 23.4 0 00-6.6-4.5 27.3 27.3 0 00-7.7-2.6c-2.6-.5-5.5-.5-8.2-.7H30.3a45.5 45.5 0 00-6.1.5 21.8 21.8 0 00-5.9 1.5l-1.8.8a33.8 33.8 0 00-5 3.3c-.5.5-1 .7-1.6 1.2a22.4 22.4 0 00-4.8 6.3 23.6 23.6 0 00-2.6 7.6 78.5 78.5 0 00-.8 7.8V94a39.3 39.3 0 00.8 7.9 28.8 28.8 0 002.6 7.5 28.8 28.8 0 004.8 6.4 23.4 23.4 0 006.6 4.5 27.3 27.3 0 007.7 2.5c2.6.6 5.6.6 8.2.8h63.2a45 45 0 008.2-.8 27.3 27.3 0 007.7-2.5 30.1 30.1 0 006.6-4.5 22.4 22.4 0 004.8-6.4 23.6 23.6 0 002.7-7.5 78.5 78.5 0 00.7-7.9V34.1a39.3 39.3 0 00-.8-7.9zm-18.7 75.6C101 91 90.3 94.3 85 96.5a48.7 48.7 0 01-41.8.5 64.5 64.5 0 01-29.4-24 50 50 0 0010.9 6.3c15.9 7.1 31.7 6.6 42.9 0A223.2 223.2 0 0128 40.1a43.5 43.5 0 01-5.3-6.8c12.2 10.6 31.5 24 38.4 27.8a271.8 271.8 0 01-27-32.4 266.8 266.8 0 0044.5 35l1.7 1a32.7 32.7 0 001.2-3.6c3.7-12.9-.5-27.5-9.8-39.7C93.3 33.8 106 57 100.7 76.5l-.5 1.6.2.2c10.6 12.6 7.7 26 6.3 23.5z"/></svg>