<svg viewBox="0 0 128 128"><path d="M49.1 58.2l7.4-3.3L60 65.6zM41.6 62.1l4.3-2.5 3.9 6.7zM33.3 67.6l3.7-2.8 2 6.7zM99.5 85.3L97 82.7l-3.5 5.4zM104.5 91.1l-2.2-2.2-5.6 4.3zM95.5 30.7l-6.8.1 4.1 9.1zM68.4 48l-.7-4 6.5 3.6zM70 53.7l-.7-2.6 4 1.7zM115.2 49.6l1-3-5.4 2.3zM113.2 55.6l.8-2.4-4.1 1.1z"/><g><path d="M65.5 63.2h13v1.6h-13zM65.5 59.4h13v1.5h-13zM105 63.2h12.9v1.6h-13zM105 59.4h12.9v1.5h-13zM100.4 50h-21v-1.5h6.5c.8-3.5 1-6.8 0-8.4a2 2 0 00-1.8-1c-3.7 0-5.3 3.9-5.3 4l-1.4-.5c0-.2 2-5 6.7-5 1.3 0 2.4.6 3 1.7 1.2 2 1.1 5.6.3 9.2h11.5c1.5-4.5 4.7-6.6 10-6.6v1.4c-5.7 0-7.4 2.5-8.5 5.2h6.3v1.4h-6.3zm1 7c-1.7-2.5-2.3-4.6-1.6-7h-1.4a8 8 0 001 6.1H84.6c1-1.8 1.7-4 2.3-6.2h-1.4c-.7 2.4-1.6 4.7-2.7 6.6l-.3.6 8.2 5.1-4.6 3 .7 1.2 5.2-3.3 5.6 3.6.7-1.2-5.1-3.2 8-5.3zM92 61.3l-6-3.8h11.8L92 61.3z"/></g><g><path d="M118.4 34.7c0-2.5-.8-13-2.2-16-3.9 1.5-11 6.3-12.5 11.2-7.7-1.2-16.3-1-23.8.3-1.3-5.3-7.6-9.3-12.4-11.6-2 3.4-2.9 11.3-2.7 16.9.9 23.5 12.4 38.1 27.5 47a52.8 52.8 0 0026.1-47.8zm-12.9-4.5h0zm-1-.2h.5-.4zm11.5 6.4c.4 19.5-9.6 35-23.5 43-23.7-11.8-28.1-41.7-24.1-57.7 1.1 6.1 3.2 10 7.6 11.9 9.6-2.8 22.8-3 32.6-.3 4-3 5.6-7.5 6.5-11.4 1 4.6.9 14.5.9 14.5zm10.1 67.5c-2.4-2.7-7.2-4-11.2-3.9a1157 1157 0 00-19.2-20.6l-1 1.5 19.7 21.2h.8a11 11 0 019.3 3.3l1.1 1.8h-10.9C89.8 94.2 68 85 44.7 83c0-3.2.7-6.9 1.8-11l-2.2-.6c-1.1 4.2-1.7 8-1.8 11.4l-7.3-.2c-2 0-4 .2-5.7.5a78.8 78.8 0 01-5.8-6.4 98.8 98.8 0 0144-25.2l-.5-2.1c-16.6 4-34.8 14.9-45 25.4a34.6 34.6 0 01-7-15.5c-.8-5 .4-9.6 3.4-13.2 4.6-5.8 11.2-6.2 18-5-.2 1 0 2 .4 2.7 1.7 2.6 11.3 3.5 17 1-4.2-6-12.7-8.8-15.1-7.7a4 4 0 00-1.8 2 38 38 0 00-6.3-.8 17 17 0 00-14 6.4 19 19 0 00-3.9 15c.8 5.2 3.4 10.9 7.8 16.7l-2.1 2.4C7.9 90.8 0 103.7 0 105.8v1.1h14.2l-.3-1.3c-.8-4.2.8-9.5 4.1-13.5 2-2.4 5.5-5.3 10.8-6.6 4.8 4.7 10.8 9.6 17.6 14.3h10.5v-1c0-1.3-.6-2.4-1.7-3.1-1.7-1.1-4.3-1.3-6.6-.5a16 16 0 01-3.8-10c22.8 2 44.7 11.3 69.4 24.2h13.6l.1-1c.3-1.2-.4-2.9-1.8-4.5zM16.3 90.7c-3.4 4-5.1 9.4-4.7 14h-9c1.8-3.9 9-15.1 19.5-26.4 1.5 1.8 3.1 3.6 5 5.4a21.9 21.9 0 00-10.8 7z"/></g></svg>