<svg viewBox="0 0 128 128"><path d="M64 3.2a60.8 60.8 0 100 121.6A60.8 60.8 0 0064 3.2zm13.6 21a8.1 8.1 0 1114 8 8.1 8.1 0 01-14-8zM64 28.8c3.3 0 6.4.4 9.4 1.2A11.4 11.4 0 0088.7 39c6 5.9 9.9 13.9 10.5 22.8l-11.6.2A23.7 23.7 0 0054 42.5l-5.6-10c4.7-2.4 10-3.7 15.6-3.7zM22.7 72a8.1 8.1 0 110-16.2 8.1 8.1 0 010 16.2zm7.2.7a11.4 11.4 0 000-17.6 35.3 35.3 0 0114.6-20.5l5.9 10a23.7 23.7 0 000 38.7l-6 10A35.3 35.3 0 0130 72.7zm58.8 34a8.1 8.1 0 11-8.1-14 8.1 8.1 0 018.1 14zm0-17.7A11.4 11.4 0 0073.4 98a35.2 35.2 0 01-25-2.4L54 85.5A23.6 23.6 0 0087.6 66l11.6.2c-.6 9-4.5 17-10.5 22.8z"/></svg>