<svg viewBox="0 0 199 200"><path d="M80.5 9.9a74.8 74.8 0 00-23.6 8.3 95.7 95.7 0 00-44.7 49.7c-6.4 17.6-7 42.4-1.5 59.6a96.2 96.2 0 0048 54.8 98.2 98.2 0 0086.1-1.3 105.7 105.7 0 0034.6-31.2 105 105 0 0012.2-27.8c2.6-10.4 2.7-35.8.1-44.5A94.4 94.4 0 0080.5 9.9zm40.7 6c31.2 8 54 29.5 63.9 60.1 2.2 6.8 2.4 9.2 2.3 24.5 0 16.7-.1 17.2-3.3 26a88.6 88.6 0 01-146.6 33A58.7 58.7 0 0122.2 139a77.4 77.4 0 01-9.6-39.5 85.1 85.1 0 0145.5-75.4C66.2 19.6 76 16.4 91 13.6c5.1-.9 22.7.4 30.2 2.3z"/><path d="M95.4 21.1c-.4.6-2 .8-3.9.5-4.1-.8-8.4 1-9.1 3.9-.3 1.1-1.9 2.6-3.5 3.2a7 7 0 00-3.9 4c-.6 1.5-2.6 3.8-4.4 5C66.7 40.2 63 48.6 63 55c0 3.2-1 5.3-4.6 10.2A53.2 53.2 0 0153 72c-1.3.8-5 7.4-5 8.8 0 .8-3.4 7.3-7.5 14.5-9.7 16.8-11.8 23.7-11.3 35.8.3 8.7.4 9.2 3.3 11.8 1.7 1.4 3.6 3.8 4.3 5.4 1.3 3 5.4 5.1 8.2 4.2.9-.3 2.3.2 3 1 .9 1.1 2.7 1.6 5.4 1.4 2.3-.1 5.5.5 7.3 1.4a16 16 0 005.6 1.7 41 41 0 0015.9-5.2c.3-.9 2.7-.9 9.9.2 5.2.7 10.8 1.3 12.4 1.2 47.7-2.3 43.3-1.7 55-7.2 9-4.3 12.6-7.6 12.9-11.6 0-1.6 1.1-3.9 2.4-5.3 2.6-2.8 2.7-4.6.8-8.3a8.2 8.2 0 01-1-4.5c.3-1-.7-3.6-2.1-5.7-1.4-2.1-2.4-4.5-2.1-5.3 1-2.5-2-7.7-7.2-12.6a21.2 21.2 0 00-6.5-4.7c-1.3 0-8.7-15.1-8.7-17.7 0-.7-1.4-2.9-3.2-4.8-1.7-2-6.2-8.4-9.9-14.3-12.2-19.2-16.2-23.5-27.6-29.1-6.4-3.2-10.7-3.9-11.9-2zm-3.2 6.5c1.6.9 4.9 3.3 7.3 5.5 4.1 3.8 4.3 3.8 5.9 2 1.6-1.8 1.5-2-2-5-4.9-4-3.6-5.2 2.3-2.1 8.3 4.5 14.6 11.2 23.3 25.2 4.6 7.3 9.1 14 10.1 14.8 1.8 1.5 12.4 24.6 13.1 28.4.2 1.5-.8 2.4-4.7 3.8-2.7 1-7.5 2.3-10.6 2.8-7.3 1.3-10.5.2-12.4-4.5-.8-1.9-2.3-3.8-3.2-4.4-1-.5-7.8-1.9-15.1-3.2-15.1-2.6-17-3.8-13.3-8.6 2.2-2.8 2.8-8.4 1.2-12.6a79.1 79.1 0 00-16.3-17c-4.1-3.3-5-3.7-6.8-2.7-2 1.1-2.1 1-1.5-1.2 2.7-8.4 4.2-8.7 12.4-2.4 5.2 4 5.8 4.3 7.6 2.9 1.9-1.4 1.7-1.7-4.5-7.3-5.9-5.4-6.4-6-4.9-7.5 1.6-1.6 2.9-.9 15.5 8 .9.7 1.9.5 3-.7 1.5-1.5 1.4-1.9-2.1-5a54.9 54.9 0 00-6.7-5c-2.7-1.7-3.5-3.7-2.1-5.1.9-.9 1-.9 4.5.9zM81.5 63.2c8.5 8.5 9.9 11.7 6.4 15.4a8.8 8.8 0 00-2.3 5.7c0 3.1.8 5.5 7 21.5 3.1 8.1 2.4 9.7-4.5 9.7-4.3 0-5.5.5-8.5 3.4-5.9 5.7-11.2 26-8.1 30.8 1.5 2.2 1.4 2.3-.9 2.3-1.3 0-3 .2-3.8.5-.7.3-2.2 0-3.2-.8-1.6-1.2-1.7-2-.7-8.7.7-5.6.7-7.6-.2-8.2-2.5-1.6-3.4-.6-4.7 4.9-1.7 7.9-3 10.3-5.3 10.3-1.8 0-1.9-.5-1.4-6.8.4-3.7.9-7.7 1.3-8.9.4-1.6 0-2.4-1.6-3.3-1.2-.6-2.4-1-2.6-.7-.3.3-1 3.6-1.6 7.3-1.3 8.9-2.4 11-4.5 9.2-1.2-1-1.4-2.5-.9-7.3.3-3.3.9-7.2 1.2-8.7.5-2.1.2-2.7-1.6-3.3-2.8-.9-3.6.3-4.5 6.4-.7 4.3-.8 4.4-1.7 2.1a52 52 0 015.3-29.5c.7-1 2.8-4.7 7.7-13.5 1.3-2.5 2.8-5 3.3-5.5.4-.6 1.4-2.8 2.1-5A143 143 0 0173.3 56c.5 0 4.2 3.3 8.2 7.2zM104 95.9c1.9.3 3.4 1 3.3 1.4-.1.4-2 3.1-4.2 5.9-3.4 4.2-4.2 4.7-4.7 3.2-.3-1.1-1.4-4-2.5-6.6-2.5-6.1-2.5-6.2 1.4-5.3l6.7 1.4zm14.4 3.7c.9.8 1.6 2.2 1.6 2.9 0 .8 1.7 2.6 3.7 4 6 4 11.6 3.5 29.6-2.8 4.2-1.4 5.7-2.5 5.7-3.8 0-2.6 1.5-2.4 3.9.7 4 5.1 2.9 6.8-6.5 10-6 2-6.5 2.4-5.8 5.1l.6 2.1 8-2.5c6.6-2 8.2-2.2 8.9-1.1.5.7.9 1.6.9 2 0 1-7.6 4.8-12.5 6.4-3.3 1-4 1.6-3.7 3.5.4 3.8 0 3.8 13.1-1.7 2.6-1.1 3.6-1.2 4.7-.3 2.3 1.9-.8 4.4-9.2 7.5-6.6 2.4-7.4 2.9-6.8 4.8.9 3.1.9 3.1 7 .8 5-1.8 5.4-1.8 4-.3-2.4 2.6-11 7.1-17 8.8-8.8 2.5-42.6 3.4-58.8 1.5-9.5-1.1-13.8-2-13.8-2.8 0-4.2 3.5-16.5 5.6-19.7 2.3-3.5 2.7-3.7 8-3.7 4.5 0 5.9-.4 7.4-2.3 7.8-9.4 15.6-18.4 16.8-19.5 2-1.6 2.7-1.5 4.6.4z"/></svg>