<svg id="webstorm" viewBox="0 0 128 128"><defs/><g id="plain"><path d="M75.6 113l4.5-5.3 1-1c1-1.3 2-2.3 2.8-3.2a69.7 69.7 0 006-7.3c2.7-3.7 4.5-6.5 4.2-11.2-.2-2.5-.3-4.2-1.8-6.1a65.8 65.8 0 00-4.7-4.8l-6.2-6.3a48 48 0 01-5.5-8.9 40.9 40.9 0 01-3.2-10.6l-7-36.3H45.4l-9.9 45.8L26.8 12H3l21.5 104h20l10-45 9 45h9.3z" class="cls-1"/><path d="M117.6 18.2c2.1-2.4 3.9-4.4 5.3-6.2h-32c-2 2.4-5.8 7.1-8 11.3-2.9 5.5-5.3 9.6-5.6 19.7l.2 3.3c0 4.8 3.4 11.9 3.4 11.9a42.8 42.8 0 003.5 5.5l.7.9c3.4 4 8.7 8.3 11 11.2 2.7 3.3 2.8 6.4 2.9 8.8.4 6.6-2.3 10.5-5.1 14.4-4.4 6-5.9 7-9.2 10.8l-5.3 6.2h33.1a89 89 0 007-11.2c2.8-5.5 5.2-9.7 5.5-19.8l-.1-3.3c0-4.8-3.5-11.9-3.5-11.9a43.7 43.7 0 00-3.5-5.5l-.7-.9c-3.4-4-8.6-8.3-11-11.2-2.7-3.3-2.7-6.4-2.9-8.9-.4-6.5 2.3-10.5 5.1-14.3 4.4-5.9 6-7 9.2-10.8z" class="cls-1"/></g></svg>