<svg viewBox="0 0 128 128"><path fill-rule="evenodd" d="M64 126.2A62.2 62.2 0 102 63.2c0 35 27.6 63 62.2 63zM64 4.6a59.3 59.3 0 010 118.5A59.2 59.2 0 0164 4.6zM39.2 36c.5 1.8-1 2.4-2.6 2.5l-5.3.4 19.3 57.6.7-1.2 10.7-32c.3-1 .1-2.3-.2-3.4-1.9-5.3-4-10.5-5.7-15.9-1-3.6-2.5-6-7-5.6-.6 0-1.6-1.5-2.4-2.4 1-.6 2-1.7 3-1.7h26.7c1 0 2 1.2 3 1.8-1 .8-1.7 2-2.7 2.3-1.6.5-3.5.4-5.5.6l19.4 57.6 8.3-27.7a27 27 0 00-3.3-22.5c-1.3-2.1-2.9-4.2-3.6-6.5-.8-2.6-1.5-5.6-1-8.2.7-4.5 4-6.7 8.7-7.2a52.6 52.6 0 00-80 10.5c5.7-.2 11-.6 16.5-.7 1 0 2.7.9 3 1.7zm10 78l-.1 1.3c10.9 3 21.6 2.8 32.6-1L65 68.4 49.3 114zm-8.4-2.1L15.5 42.4a52.7 52.7 0 0025.3 69.4zm76.4-44.6c.8-10.5-2.8-25-6-27.1-.3 3.9 0 8.2-1.1 12.1-2.7 9.3-5.9 18.4-9 27.5L91 109.4a51 51 0 0026.3-42.2z" clip-rule="evenodd"/></svg>