<svg id="Yarn" viewBox="0 0 128 128"><defs/><g id="original"><path d="M99.2 80.7C95 80.7 91.1 83 88 85c-6 3.7-9 3.5-9 3.5l-.1-.2c-.4-.7 2-6.7-.7-13.8-2.8-7.9-7.3-9.8-7-10.4 1.6-2.6 5.4-6.7 7-14.3a30 30 0 00-1.4-16.3c-.4-.7-3.8 1.2-3.8 1.2s-3.2-7-4-7.6c-3-1.9-6 7.6-6 7.6A14 14 0 0051 39.2a9.6 9.6 0 01-3.9 2.3c-.4.1-.9 0-2.1 3.4-1.9 5.1 3.2 10.8 3.2 10.8s-6 4.4-8.4 9.8A24.8 24.8 0 0038.2 77s-4.4 3.8-4.6 7.7a12.9 12.9 0 001.7 7.9 2 2 0 002.7.9s-3 3.3-.2 4.8c2.4 1.3 6.6 2 8.8-.2 1.6-1.6 2-5.2 2.5-6.6.1-.4.6.5 1 1a10 10 0 001.4 1s-3.9 1.6-2.3 5.5c.6 1.2 2.5 2 5.6 2 1.1 0 13.7-.7 17-1.5a4.3 4.3 0 002.7-1.5 63 63 0 0015.5-7c4.7-3 6.6-3.9 10.5-4.8 3.1-.8 3-5.7-1.3-5.6z" class="cls-1"/><path d="M64 2a62 62 0 1062 62A62 62 0 0064 2zm37.3 87.8c-3.4.8-5 1.5-9.4 4.4a67 67 0 01-15.6 7.2 8.7 8.7 0 01-3.6 1.7c-3.8 1-16.9 1.7-18 1.7h-.2c-4 0-6.2-1.3-7.5-2.6-3.4 1.7-7.8 1-11-.7a5.5 5.5 0 01-3-3.9 6 6 0 010-2 6.7 6.7 0 01-.7-1 16.4 16.4 0 01-2.3-10c.3-3.8 2.9-7.1 4.5-9A28.6 28.6 0 0136.6 64a26.8 26.8 0 016.8-9c-1.6-2.8-3.3-7-1.7-11.4C43 40.5 44 38.7 46 38a6.8 6.8 0 002.5-1.3A17.6 17.6 0 0160.3 31l.7-1.5c1.6-3.4 3.3-5.3 5.3-6a4.9 4.9 0 014.4.5c.6.5 1.5 1 3.9 6a4.7 4.7 0 012.8 0 3.8 3.8 0 012.4 1.9 33 33 0 011.7 18.6 33.8 33.8 0 01-5.8 13.3 25.7 25.7 0 015.8 9.4 25.4 25.4 0 011.4 10.5 28.7 28.7 0 003.1-1.8 26 26 0 0113.2-4.8 6.6 6.6 0 017 5.7 6.3 6.3 0 01-4.9 7z" class="cls-1"/></g></svg>