<svg viewBox="0 0 128 128"><path fill-rule="evenodd" d="M53.6 80.9L29 81h-1.2c11.4-16 22.6-31.1 34-46.7h-.8l-53.6-.1c-.6 0-.8.1-.8.8v11c0 1.1 0 1.1 1 1.1h27.2l1.2.1L1.8 93.8h52c.7 0 .8-.2.8-.8V81.8c0-.8-.2-1-1-1zm71.6-46l-48.5.1a15.6 15.6 0 00-16.4 15.5c0 .8.5.5 1 .5H86l12.5.2c4.6 0 9.1.1 13.7-.2 4.7-.2 8.4-2.4 11-6.4 1.8-2.7 2.5-5.7 3-8.9 0-.9-.5-.7-1-.7zm-24.6 21.2H76c-2.6 0-5.2.5-7.5 1.8-5.4 3-7.5 8-8.1 13.7-.1.8.4.8.9.8h17.3c3.2 0 6.5 0 9.7-.3 4.1-.4 7.5-2.4 10-5.9a19 19 0 003-9.1c.2-1 .2-1-.7-1zm-16.4 21h-7.5l-3.5.4c-9 1.4-12.3 8.9-12.8 15.3 0 .5.1.7.7.7h4.5c2 0 4 0 6-.2 7.6-1 13.3-7.8 13.3-15.5 0-.5-.2-.6-.7-.6z" clip-rule="evenodd"/></svg>